<svg width="80" height="84" viewBox="0 0 80 84" fill="none" xmlns="http://www.w3.org/2000/svg">
<g clip-path="url(#clip0_2668_5810)">
<path d="M64.2458 12.8333H57.5419L44.9162 1.80298C42.2346 -0.530355 37.8771 -0.530355 35.1955 1.80298L22.3464 12.9393H15.6425C14.6369 12.9393 13.9665 13.6818 13.9665 14.5303V20.2575L0.782123 31.8181C0.223464 32.2424 0 32.8787 0 33.5151V82.409C0 82.7272 0.111732 83.1515 0.446927 83.4696C0.782123 83.7878 1.22905 83.8939 1.67598 83.8939H78.2123C79.2179 83.8939 79.8883 83.1515 79.8883 82.303V34.2575C79.8883 33.5151 79.5531 32.6666 78.9944 32.0303C77.5419 30.4393 73.9665 27.2575 66.0335 20.3636L65.9218 20.2575V14.5303C66.0335 13.5757 65.2514 12.8333 64.2458 12.8333ZM37.4302 4.13631C38.8827 2.96965 41.1173 2.96965 42.5698 4.13631L52.514 12.9393H27.3743L37.4302 4.13631ZM17.3184 16.1212H62.5698V44.6515V44.7575L42.5698 62.2575C41.7877 62.8939 40.8939 63.2121 40 63.2121C39.1061 63.2121 38.1006 62.8939 37.4302 62.2575L17.3184 44.6515V16.1212ZM13.9665 24.7121V41.7878L4.24581 33.1969L13.9665 24.7121ZM3.35196 36.803L27.2626 57.6969L3.35196 78.803V36.803ZM6.03352 80.8181L29.7207 59.9242L35.0838 64.6969C36.3129 65.8636 38.1006 66.5 40 66.5C41.8994 66.5 43.5754 65.8636 44.9162 64.6969L50.2793 59.9242L73.9665 80.8181H6.03352ZM76.648 78.6969L52.8492 57.6969L76.7598 36.909V78.6969H76.648ZM70.2793 28.4242C72.4022 30.3333 74.3017 31.9242 75.419 32.9848L75.7542 33.303L66.0335 41.8939V24.7121L70.2793 28.4242Z" fill="#262626"/>
<path d="M41.0266 24.1499C33.4369 24.1499 27.6543 29.618 27.6543 36.76C27.6543 43.5673 33.3164 47.2499 38.8581 47.2499C41.5085 47.2499 43.3156 46.9151 45.3636 46.0224H45.484L44.7612 43.7905L44.6407 43.9021C43.3156 44.5716 41.388 44.9064 39.5809 44.9064C34.1597 44.9064 30.6661 41.6702 30.6661 36.5369C30.6661 29.9528 35.7259 26.4934 40.6652 26.4934C45.725 26.4934 48.9777 29.3948 48.9777 33.8586C48.9777 35.8673 48.3754 37.6528 47.2911 38.5456C46.8092 38.9919 46.2069 39.2151 45.725 39.2151C45.484 39.2151 45.2431 39.1035 45.1226 38.9919C44.7612 38.6571 44.7612 37.876 45.0022 36.5369L46.0864 30.3992H45.9659C45.0022 29.9528 43.1951 29.618 41.7494 29.618C36.3282 29.618 33.3164 33.6354 33.3164 37.318C33.3164 39.9963 35.003 41.7818 37.4125 41.7818C39.0991 41.7818 40.6652 41.1122 41.7494 39.6615L41.9904 39.4383L42.1108 39.7731C42.4723 41.1122 43.5565 41.7818 45.1226 41.7818C49.2187 41.7818 51.9895 38.5456 51.9895 33.8586C51.869 28.1673 47.2911 24.1499 41.0266 24.1499ZM41.5085 35.4209C41.2675 37.2064 39.9424 38.7687 38.6172 38.7687C37.6534 38.7687 37.0511 38.0992 37.0511 36.8716C37.0511 34.4166 38.8581 32.4079 41.0266 32.4079C41.2675 32.4079 41.5085 32.4079 41.7494 32.5195H41.8699L41.5085 35.4209Z" fill="#262626"/>
</g>
<defs>
<clipPath id="clip0_2668_5810">
<rect width="80" height="84" fill="white"/>
</clipPath>
</defs>
</svg>
