<svg width="48" height="48" viewBox="0 0 48 48" fill="none" xmlns="http://www.w3.org/2000/svg">
<g clip-path="url(#clip0_2603_914)">
<path d="M47.5641 14.6702C47.3293 14.4424 47.02 14.3074 46.6933 14.2901C46.3666 14.2728 46.0447 14.3745 45.7872 14.5762L33.3797 2.17896C33.5906 1.93522 33.7079 1.62424 33.7102 1.30186C33.7116 0.950067 33.5743 0.611907 33.328 0.360704C33.0707 0.126875 32.7355 -0.00268555 32.3879 -0.00268555C32.0402 -0.00268555 31.705 0.126875 31.4477 0.360704C30.3053 1.4863 29.4818 2.89479 29.0613 4.44249C28.6118 5.98636 28.569 7.62022 28.9373 9.18546L30.1254 14.2673L25.4248 13.1515C23.7382 12.7487 21.9759 12.7914 20.3109 13.2755C18.6335 13.739 17.1053 14.6301 15.8756 15.8615C14.646 17.093 13.7572 18.6226 13.2961 20.3006C12.8333 21.9689 12.7907 23.7258 13.1722 25.4145L14.2879 30.1058L9.20506 28.9188C7.64296 28.5571 6.01447 28.5998 4.47345 29.0427C2.92092 29.4581 1.50817 30.2822 0.382366 31.4292C0.135565 31.6796 -0.00189091 32.0177 0.000118491 32.3693C-0.00221888 32.5427 0.0300454 32.7149 0.0950247 32.8757C0.160004 33.0365 0.256394 33.1828 0.378558 33.3059C0.500723 33.429 0.64621 33.5266 0.806511 33.5928C0.966813 33.659 1.13871 33.6927 1.31216 33.6917H1.32249C1.60506 33.6916 1.88018 33.6011 2.10765 33.4334L14.5152 45.841C14.3301 46.0422 14.2205 46.3015 14.2053 46.5745C14.1954 46.7669 14.2262 46.9593 14.2957 47.1391C14.3651 47.3188 14.4716 47.482 14.6082 47.6179C14.7319 47.7405 14.8787 47.8374 15.0401 47.903C15.2014 47.9686 15.3741 48.0016 15.5483 48.0002C15.7226 48.0026 15.8956 47.97 16.0571 47.9043C16.2186 47.8387 16.3653 47.7413 16.4884 47.6179C17.6305 46.4928 18.454 45.0851 18.8749 43.5382C19.3296 41.9987 19.3723 40.3668 18.9989 38.8055L17.8418 33.6793L22.5527 34.7847C24.2392 35.188 26.0016 35.1453 27.6666 34.6607C29.3443 34.2016 30.8734 33.3133 32.1035 32.0835C33.3335 30.8536 34.2219 29.3246 34.6814 27.647C35.1442 25.9784 35.1868 24.2212 34.8053 22.5321L33.6586 17.8728L38.7414 19.0619C40.3001 19.4237 41.9254 19.3807 43.4627 18.9369C45.0184 18.5219 46.4346 17.6979 47.5641 16.5505C47.808 16.2983 47.9444 15.9612 47.9444 15.6103C47.9444 15.2595 47.808 14.9224 47.5641 14.6702ZM14.9284 32.9892L15.8272 36.8117L11.1163 32.1007L14.9284 32.9892ZM16.0132 43.5785L4.29782 31.8734C5.00458 31.5857 5.74923 31.4016 6.50866 31.3269L16.5607 41.378C16.4874 42.1344 16.3029 42.8759 16.0132 43.5785ZM32.2122 26.3443L32.1813 26.4672C32.016 27.1793 31.759 27.8669 31.4168 28.5127C31.3341 28.647 31.2515 28.7813 31.1688 28.9053C31.1275 28.9776 31.0758 29.0613 31.0242 29.1336C30.4927 29.8733 29.8311 30.5101 29.0716 31.0128C28.9166 31.1275 28.7514 31.2195 28.5861 31.3228C28.2426 31.5172 27.8872 31.6897 27.522 31.8393C27.3877 31.8796 27.2534 31.9313 27.119 31.9736L26.9331 32.0356C26.7908 32.0793 26.6459 32.1138 26.4992 32.1389C26.4269 32.1493 26.3442 32.171 26.2719 32.1803C25.4567 32.3271 24.6235 32.3449 23.8028 32.2329C23.2751 32.1677 22.7535 32.0606 22.2428 31.9127C22.2148 31.9072 22.1872 31.9 22.1602 31.891L19.8873 31.3641L17.129 30.7132L16.5504 28.2028L15.9615 25.6304C15.7085 25.012 15.5618 24.3554 15.5276 23.6882C15.4862 22.9911 15.5454 22.2918 15.7033 21.6116L15.7653 21.3327C15.7748 21.2413 15.7956 21.1514 15.8272 21.0651C15.8292 21.0428 15.8363 21.0212 15.8479 21.0021C15.8748 20.8784 15.9129 20.7574 15.9615 20.6405C16.0029 20.5165 16.0545 20.3926 16.0958 20.2799C16.2678 19.8072 16.5005 19.3589 16.788 18.9462C16.812 18.8994 16.8396 18.8544 16.8707 18.8119C17.3756 18.0488 18.0291 17.3952 18.7922 16.8903C18.9011 16.8111 19.015 16.7389 19.1332 16.6744C19.4005 16.4963 19.6841 16.3441 19.9803 16.2199C20.0778 16.17 20.1778 16.1251 20.2799 16.0856C20.4859 16.0017 20.6963 15.9289 20.9101 15.8676C21.1271 15.8056 21.3543 15.755 21.5816 15.7126C22.4204 15.593 23.2712 15.5825 24.1127 15.6816C24.6237 15.7398 25.1285 15.8435 25.6211 15.9915L25.6417 16.0019L30.7349 17.191L31.9333 22.3038C32.1674 22.874 32.3103 23.4775 32.3569 24.0921C32.3848 24.8451 32.3367 25.5989 32.2133 26.3422L32.2122 26.3443ZM32.9354 14.9068L32.0676 11.1256L36.7476 15.8056L32.9354 14.9068ZM41.3552 16.5804L31.3031 6.53246C31.3633 5.77127 31.5446 5.02457 31.8403 4.32059L43.5557 16.036C42.8531 16.3257 42.1116 16.5102 41.3552 16.5835V16.5804Z" fill="#262626"/>
<path opacity="0.81" d="M31.0243 29.1335C30.4936 29.8731 29.8326 30.5099 29.0738 31.0127L16.8677 18.8221C17.374 18.0579 18.0289 17.4033 18.7934 16.8975L31.0243 29.1335Z" fill="#262626"/>
<path opacity="0.81" d="M26.272 32.1833C25.4568 32.3301 24.6236 32.3479 23.8028 32.2359C23.2752 32.1707 22.7535 32.0636 22.2429 31.9157L15.9616 25.6334C15.7086 25.0151 15.5619 24.3584 15.5277 23.6912C15.4863 22.9941 15.5454 22.2948 15.7033 21.6146L26.272 32.1833Z" fill="#262626"/>
<path opacity="0.81" d="M32.3683 24.1034C32.3928 24.854 32.3409 25.6051 32.2134 26.3452L21.592 15.7156C22.4323 15.5993 23.2841 15.592 24.1262 15.6939C24.6373 15.7521 25.142 15.8558 25.6346 16.0039L25.6449 16.0142L31.9468 22.3161C32.1802 22.8861 32.3224 23.4892 32.3683 24.1034Z" fill="#262626"/>
</g>
<defs>
<clipPath id="clip0_2603_914">
<rect width="47.9442" height="48" fill="white"/>
</clipPath>
</defs>
</svg>
