<svg width="49" height="48" viewBox="0 0 49 48" fill="none" xmlns="http://www.w3.org/2000/svg">
<g clip-path="url(#clip0_2603_1033)">
<path d="M0 29.6904C0 25.3857 0 21.1106 0 16.8059C0 14.9484 0.796069 13.5332 2.32924 12.5012C3.09582 12 3.95086 11.6757 4.83538 11.4103C5.36609 11.2334 5.86732 11.0565 6.33907 10.7322C6.75184 10.4373 7.0172 10.0541 6.95823 9.52334C6.92875 9.28747 7.0172 9.02211 6.92875 8.87469C6.84029 8.69779 6.54545 8.81573 6.33907 8.78624C4.8059 8.52088 3.77396 7.42998 3.6855 5.80835C3.62654 4.8059 3.59705 3.80344 3.71499 2.80098C3.86241 1.32678 5.07125 0.14742 6.57494 0.029484C6.63391 0 6.78133 0 6.89926 0C11.9705 0 17.0713 0 22.1425 0C23.6757 0 24.8845 0.855037 25.2678 2.27027C25.3268 2.47666 25.3857 2.68305 25.3857 2.88944C25.3857 4.03931 25.5332 5.21867 25.2973 6.33907C25.0025 7.78378 23.7641 8.75676 22.2899 8.78624C22.231 8.78624 22.1425 8.72727 22.0835 8.84521C21.9361 9.2285 22.1425 10.2015 22.4668 10.5258C22.7617 10.7912 23.086 10.9975 23.4398 11.145C24.059 11.3808 24.7076 11.5872 25.3268 11.8231C26.3587 12.2359 27.3022 12.7961 28.0098 13.6806C28.7174 14.5356 29.0418 15.5381 29.0418 16.6585C29.0418 19.312 29.0418 21.9656 29.0418 24.6192C29.0418 27.5676 29.0418 30.4865 29.0418 33.4349C29.0418 33.6708 29.1007 33.7297 29.3366 33.7297C32.4914 33.7297 35.6757 33.7297 38.8305 33.7297C41.4251 33.7297 43.5184 35.4398 44.0491 37.9459C44.6978 41.1007 42.2506 44.1671 39.0368 44.1671C35.7052 44.1671 32.3735 44.1671 29.0418 44.1671C28.8649 44.1671 28.8354 44.226 28.8059 44.3735C28.1278 46.3489 26.801 47.5577 24.7666 47.9705C24.4128 48.059 24.059 48.059 23.7052 48.059C17.602 48.059 11.4988 48.059 5.39558 48.059C2.29975 48 0 45.7297 0 42.6339C0 40.3636 0 38.0639 0 35.7936C0 33.7592 0 31.7248 0 29.6904ZM14.5061 37.6216C18.398 37.6216 22.2899 37.6216 26.1523 37.6216C26.4177 37.6216 26.4767 37.5627 26.4767 37.2973C26.4767 32.1966 26.4767 27.1253 26.4767 22.0246C26.4767 21.7887 26.4472 21.7002 26.1818 21.7002C18.4275 21.7002 10.6437 21.7002 2.88943 21.7002C2.65356 21.7002 2.59459 21.7592 2.59459 21.9951C2.59459 27.0958 2.59459 32.1966 2.59459 37.2973C2.59459 37.5627 2.68305 37.6216 2.91892 37.6216C6.75184 37.6216 10.6437 37.6216 14.5061 37.6216ZM14.5061 19.1351C18.398 19.1351 22.2899 19.1351 26.1818 19.1351C26.3882 19.1351 26.4767 19.1057 26.4767 18.8403C26.4472 18.1327 26.4472 17.4545 26.4767 16.7469C26.5061 15.8034 26.0934 15.1253 25.3268 14.6536C24.7371 14.2998 24.0885 14.0344 23.4398 13.828C22.7322 13.5921 22.0246 13.3268 21.4054 12.914C20.5209 12.3243 19.9017 11.5577 19.6364 10.5258C19.5184 10.0541 19.5184 9.58231 19.5479 9.11057C19.5479 8.87469 19.4889 8.78624 19.2236 8.78624C16.2162 8.78624 13.2088 8.78624 10.2015 8.78624C9.55282 8.78624 9.52334 8.78624 9.55282 9.46437C9.58231 10.6143 9.19902 11.5872 8.37346 12.3833C7.60688 13.1204 6.69287 13.5332 5.69042 13.8575C4.89435 14.0934 4.12776 14.3882 3.47912 14.9189C2.91892 15.3612 2.62408 15.9509 2.62408 16.6585C2.62408 17.3956 2.62408 18.1327 2.62408 18.8698C2.56511 19.1057 2.65356 19.1646 2.88943 19.1646C6.75184 19.1351 10.6143 19.1351 14.5061 19.1351ZM14.5651 40.1867C10.6732 40.1867 6.78133 40.1867 2.88943 40.1867C2.65356 40.1867 2.59459 40.2457 2.59459 40.4816C2.62408 41.1892 2.59459 41.8673 2.59459 42.5749C2.59459 44.285 3.71499 45.4349 5.45455 45.4349C8.46192 45.4349 11.4988 45.4349 14.5061 45.4349C17.5725 45.4349 20.6683 45.4349 23.7346 45.4349C25.1499 45.4349 26.2703 44.4914 26.4472 43.0762C26.5651 42.2211 26.4472 41.3366 26.5061 40.4816C26.5061 40.2162 26.4472 40.1572 26.1818 40.1572C22.2899 40.1867 18.4275 40.1867 14.5651 40.1867ZM14.5061 6.19165C17.0713 6.19165 19.6069 6.19165 22.172 6.19165C22.6437 6.19165 22.8206 5.98526 22.8501 5.543C22.8501 4.77641 22.8501 4.00983 22.8501 3.24324C22.8501 2.7715 22.6437 2.56511 22.172 2.56511C17.0713 2.56511 12 2.56511 6.89926 2.56511C6.42752 2.56511 6.22113 2.7715 6.22113 3.24324C6.22113 4.00983 6.22113 4.74693 6.22113 5.51351C6.22113 6.01474 6.42752 6.19165 6.92875 6.19165C9.43489 6.19165 11.9705 6.19165 14.5061 6.19165ZM35.2334 38.8894C35.2334 39.715 35.2334 40.5111 35.2334 41.3366C35.2334 41.4545 35.1744 41.5725 35.3808 41.5725C36.6781 41.5725 37.9754 41.602 39.2432 41.543C40.7174 41.4545 41.8083 39.9509 41.543 38.5061C41.2776 37.1499 40.2457 36.2948 38.8305 36.2654C37.7101 36.2359 36.5897 36.2654 35.4398 36.2654C35.2629 36.2654 35.2039 36.3243 35.2334 36.5012C35.2334 37.2678 35.2334 38.0639 35.2334 38.8894ZM29.0418 38.8894C29.0418 39.715 29.0418 40.5111 29.0418 41.3366C29.0418 41.5135 29.0713 41.5725 29.2776 41.5725C30.3391 41.5725 31.371 41.5725 32.4324 41.5725C32.6388 41.5725 32.6683 41.5135 32.6683 41.3366C32.6683 39.715 32.6683 38.0934 32.6683 36.4717C32.6683 36.2948 32.6093 36.2359 32.4324 36.2359C31.371 36.2359 30.3391 36.2359 29.2776 36.2359C29.1007 36.2359 29.0418 36.2948 29.0418 36.4717C29.0418 37.2678 29.0418 38.0639 29.0418 38.8894Z" fill="#262626"/>
<path d="M43.7248 16.2162C46.9386 16.2162 49.4152 19.0761 48.914 22.2309C48.6486 23.8526 47.7641 25.0614 46.4373 25.9459C43.8132 27.715 41.1892 29.5135 38.5946 31.312C36.2653 32.9336 33.3464 32.4324 31.6953 30.6634C29.5135 28.3341 29.8968 24.5897 32.5798 22.7616C35.2924 20.8747 38.0344 19.0172 40.7469 17.1597C41.6314 16.5405 42.6339 16.2162 43.7248 16.2162ZM35.5282 29.7494C36.059 29.7494 36.5307 29.6019 36.973 29.3071C37.9459 28.629 38.9189 27.9803 39.8919 27.3022C40.0098 27.2137 40.0393 27.1548 39.9508 27.0073C39.0368 25.6806 38.0933 24.3243 37.1793 22.968C37.0614 22.7911 37.0024 22.8206 36.855 22.9091C35.9115 23.5872 34.9386 24.2358 33.9951 24.8845C33.0221 25.5626 32.6093 26.7715 32.9631 27.8624C33.3169 28.9828 34.3489 29.7494 35.5282 29.7494ZM43.6363 18.7813C43.2531 18.7813 42.7813 18.8992 42.3685 19.1646C41.3661 19.8427 40.3636 20.5503 39.3317 21.2285C39.1843 21.3169 39.1843 21.4054 39.2727 21.5233C39.4496 21.7887 39.6265 22.054 39.8034 22.3194C40.5405 23.3808 41.2776 24.4717 42.0147 25.5331C42.0737 25.6216 42.1032 25.769 42.2801 25.6511C43.312 24.914 44.3734 24.2358 45.4054 23.4693C46.2899 22.8206 46.5847 21.5823 46.2015 20.5503C45.8476 19.4594 44.8747 18.7813 43.6363 18.7813Z" fill="#262626"/>
<path d="M7.90168 29.6609C7.90168 28.9533 7.90168 28.2457 7.90168 27.538C7.90168 26.7715 8.31445 26.3292 9.08104 26.2997C9.67072 26.2702 10.2899 26.2702 10.8796 26.2702C11.086 26.2702 11.1449 26.2407 11.1449 26.0049C11.1154 25.4447 11.1449 24.855 11.1449 24.2948C11.1449 23.4987 11.6461 23.027 12.4127 23.027C13.828 23.027 15.2137 23.027 16.6289 23.027C17.3366 23.027 17.9262 23.5577 17.8968 24.2948C17.8673 24.8845 17.8968 25.4447 17.8968 26.0343C17.8968 26.2407 17.9557 26.2702 18.1326 26.2702C18.6928 26.2702 19.2825 26.2702 19.8427 26.2702C20.6683 26.2702 21.14 26.742 21.14 27.538C21.14 28.9238 21.14 30.339 21.14 31.7248C21.14 32.5208 20.6683 32.9926 19.8427 32.9926C19.253 32.9926 18.6928 32.9926 18.1032 32.9926C17.9262 32.9926 17.8968 33.0221 17.8968 33.199C17.8968 33.7886 17.8968 34.4078 17.8968 34.9975C17.8968 35.7641 17.3955 36.2653 16.6289 36.2653C15.2137 36.2653 13.7985 36.2653 12.3832 36.2653C11.6167 36.2653 11.1154 35.7641 11.1154 34.968C11.1154 34.3783 11.1154 33.8181 11.1154 33.2285C11.1154 33.0515 11.086 32.9926 10.909 32.9926C10.2899 32.9926 9.67072 32.9926 9.02207 32.9926C8.37342 32.9926 7.90168 32.5208 7.87219 31.8427C7.90168 31.1351 7.90168 30.398 7.90168 29.6609ZM13.5036 26.5945C13.5036 26.8304 13.5036 27.0663 13.5036 27.3316C13.5036 28.2162 13.0319 28.6879 12.1474 28.6879C11.5872 28.6879 11.027 28.6879 10.4668 28.6879C10.2899 28.6879 10.2604 28.7174 10.2604 28.8943C10.2604 29.425 10.2604 29.9262 10.2604 30.457C10.2604 30.6339 10.2899 30.6928 10.4963 30.6928C11.0565 30.6928 11.6461 30.6928 12.2063 30.6928C13.0319 30.6928 13.5036 31.1646 13.5036 31.9901C13.5036 32.5798 13.5036 33.14 13.5036 33.7297C13.5036 33.8771 13.5331 33.9656 13.71 33.9656C14.2407 33.9656 14.8009 33.9656 15.3317 33.9656C15.4791 33.9656 15.538 33.9066 15.538 33.7592C15.538 33.1695 15.538 32.6093 15.538 32.0196C15.538 31.1646 16.0098 30.6928 16.8648 30.6928C17.425 30.6928 18.0147 30.6928 18.5749 30.6928C18.7223 30.6928 18.7813 30.6633 18.7813 30.4864C18.7813 29.9557 18.7813 29.425 18.7813 28.8943C18.7813 28.7174 18.7518 28.6584 18.5454 28.6584C17.9557 28.6584 17.3955 28.6584 16.8059 28.6584C16.0098 28.6584 15.538 28.1572 15.538 27.3906C15.538 26.8009 15.538 26.1818 15.538 25.5921C15.538 25.4447 15.5086 25.3857 15.3611 25.3857C14.8304 25.3857 14.2702 25.3857 13.7395 25.3857C13.5626 25.3857 13.5331 25.4447 13.5331 25.5921C13.5331 25.9459 13.5036 26.2702 13.5036 26.5945Z" fill="#262626"/>
</g>
<defs>
<clipPath id="clip0_2603_1033">
<rect width="48.973" height="48" fill="white"/>
</clipPath>
</defs>
</svg>
