<svg width="54" height="48" viewBox="0 0 54 48" fill="none" xmlns="http://www.w3.org/2000/svg">
<path fill-rule="evenodd" clip-rule="evenodd" d="M25.646 0C20.8615 0 16.9746 3.88689 16.9746 8.67137C16.9746 10.3206 17.5948 12.1256 18.7679 14.0568C19.9427 15.9906 21.6895 18.08 23.9882 20.3077C27.4475 23.6721 30.9049 26.0884 31.0638 26.1944C31.2577 26.3236 31.5864 26.4647 31.8997 26.4647C32.1245 26.4647 32.5029 26.4161 32.78 26.1622C32.8072 26.142 32.8443 26.1148 32.8907 26.0808L32.9095 26.067L32.9095 26.067C33.6942 25.492 36.8595 23.1724 39.9053 20.2136L39.9067 20.2123C42.1577 18.0086 43.8807 15.943 45.0434 14.0272C46.2045 12.114 46.8248 10.3208 46.8248 8.67137L46.8248 8.66627C46.775 3.88859 42.8937 0 38.1534 0C35.8038 0 33.495 0.978693 31.8949 2.67031C30.2608 0.981924 27.9567 0 25.646 0ZM21.5724 4.6448C22.6588 3.55839 24.087 2.95446 25.599 2.95446C27.6792 2.95446 29.5845 4.08169 30.5792 5.85467L30.5791 5.85468L30.5811 5.85804C30.8573 6.34146 31.3497 6.62206 31.8997 6.62206C32.4757 6.62206 32.9087 6.31771 33.1713 5.85804L33.1714 5.85808L33.1757 5.85029C34.1675 4.03921 36.0675 2.95446 38.1534 2.95446C41.2708 2.95446 43.8704 5.51179 43.8704 8.67137C43.8704 9.93216 43.2905 11.3764 42.3181 12.8956C41.3517 14.4053 40.0313 15.9371 38.6275 17.3614C36.0372 19.9893 33.2043 22.2095 31.8999 23.1984C30.5948 22.2071 27.7503 19.9656 25.1484 17.3261C23.7384 15.8956 22.4118 14.3605 21.4408 12.8545C20.4631 11.3383 19.882 9.90669 19.882 8.67137C19.882 7.1594 20.486 5.73121 21.5724 4.6448Z" fill="#262626"/>
<path fill-rule="evenodd" clip-rule="evenodd" d="M6.46141 24.4506H2.40651L2.3954 24.4511C1.10508 24.5097 0 25.6132 0 26.9622V44.2658C0 45.6178 1.11268 46.7305 2.46466 46.7305H6.50843C7.86041 46.7305 8.97309 45.6178 8.97309 44.2658V44.1554C10.4923 44.2201 13.454 44.6016 17.4275 46.1328C20.5863 47.3769 23.8439 48 27.1504 48C28.9714 48 30.7929 47.8084 32.5673 47.4247L32.5686 47.4244C39.4803 45.9095 46.0684 43.352 51.5748 39.9817L51.5859 39.9744C52.6247 39.2992 53.4083 38.2571 53.722 37.0024L53.7237 36.9955L53.7253 36.9886C54.1944 34.8513 53.2054 32.6586 51.3218 31.6122L51.3105 31.6062C50.1119 30.9809 48.6991 30.8729 47.4358 31.3455L47.4324 31.3467L37.705 34.8364C37.7398 33.6539 37.363 32.526 36.6062 31.5911L36.5986 31.5822C35.7084 30.5348 34.3976 29.9049 32.981 29.9049H26.9153C25.7156 29.9049 24.5087 29.4763 23.5127 28.6535L23.5058 28.648C20.9703 26.629 15.7681 23.825 8.92607 27.1056V26.9152C8.92607 25.5632 7.81339 24.4506 6.46141 24.4506ZM2.90744 43.776V27.358H6.06565V43.776H2.90744ZM8.92607 41.2446V30.343C11.9303 28.5739 14.5415 28.2736 16.6634 28.6154C18.8518 28.9681 20.5608 30.0111 21.6684 30.9153L21.6722 30.9183C23.1634 32.1112 25.0566 32.8124 26.9153 32.8124H32.934C33.5086 32.8124 34.0115 33.0396 34.3289 33.4628L34.3428 33.4813L34.3583 33.4984C34.7198 33.896 34.8695 34.4418 34.7577 35.0007L34.7555 35.0115L34.7539 35.0223C34.6863 35.4616 34.4213 35.8892 33.9572 36.1948C33.8789 36.2238 33.8222 36.2634 33.7921 36.286C33.7707 36.3021 33.7503 36.3193 33.7324 36.3354C33.4173 36.4828 33.052 36.5819 32.7459 36.5819H21.8841C21.0964 36.5819 20.4539 37.2243 20.4539 38.0121C20.4539 38.7998 21.0964 39.4423 21.8841 39.4423H32.7459C33.6077 39.4423 34.4311 39.2427 35.1601 38.8354L48.4274 34.1004C48.9587 33.9107 49.5195 33.9499 50.0053 34.2115L50.0119 34.215L50.0185 34.2183C50.7531 34.5856 51.1625 35.4335 50.9391 36.2897L50.9374 36.2965L50.9358 36.3032C50.8217 36.7978 50.5197 37.2411 50.0847 37.4949L50.0757 37.5004C43.4615 41.5527 36.5601 43.6058 31.9389 44.586L31.9359 44.5867C27.5228 45.5521 22.872 45.1405 18.4418 43.4334C14.055 41.6964 10.763 41.3007 8.92607 41.2446Z" fill="#262626"/>
</svg>
