<svg width="24" height="18" viewBox="0 0 24 18" fill="none" xmlns="http://www.w3.org/2000/svg">
<path d="M21.75 0H2.25C0.984375 0 0 1.03125 0 2.25V15.75C0 17.0156 0.984375 18 2.25 18H21.75C22.9688 18 24 17.0156 24 15.75V2.25C24 1.03125 22.9688 0 21.75 0ZM21.75 2.25V4.17188C20.6719 5.0625 18.9844 6.375 15.4219 9.1875C14.625 9.79688 13.0781 11.2969 12 11.25C10.875 11.2969 9.32812 9.79688 8.53125 9.1875C4.96875 6.375 3.28125 5.0625 2.25 4.17188V2.25H21.75ZM2.25 15.75V7.07813C3.28125 7.92188 4.82812 9.14062 7.125 10.9688C8.15625 11.7656 9.98438 13.5469 12 13.5C13.9688 13.5469 15.75 11.7656 16.8281 10.9688C19.125 9.14062 20.6719 7.92188 21.75 7.07813V15.75H2.25Z" fill="#262626"/>
</svg>
