<svg width="16" height="28" viewBox="0 0 16 28" fill="none" xmlns="http://www.w3.org/2000/svg">
<path fill-rule="evenodd" clip-rule="evenodd" d="M6.04282 1.92437C7.29989 0.635999 9.05967 0 11.0737 0C12.0054 0 12.9511 0.0944493 13.6551 0.186573C14.0092 0.232913 14.3068 0.279294 14.5168 0.314266C14.6219 0.331766 14.7053 0.346447 14.7632 0.35689L14.8303 0.369212L14.8487 0.372665L14.8539 0.373657L14.8555 0.373962C14.8556 0.373979 14.8564 0.374138 14.6968 1.23389L14.8564 0.374138C15.2619 0.45231 15.5556 0.813361 15.5556 1.23389V5.28418C15.5556 5.76743 15.1711 6.15918 14.6968 6.15918H12.6336C11.8047 6.15918 11.4177 6.4056 11.2201 6.63842C11.0022 6.89517 10.8758 7.29834 10.8758 7.84766V10.0488H14.4955C14.7458 10.0488 14.9837 10.1601 15.1468 10.3535C15.31 10.547 15.3822 10.8033 15.3445 11.0555L14.64 15.7723C14.5762 16.1998 14.2154 16.5156 13.791 16.5156H10.8758V27.125C10.8758 27.6082 10.4913 28 10.017 28H4.98502C4.51073 28 4.12623 27.6082 4.12623 27.125V16.5156H0.858793C0.384495 16.5156 0 16.1239 0 15.6406V10.9238C0 10.4406 0.384495 10.0488 0.858793 10.0488H4.12623V7.28369C4.12623 5.05682 4.7854 3.2131 6.04282 1.92437ZM13.838 1.97829C13.716 1.96025 13.5813 1.94129 13.4363 1.92231C12.769 1.83499 11.9033 1.75 11.0737 1.75C9.41444 1.75 8.12986 2.26757 7.26092 3.15815C6.39232 4.04837 5.84382 5.409 5.84382 7.28369V10.9238C5.84382 11.4071 5.45932 11.7988 4.98502 11.7988H1.71759V14.7656H4.98502C5.45932 14.7656 5.84382 15.1574 5.84382 15.6406V26.25H9.15822V15.6406C9.15822 15.1574 9.54271 14.7656 10.017 14.7656H13.053L13.4961 11.7988H10.017C9.54271 11.7988 9.15822 11.4071 9.15822 10.9238V7.84766C9.15822 7.06396 9.33379 6.1854 9.92097 5.49366C10.5285 4.77799 11.4498 4.40918 12.6336 4.40918H13.838V1.97829Z" fill="#262626"/>
</svg>
