<svg width="24" height="24" viewBox="0 0 24 24" fill="none" xmlns="http://www.w3.org/2000/svg">
<path fill-rule="evenodd" clip-rule="evenodd" d="M1.99292 1.99453C3.42471 0.616218 5.06888 0.188353 7.00124 0.0809883C8.99909 -0.0269957 15.0009 -0.0269961 16.9988 0.0809871C18.9333 0.188465 20.6297 0.617083 22.0064 1.99373C23.383 3.37039 23.8116 5.06687 23.9191 7.00134C24.0271 8.99927 24.0271 15.0008 23.9191 16.9988C23.8118 18.9312 23.3839 20.5754 22.0055 22.0072C20.629 23.3832 18.9328 23.8117 16.9988 23.9191C15.0008 24.0271 8.99927 24.0271 7.00134 23.9191C5.06931 23.8118 3.42536 23.3841 1.99373 22.0063C0.616047 20.5747 0.188329 18.9308 0.0809871 16.9988C-0.0269961 15.0009 -0.0269957 8.99909 0.0809883 7.00124C0.188447 5.06719 0.61692 3.37103 1.99292 1.99453ZM12.0271 1.94914C11.7611 1.94914 11.4491 1.9455 11.1057 1.94148C10.3032 1.93211 9.32923 1.92073 8.37089 1.94919C7.00756 1.98969 5.64678 2.11089 4.83854 2.44509C3.72647 2.89012 2.89103 3.72531 2.44566 4.78307L2.44564 4.78306L2.44483 4.78509C2.11106 5.61949 1.98972 6.99314 1.94919 8.35736C1.92065 9.31842 1.93217 10.2886 1.94156 11.0791C1.94554 11.4141 1.94914 11.7169 1.94914 11.973C1.94914 12.2389 1.9455 12.5509 1.94148 12.8943C1.93211 13.6969 1.92073 14.6709 1.94919 15.6292C1.98969 16.9925 2.11089 18.3533 2.4451 19.1616C2.8903 20.2741 3.72604 21.1098 4.83853 21.555C5.64678 21.8892 7.00756 22.0104 8.37089 22.0509C9.32918 22.0794 10.3031 22.068 11.1056 22.0586H11.1057H11.1059C11.4492 22.0546 11.7612 22.0509 12.0271 22.0509C12.2831 22.0509 12.5856 22.0545 12.9204 22.0585L12.921 22.0585H12.9212C13.7116 22.0679 14.6817 22.0794 15.6427 22.0509C17.0069 22.0104 18.3806 21.889 19.215 21.5553L19.215 21.5553L19.217 21.5544C20.2705 21.1109 21.1636 20.2771 21.556 19.1591C21.8894 18.3506 22.0104 16.9912 22.0509 15.6292C22.0794 14.6709 22.068 13.697 22.0586 12.8945V12.8943V12.8942C22.0546 12.5509 22.0509 12.2389 22.0509 11.973C22.0509 11.717 22.0545 11.4145 22.0585 11.0797L22.0585 11.0791V11.0789C22.0679 10.2885 22.0794 9.31837 22.0509 8.35736C22.0104 6.99314 21.889 5.61949 21.5553 4.78509L21.5553 4.78508L21.5544 4.78307C21.111 3.72979 20.2774 2.83675 19.2134 2.44421C18.3789 2.11091 17.0061 1.98969 15.6427 1.94919C14.6817 1.92065 13.7115 1.93217 12.921 1.94156C12.586 1.94554 12.2832 1.94914 12.0271 1.94914ZM17.1267 5.53357C17.1267 4.78882 17.7218 4.19374 18.4665 4.19374C19.2113 4.19374 19.8064 4.78882 19.8064 5.53357C19.8064 6.27832 19.2113 6.8734 18.4665 6.8734C17.7218 6.8734 17.1267 6.27832 17.1267 5.53357ZM5.92535 11.973C5.92535 8.63014 8.63151 5.87123 12.0271 5.87123C15.3693 5.87123 18.1289 8.63083 18.1289 11.973C18.1289 15.3686 15.3699 18.0747 12.0271 18.0747C8.63083 18.0747 5.92535 15.3693 5.92535 11.973ZM12.0271 7.84743C9.68849 7.84743 7.84743 9.68636 7.84743 11.973C7.84743 14.3137 9.74259 16.1527 12.0271 16.1527C14.3137 16.1527 16.1527 14.3116 16.1527 11.973C16.1527 9.68742 14.3127 7.84743 12.0271 7.84743Z" fill="#262626"/>
</svg>
