<svg width="26" height="26" viewBox="0 0 26 26" fill="none" xmlns="http://www.w3.org/2000/svg">
<path fill-rule="evenodd" clip-rule="evenodd" d="M0 3.7453C0 1.69154 1.68802 0 3.7375 0C5.83057 0 7.52917 1.68101 7.52917 3.7453C7.52917 5.83248 5.8617 7.59916 3.7375 7.59916C1.6571 7.59916 0 5.82176 0 3.7453ZM3.7375 1.73695C2.64531 1.73695 1.73333 2.65084 1.73333 3.7453C1.73333 4.92563 2.67624 5.86221 3.7375 5.86221C4.8633 5.86221 5.79583 4.91491 5.79583 3.7453C5.79583 2.66137 4.89443 1.73695 3.7375 1.73695ZM15.1125 8.93637C16.1014 8.19081 17.4309 7.65344 19.0667 7.65344C21.8264 7.65344 23.6612 8.58389 24.7403 10.2807C25.763 11.8889 26 14.0354 26 16.2296V25.1315C26 25.6112 25.612 26 25.1333 26H20.0958C19.6172 26 19.2292 25.6112 19.2292 25.1315V17.261C19.2292 16.2751 19.2043 15.381 18.9409 14.7315C18.8195 14.4323 18.6626 14.2284 18.4646 14.093C18.2673 13.958 17.9567 13.8413 17.4417 13.8413C16.9025 13.8413 16.5427 13.9451 16.2973 14.0805C16.0577 14.2128 15.8778 14.4021 15.7369 14.6594C15.4316 15.217 15.3292 16.0511 15.3292 17.0981V25.1315C15.3292 25.6112 14.9411 26 14.4625 26H9.425C8.94635 26 8.55833 25.6112 8.55833 25.1315V8.90188C8.55833 8.42223 8.94635 8.0334 9.425 8.0334H14.2458C14.7245 8.0334 15.1125 8.42223 15.1125 8.90188V8.93637ZM13.3792 9.77035H10.2917V24.263H13.5958V17.0981C13.5958 16.0282 13.683 14.7997 14.2173 13.8239C14.4962 13.3145 14.8986 12.8695 15.4613 12.559C16.0183 12.2516 16.6809 12.1044 17.4417 12.1044C18.2267 12.1044 18.8978 12.2862 19.4419 12.6584C19.9853 13.0302 20.3295 13.5422 20.5466 14.0774C20.9602 15.0971 20.9625 16.347 20.9625 17.261V24.263H24.2667V16.2296C24.2667 14.0815 24.0162 12.3742 23.2785 11.2141C22.5971 10.1426 21.3986 9.3904 19.0667 9.3904C16.9754 9.3904 15.6223 10.548 15.0545 11.5547C14.9007 11.8273 14.6125 11.9958 14.3 11.9958H14.2458C13.7672 11.9958 13.3792 11.607 13.3792 11.1273V9.77035ZM0.379167 8.90188C0.379167 8.42223 0.767187 8.0334 1.24583 8.0334H6.28333C6.76198 8.0334 7.15 8.42223 7.15 8.90188V25.1315C7.15 25.6112 6.76198 26 6.28333 26H1.24583C0.767187 26 0.379167 25.6112 0.379167 25.1315V8.90188ZM2.1125 9.77035V24.263H5.41667V9.77035H2.1125Z" fill="#262626"/>
</svg>
