<svg width="227" height="40" viewBox="0 0 227 40" fill="none" xmlns="http://www.w3.org/2000/svg">
<g clip-path="url(#clip0_2648_1265)">
<path d="M0 13.2769H6.25793L11.2474 29.5136H11.3319L16.0677 13.2769H22.3256L27.315 29.5136H27.3996L32.2199 13.2769H38.055L30.1903 36.4481H24.5243L19.0275 20.6341H18.9429L14.0381 36.4481H8.03383L0 13.2769Z" fill="white"/>
<path d="M75.3489 13.277H80.8457V16.998H80.9303C81.4377 15.814 82.2833 14.7992 83.4673 13.9536C84.5666 13.1079 86.0888 12.6851 88.0339 12.6851C89.5561 12.6851 90.9091 12.9388 92.0085 13.4462C93.1079 13.9536 93.9535 14.6301 94.6301 15.4758C95.3066 16.3214 95.814 17.2517 96.0677 18.351C96.3214 19.4504 96.4905 20.5498 96.4905 21.8182V36.4483H90.74V24.7781C90.74 24.1015 90.74 23.425 90.6554 22.6639C90.5709 21.9028 90.4017 21.1417 90.148 20.4652C89.8943 19.7887 89.4715 19.1967 88.8795 18.6893C88.2876 18.1819 87.5265 18.0128 86.5117 18.0128C85.5814 18.0128 84.7358 18.1819 84.0592 18.5202C83.3827 18.8584 82.8753 19.2813 82.4525 19.7887C82.0296 20.2961 81.6914 20.9726 81.5222 21.6491C81.3531 22.3257 81.2685 23.0868 81.2685 23.8478V36.5328H75.518V13.277H75.3489Z" fill="white"/>
<path d="M120.254 32.981C119.408 34.4186 118.309 35.4334 116.871 36.1099C115.433 36.7865 113.911 37.0402 112.304 37.0402C110.529 37.0402 108.922 36.7019 107.484 36.1099C106.046 35.518 104.863 34.5877 103.848 33.4884C102.833 32.389 102.072 31.1205 101.564 29.5983C101.057 28.1607 100.803 26.5539 100.803 24.8626C100.803 23.1712 101.057 21.5645 101.649 20.0423C102.156 18.6047 103.002 17.2516 103.932 16.1522C104.947 15.0529 106.131 14.2072 107.484 13.5307C108.837 12.9387 110.359 12.6004 112.051 12.6004C113.15 12.6004 114.08 12.685 114.926 12.9387C115.772 13.1924 116.533 13.4461 117.125 13.7844C117.801 14.1226 118.309 14.5455 118.731 14.8837C119.154 15.3066 119.577 15.6448 119.831 16.0677H120V0H125.75V36.4482H120.254V32.981ZM106.638 24.8626C106.638 25.7928 106.808 26.6385 107.061 27.4841C107.4 28.3298 107.822 29.0909 108.414 29.6829C109.006 30.3594 109.683 30.8668 110.529 31.2051C111.374 31.6279 112.304 31.797 113.404 31.797C114.503 31.797 115.433 31.6279 116.279 31.2051C117.125 30.7822 117.801 30.2748 118.393 29.6829C118.985 29.0063 119.408 28.3298 119.746 27.4841C120.085 26.6385 120.169 25.7928 120.169 24.8626C120.169 23.9323 120 23.0867 119.746 22.241C119.408 21.3953 118.985 20.6343 118.393 20.0423C117.801 19.4503 117.04 18.8584 116.279 18.5201C115.433 18.0973 114.503 17.9281 113.404 17.9281C112.304 17.9281 111.374 18.0973 110.529 18.5201C109.683 18.9429 109.006 19.4503 108.414 20.0423C107.822 20.7188 107.4 21.3953 107.061 22.241C106.723 23.1712 106.638 24.0169 106.638 24.8626Z" fill="white"/>
<path d="M132.262 13.3614L138.013 13.2769V16.9132H138.097C138.689 15.5602 139.62 14.5454 140.803 13.7843C141.987 13.0232 143.34 12.6849 144.863 12.6003C145.201 12.6003 145.539 12.6003 145.877 12.6849C146.216 12.7695 146.554 12.854 146.892 12.9386L147.146 18.6046C146.639 18.52 146.216 18.3509 145.708 18.2663C145.201 18.1817 144.778 18.1817 144.355 18.1817C143.002 18.1817 141.903 18.4354 141.142 18.9428C140.296 19.4502 139.704 20.0422 139.281 20.6342C138.858 21.3107 138.605 21.9027 138.436 22.5792C138.266 23.2557 138.266 23.6786 138.266 24.0168L138.351 36.4481L132.6 36.5327L132.262 13.3614Z" fill="white"/>
<path d="M151.29 0H157.04V36.4482H151.29V0Z" fill="#777777"/>
<path d="M163.044 5.4123C163.044 4.48207 163.383 3.6364 164.059 2.95987C164.736 2.28333 165.666 1.94507 166.681 1.94507C167.78 1.94507 168.626 2.28333 169.387 2.95987C170.148 3.6364 170.486 4.48207 170.486 5.4123C170.486 6.34253 170.148 7.27276 169.387 7.86473C168.626 8.54126 167.78 8.87953 166.681 8.87953C165.581 8.87953 164.736 8.54126 164.059 7.86473C163.383 7.1882 163.044 6.4271 163.044 5.4123ZM163.806 13.277H169.556V36.4482H163.806V13.277Z" fill="#777777"/>
<path d="M176.321 13.277H181.818V16.998H181.903C182.41 15.814 183.256 14.7992 184.44 13.9536C185.539 13.1079 187.061 12.6851 189.006 12.6851C190.529 12.6851 191.882 12.9388 192.981 13.4462C194.08 13.9536 194.926 14.6301 195.603 15.4758C196.279 16.3214 196.787 17.2517 197.04 18.351C197.294 19.4504 197.463 20.5498 197.463 21.8182V36.4483H191.713V24.7781C191.713 24.1015 191.713 23.425 191.628 22.6639C191.543 21.9028 191.374 21.1417 191.121 20.4652C190.867 19.7887 190.444 19.1967 189.852 18.6893C189.26 18.1819 188.499 18.0128 187.484 18.0128C186.554 18.0128 185.708 18.1819 185.032 18.5202C184.355 18.8584 183.848 19.2813 183.425 19.7887C183.002 20.2961 182.664 20.9726 182.495 21.6491C182.326 22.3257 182.241 23.0868 182.241 23.8478V36.5328H176.491V13.277H176.321Z" fill="#777777"/>
<path d="M203.975 0H209.725V22.9175L218.689 13.277H226.131L216.152 23.7632L226.723 36.4482H219.027L209.81 24.6089H209.725V36.4482H203.975V0Z" fill="#777777"/>
<path d="M48.9641 18.7737C49.0487 18.0972 49.1332 17.4206 49.2178 16.8287C49.5561 15.3065 49.8943 13.6997 50.4863 12.2621C50.9091 11.1627 51.4165 10.1479 52.1776 9.21768C52.7696 8.45658 53.4461 7.78004 54.3764 7.35721C55.814 6.76525 57.1671 7.10351 58.351 7.94918C59.2812 8.71028 59.9578 9.72508 60.5497 10.7399C60.9726 11.501 61.3108 12.3466 61.6491 13.1923C61.7337 13.446 61.7337 13.446 61.9874 13.3614C63.2559 13.1077 64.6089 12.9386 65.962 13.0232C66.9768 13.1077 67.907 13.2769 68.7527 13.7843C70.1058 14.5454 70.7823 15.7293 70.6977 17.3361C70.6132 18.6046 70.1903 19.6194 69.5984 20.7187C68.5836 22.4101 67.3151 23.8477 65.8774 25.1162C65.2009 25.7082 64.5244 26.3001 63.8478 26.8075C63.7633 26.8921 63.6787 26.8921 63.5941 26.9767C63.5941 26.723 63.6787 26.3847 63.6787 26.131C63.7633 25.4545 63.8478 24.7779 63.9324 24.186C63.9324 24.1014 64.017 24.0168 64.1015 23.9323C64.9472 23.1712 65.7929 22.3255 66.4694 21.4798C67.2305 20.5496 67.9916 19.5348 68.4144 18.4354C68.5836 17.928 68.6681 17.3361 68.5836 16.8287C68.499 16.2367 68.1607 15.8139 67.5688 15.5602C67.0614 15.3065 66.554 15.2219 65.962 15.1373C64.7781 15.0528 63.5941 15.1373 62.4102 15.391C62.2411 15.391 62.3256 15.4756 62.3256 15.5602C62.4948 16.2367 62.5793 16.9978 62.7485 17.6743C62.9176 18.9428 63.0867 20.2113 63.0867 21.3953C63.1713 22.7483 63.1713 24.0168 63.0867 25.3699C63.0022 27.0612 62.833 28.668 62.4948 30.2748C62.4948 30.4439 62.4102 30.4439 62.2411 30.4439C61.6491 30.4439 61.0571 30.3593 60.4652 30.3593C60.296 30.3593 60.3806 30.2748 60.3806 30.1902C60.4652 29.6828 60.5497 29.26 60.6343 28.7526C60.888 27.3149 60.9726 25.8773 60.9726 24.4397C60.9726 23.1712 60.9726 21.9027 60.888 20.5496C60.7189 18.8583 60.5497 17.0824 60.1269 15.4756C59.7886 14.038 59.2812 12.6003 58.6047 11.3318C58.1819 10.5707 57.759 9.89421 57.0825 9.38681C56.3214 8.79484 55.4757 8.79484 54.7146 9.38681C54.0381 9.89421 53.5307 10.5707 53.1924 11.3318C52.4313 12.7695 51.9239 14.2917 51.5857 15.8984C51.5011 16.3213 51.332 16.6595 50.9091 16.9978C50.2326 17.6743 49.6406 18.2663 48.9641 18.7737Z" fill="#777777"/>
<path d="M55.1374 31.8815C54.8837 32.0506 54.63 32.1351 54.3763 32.2197C52.9387 32.7271 51.4165 33.2345 49.8943 33.5728C48.203 33.9111 46.4271 34.0802 44.7358 33.7419C43.721 33.5728 42.7907 33.15 42.1142 32.3888C41.3531 31.6278 41.0994 30.6975 41.0994 29.6827C41.0994 28.4142 41.6068 27.2303 42.1988 26.1309C42.7062 25.2007 43.3827 24.4396 44.0592 23.5939C44.1438 23.4248 44.1438 23.4248 44.0592 23.2557C43.0444 22.1563 42.1988 20.8878 41.6068 19.5347C41.184 18.5199 41.0148 17.5051 41.0994 16.4903C41.2685 15.391 41.8605 14.4607 42.7907 13.9533C43.8055 13.2768 45.074 13.1077 46.258 13.1077C47.2728 13.1077 48.3721 13.1922 49.3869 13.3614C49.4715 13.3614 49.556 13.4459 49.4715 13.5305C49.2178 14.0379 48.9641 14.5453 48.7104 15.0527C48.6258 15.2218 48.5413 15.3064 48.3721 15.2218C47.9493 15.2218 47.5265 15.1373 47.1036 15.1373C46.1734 15.0527 45.2432 15.1373 44.3129 15.4755C43.721 15.7292 43.2136 16.1521 43.129 16.8286C43.0444 17.4206 43.129 17.928 43.3827 18.5199C43.8901 19.7884 44.6512 20.8878 45.5814 21.9026C45.666 21.9872 45.7506 21.9026 45.7506 21.9026C46.9345 20.8032 48.203 19.7884 49.556 18.8582C52.093 17.1669 54.7992 15.6447 57.6744 14.5453C58.0127 14.3762 58.4355 14.2916 58.7738 14.1225C58.8584 14.1225 58.9429 14.1225 58.9429 14.207C59.0275 14.799 59.1121 15.3064 59.1966 15.8984C59.1966 16.0675 59.1121 16.1521 59.0275 16.1521C58.7738 16.2366 58.5201 16.3212 58.2664 16.4903C55.814 17.4206 53.5307 18.6045 51.3319 20.0421C49.3024 21.3952 47.4419 22.8328 45.7506 24.6087C44.7358 25.7081 43.8901 26.892 43.2981 28.2451C43.0444 28.8371 42.9599 29.429 43.0444 30.1056C43.129 30.613 43.4673 31.0358 43.9747 31.2895C44.5666 31.5432 45.1586 31.7123 45.7506 31.7123C47.611 31.7969 49.4715 31.4586 51.2474 30.9512C51.3319 30.9512 51.5011 30.8667 51.5856 30.8667C52.0085 30.613 52.4313 30.6975 52.8541 30.8667C53.4461 31.1204 54.1226 31.3741 54.7992 31.6278C54.9683 31.7969 55.0529 31.8815 55.1374 31.8815Z" fill="#777777"/>
<path d="M65.0318 33.9958C64.017 33.9112 62.9176 33.9112 61.8182 33.6575C61.6491 33.6575 61.6491 33.7421 61.5645 33.8266C61.3954 34.2495 61.2263 34.6723 61.0571 35.0951C60.5497 36.2791 59.9578 37.3784 59.1121 38.3087C58.6047 38.9006 58.0127 39.408 57.2516 39.7463C56.0677 40.2537 54.9683 40.1691 53.869 39.4926C52.8542 38.9006 52.0931 37.9704 51.5011 36.9556C51.0783 36.2791 50.74 35.518 50.4863 34.6723C50.4017 34.5032 50.4017 34.4186 50.5709 34.4186C51.0783 34.1649 51.5857 33.9958 52.0931 33.7421C52.2622 33.6575 52.2622 33.7421 52.3468 33.8266C52.685 34.5877 53.0233 35.3488 53.4461 36.0254C53.7844 36.6173 54.2918 37.2093 54.8838 37.6321C55.3912 38.055 56.3214 38.055 56.9134 37.7167C57.5053 37.2939 57.9282 36.7865 58.351 36.1945C58.943 35.2643 59.3658 34.334 59.7041 33.3192C59.7886 33.1501 59.7041 33.0655 59.5349 32.981C58.351 32.5581 57.1671 32.1353 55.9831 31.6279C53.869 30.6977 51.8394 29.5983 49.8943 28.2452C48.7104 27.4841 47.611 26.6385 46.5117 25.7082C46.4271 25.6237 46.258 25.4545 46.1734 25.37C46.0888 25.2854 46.0888 25.2854 46.1734 25.2008C46.6808 24.9471 47.1882 24.6089 47.6956 24.3552C47.7802 24.2706 47.8647 24.2706 48.0339 24.3552C48.6258 24.8626 49.2178 25.2854 49.8943 25.7928C51.332 26.8922 52.8542 27.8224 54.4609 28.6681C56.2368 29.5983 58.0127 30.3594 59.8732 30.9514C61.2263 31.3742 62.6639 31.7125 64.1015 31.8816C65.1163 31.9662 66.0466 31.9662 66.9768 31.7125C67.2305 31.6279 67.4842 31.5433 67.7379 31.4588C68.4144 31.0359 68.7527 30.3594 68.5836 29.5137C68.4144 28.4989 67.907 27.6533 67.3996 26.8076C67.1459 26.3848 66.8077 25.9619 66.4694 25.5391C66.3848 25.37 66.3848 25.37 66.554 25.2854C67.0614 24.9471 67.4842 24.6934 67.9916 24.4397C68.0762 24.4397 68.1607 24.3552 68.1607 24.4397C69.1755 25.7082 70.1058 27.1459 70.5286 28.7526C70.6977 29.4292 70.6977 30.1903 70.6132 30.8668C70.444 31.8816 69.7675 32.5581 69.0064 33.1501C68.2453 33.6575 67.4842 33.9112 66.554 33.9958C66.0466 33.9112 65.5392 33.9958 65.0318 33.9958Z" fill="#777777"/>
<path d="M55.8985 26.6384C54.2072 26.6384 52.8541 25.2854 52.8541 23.5941C52.8541 21.5645 54.5455 20.4651 55.814 20.4651C57.5899 20.4651 58.9429 21.8182 58.9429 23.5095C58.9429 25.2854 57.5899 26.6384 55.8985 26.6384Z" fill="white"/>
</g>
<defs>
<clipPath id="clip0_2648_1265">
<rect width="226.808" height="40" fill="white"/>
</clipPath>
</defs>
</svg>
