<svg width="90" height="100" viewBox="0 0 90 100" fill="none" xmlns="http://www.w3.org/2000/svg">
<path d="M23.8887 35.484C24.1448 33.4347 24.401 31.3854 24.6572 29.5923C25.6818 24.9814 26.7064 20.1143 28.4996 15.7596C29.7804 12.4295 31.3173 9.35561 33.6228 6.53785C35.4159 4.23241 37.4652 2.18312 40.2829 0.902323C44.6377 -0.890798 48.7362 0.133842 52.3225 2.69545C55.1402 5.00089 57.1895 8.07481 58.9826 11.1487C60.2634 13.4542 61.2881 16.0158 62.3127 18.5774C62.5689 19.3459 62.5689 19.3459 63.3374 19.0897C67.1798 18.3212 71.2783 17.8089 75.3769 18.0651C78.4508 18.3212 81.2686 18.8335 83.8302 20.3705C87.9287 22.6759 89.978 26.2622 89.7218 31.1292C89.4657 34.9716 88.1849 38.0456 86.3918 41.3756C83.3179 46.4989 79.4754 50.8536 75.1207 54.696C73.0714 56.4891 71.0222 58.2822 68.9729 59.8192C68.7167 60.0754 68.4605 60.0753 68.2044 60.3315C68.2044 59.563 68.4606 58.5384 68.4606 57.7699C68.7167 55.7206 68.9729 53.6713 69.229 51.8782C69.229 51.6221 69.4852 51.3659 69.7414 51.1097C72.303 48.8043 74.8646 46.2427 76.9138 43.6811C79.2193 40.8633 81.5247 37.7894 82.8055 34.4593C83.3179 32.9224 83.574 31.1292 83.3178 29.5923C83.0617 27.7992 82.0371 26.5184 80.2439 25.7499C78.707 24.9814 77.17 24.7252 75.3769 24.4691C71.7906 24.2129 68.2044 24.4691 64.6182 25.2376C64.1058 25.2376 64.362 25.4937 64.362 25.7499C64.8743 27.7992 65.1305 30.1046 65.6428 32.1539C66.1551 35.9963 66.6674 39.8387 66.6674 43.4249C66.9236 47.5235 66.9236 51.3659 66.6674 55.4645C66.4113 60.5877 65.899 65.4547 64.8743 70.3218C64.8743 70.8341 64.6181 70.8341 64.1058 70.8341C62.3127 70.8341 60.5196 70.5779 58.7265 70.5779C58.2141 70.5779 58.4703 70.3218 58.4703 70.0656C58.7265 68.5286 58.9826 67.2478 59.2388 65.7109C60.0073 61.3562 60.2634 57.0014 60.2634 52.6467C60.2634 48.8043 60.2634 44.9619 60.0073 40.8633C59.4949 35.7401 58.9826 30.3608 57.7018 25.4937C56.6772 21.139 55.1402 16.7843 53.0909 12.9419C51.8101 10.6364 50.5293 8.58713 48.4801 7.05017C46.1746 5.25705 43.613 5.25705 41.3076 7.05017C39.2583 8.58713 37.7213 10.6364 36.6967 12.9419C34.3912 17.2966 32.8543 21.9075 31.8296 26.7745C31.5735 28.0553 31.0612 29.08 29.7804 30.1046C27.7311 32.1539 25.938 33.947 23.8887 35.484Z" fill="#777777"/>
<path d="M42.5866 75.1884C41.8182 75.7007 41.0497 75.9569 40.2812 76.213C35.9265 77.75 31.3156 79.2869 26.7047 80.3116C21.5815 81.3362 16.2021 81.8486 11.0789 80.8239C8.00502 80.3116 5.18725 79.0308 3.13796 76.7253C0.832523 74.4199 0.0640396 71.6021 0.0640396 68.5282C0.0640396 64.6858 1.60101 61.0996 3.39413 57.7695C4.93109 54.9517 6.98037 52.6463 9.02965 50.0847C9.28581 49.5724 9.28581 49.5724 9.02965 49.06C5.95573 45.73 3.39413 41.8875 1.60101 37.789C0.320206 34.7151 -0.192121 31.6411 0.0640396 28.5672C0.57636 25.2371 2.36948 22.4194 5.18725 20.8824C8.26117 18.8331 12.1036 18.3208 15.6898 18.3208C18.7637 18.3208 22.0938 18.577 25.1678 19.0893C25.4239 19.0893 25.6801 19.3454 25.4239 19.6016C24.6554 21.1386 23.8869 22.6755 23.1185 24.2125C22.8623 24.7248 22.6061 24.981 22.0938 24.7248C20.813 24.7248 19.5322 24.4686 18.2514 24.4686C15.4337 24.2125 12.6159 24.4686 9.79814 25.4933C8.00502 26.2618 6.46805 27.5426 6.21189 29.5919C5.95573 31.385 6.21189 32.9219 6.98037 34.7151C8.51733 38.5575 10.8228 41.8875 13.6405 44.9615C13.8967 45.2176 14.1529 44.9615 14.1529 44.9615C17.7391 41.6314 21.5815 38.5575 25.6801 35.7397C33.3649 30.6165 41.562 26.0056 50.2715 22.6755C51.2961 22.1632 52.5769 21.907 53.6015 21.3947C53.8577 21.3947 54.1139 21.3947 54.1139 21.6509C54.37 23.444 54.6262 24.981 54.8823 26.7741C54.8823 27.2864 54.6262 27.5426 54.37 27.5426C53.6016 27.7987 52.8331 28.0549 52.0646 28.5672C44.6359 31.385 37.7196 34.9712 31.0594 39.3259C24.9116 43.4245 19.2761 47.7792 14.1529 53.1586C11.0789 56.4887 8.51733 60.0749 6.72421 64.1735C5.95573 65.9666 5.69957 67.7597 5.95573 69.809C6.21189 71.346 7.23653 72.6268 8.77349 73.3953C10.5666 74.1637 12.3597 74.6761 14.1529 74.6761C19.7884 74.9322 25.4239 73.9076 30.8033 72.3706C31.0594 72.3706 31.5718 72.1145 31.8279 72.1145C33.1087 71.346 34.3895 71.6021 35.6703 72.1145C37.4634 72.8829 39.5127 73.6514 41.562 74.4199C42.0743 74.9322 42.3305 75.1884 42.5866 75.1884Z" fill="#777777"/>
<path d="M72.5541 81.5931C69.4802 81.337 66.1501 81.337 62.8201 80.5685C62.3077 80.5685 62.3077 80.8246 62.0516 81.0808C61.5393 82.3616 61.0269 83.6424 60.5146 84.9232C58.9776 88.5095 57.1845 91.8395 54.6229 94.6573C53.086 96.4504 51.2928 97.9874 48.9874 99.012C45.4011 100.549 42.0711 100.293 38.741 98.2435C35.6671 96.4504 33.3616 93.6327 31.5685 90.5587C30.2877 88.5095 29.2631 86.204 28.4946 83.6424C28.2384 83.1301 28.2384 82.8739 28.7507 82.8739C30.2877 82.1054 31.8247 81.5931 33.3616 80.8246C33.8739 80.5685 33.8739 80.8246 34.1301 81.0808C35.1547 83.3862 36.1794 85.6917 37.4602 87.741C38.4848 89.5341 40.0218 91.3272 41.8149 92.608C43.3519 93.8888 46.1696 93.8888 47.9628 92.8642C49.7559 91.5834 51.0367 90.0464 52.3175 88.2533C54.1106 85.4355 55.3914 82.6178 56.416 79.5438C56.6722 79.0315 56.416 78.7754 55.9037 78.5192C52.3175 77.2384 48.7312 75.9576 45.145 74.4206C38.741 71.6029 32.5931 68.2728 26.7015 64.1742C23.1152 61.8688 19.7851 59.3072 16.455 56.4894C16.1989 56.2333 15.6866 55.7209 15.4304 55.4648C15.1742 55.2086 15.1742 55.2086 15.4304 54.9525C16.9674 54.184 18.5043 53.1593 20.0413 52.3909C20.2975 52.1347 20.5536 52.1347 21.0659 52.3909C22.8591 53.9278 24.6522 55.2086 26.7015 56.7456C31.0562 60.0757 35.6671 62.8934 40.5341 65.455C45.9135 68.2728 51.2929 70.5782 56.9284 72.3714C61.0269 73.6522 65.3817 74.6768 69.7364 75.1891C72.8103 75.4453 75.6281 75.4453 78.4458 74.6768C79.2143 74.4206 79.9828 74.1645 80.7513 73.9083C82.8006 72.6275 83.8252 70.5782 83.3129 68.0166C82.8006 64.9427 81.2636 62.3811 79.7266 59.8195C78.9581 58.5387 77.9335 57.2579 76.9089 55.9771C76.6527 55.4648 76.6527 55.4648 77.165 55.2086C78.702 54.184 79.9828 53.4155 81.5198 52.647C81.7759 52.647 82.0321 52.3909 82.0321 52.647C85.106 56.4894 87.9238 60.8441 89.2046 65.7112C89.7169 67.7605 89.7169 70.0659 89.4607 72.1152C88.9484 75.1891 86.8991 77.2384 84.5937 79.0315C82.2882 80.5685 79.9828 81.337 77.165 81.5931C75.6281 81.337 74.0911 81.5931 72.5541 81.5931Z" fill="#777777"/>
<path d="M44.8897 59.3069C39.7665 59.3069 35.668 55.2083 35.668 50.0851C35.668 43.9373 40.7912 40.6072 44.6336 40.6072C50.0129 40.6072 54.1115 44.7057 54.1115 49.8289C54.1115 55.2083 50.0129 59.3069 44.8897 59.3069Z" fill="#262626"/>
</svg>
