<svg xmlns="http://www.w3.org/2000/svg" viewBox="0 0 29.251 32.647"><defs><style>.cls-1{fill:#262626;}.cls-2{fill:none;stroke:#777778;stroke-miterlimit:10;stroke-width:2px;}</style></defs><title>Asset 18</title><g id="Layer_2" data-name="Layer 2"><g id="NEW">
<path class="cls-1" d="M14.566,19.387a3.009,3.009,0,0,1-3-3,3.088,3.088,0,0,1,3-3.1,3.032,3.032,0,0,1,3.1,3A3.116,3.116,0,0,1,14.566,19.387Z"/>
<path id="line2" class="cls-2" d="M19.927,24.1c-1.069,4.52-3.043,7.552-5.3,7.552-1.788,0-3.4-1.9-4.523-4.94"/><path id="line3" class="cls-2" d="M9.047,9.86C10.026,4.627,12.156,1,14.625,1c3.4,0,6.151,6.861,6.151,15.324a35.1,35.1,0,0,1-.641,6.814"/>
<path id="line4" class="cls-2" d="M5.258,17.042c-3.389-3.19-5.034-6.422-3.9-8.38.9-1.557,3.37-2,6.584-1.439"/>
<path id="line5" class="cls-2" d="M25.866,17.582c2.078,2.5,2.926,4.851,2.03,6.4-1.7,2.941-9.017,1.895-16.346-2.336a35.039,35.039,0,0,1-5.708-4.073"/>
<path id="line6" class="cls-2" d="M11.85,24.374c-5.036,1.781-9.258,1.755-10.495-.388C-.344,21.044,4.221,15.229,11.55,11a35.064,35.064,0,0,1,6.323-2.886"/>
<path id="line7" class="cls-2" d="M18.717,7.843c4.443-1.33,8.051-1.135,9.179.819,1.221,2.114-.8,5.714-4.747,9.143"/></g></g></svg>