<svg width="338" height="48" viewBox="0 0 338 48" fill="none" xmlns="http://www.w3.org/2000/svg">
<g clip-path="url(#clip0_1615_980)">
<path d="M159.423 40.914V43.6989H163.427V44.6793H159.423V47.9087H158.282V39.922H163.921V40.914H159.423Z" fill="#152032"/>
<path d="M167.666 39.922H168.809V47.9087H167.666V39.922Z" fill="#152032"/>
<path d="M180.039 43.8698H181.134V46.9848C180.725 47.3189 180.257 47.5742 179.754 47.7379C179.224 47.9129 178.669 48.0014 178.11 48C177.354 48.0107 176.606 47.8299 175.938 47.4743C175.307 47.1326 174.779 46.6287 174.407 46.0146C174.048 45.373 173.86 44.65 173.86 43.9147C173.86 43.1794 174.048 42.4564 174.407 41.8148C174.775 41.197 175.304 40.6916 175.938 40.3536C176.617 39.9982 177.373 39.818 178.139 39.8294C178.734 39.8204 179.325 39.9287 179.877 40.148C180.387 40.3435 180.844 40.6566 181.211 41.0618L180.504 41.7685C180.199 41.4681 179.837 41.2316 179.439 41.073C179.041 40.9143 178.615 40.8367 178.187 40.8445C177.614 40.8356 177.048 40.9732 176.544 41.2442C176.071 41.4952 175.68 41.8748 175.414 42.3391C175.136 42.8167 174.994 43.3609 175.003 43.9132C174.996 44.4658 175.138 45.01 175.414 45.4889C175.685 45.9492 176.075 46.3276 176.544 46.5837C177.045 46.8539 177.606 46.9915 178.176 46.9834C178.836 46.9979 179.486 46.8192 180.047 46.4693L180.039 43.8698Z" fill="#152032"/>
<path d="M194.035 39.922V47.9087H192.895V44.3491H188.307V47.9087H187.167V39.922H188.307V43.3556H192.895V39.922H194.035Z" fill="#152032"/>
<path d="M201.006 40.914H198.269V39.922H204.874V40.914H202.137V47.9087H201.006V40.914Z" fill="#152032"/>
<path d="M209.829 39.922H210.97V47.9087H209.829V39.922Z" fill="#152032"/>
<path d="M223.362 39.922V47.9087H222.428L217.636 41.9523V47.9087H216.49V39.922H217.427L222.219 45.8769V39.922H223.362Z" fill="#152032"/>
<path d="M234.889 43.8698H235.986V46.9849C235.575 47.3189 235.107 47.5742 234.604 47.7379C234.074 47.9131 233.52 48.0016 232.962 48.0001C232.205 48.0107 231.458 47.8299 230.79 47.4744C230.159 47.1322 229.631 46.6284 229.26 46.0146C228.901 45.373 228.712 44.65 228.712 43.9147C228.712 43.1794 228.901 42.4564 229.26 41.8149C229.627 41.1974 230.156 40.6921 230.79 40.3536C231.468 39.9984 232.225 39.8182 232.991 39.8294C233.585 39.8201 234.176 39.9284 234.729 40.148C235.239 40.3433 235.697 40.6564 236.064 41.0618L235.356 41.7685C235.051 41.4678 234.688 41.2312 234.29 41.0725C233.892 40.9139 233.467 40.8364 233.039 40.8446C232.466 40.8358 231.9 40.9734 231.395 41.2443C230.923 41.4953 230.532 41.8749 230.267 42.3391C229.989 42.8167 229.847 43.3609 229.855 43.9133C229.849 44.4658 229.991 45.01 230.267 45.4889C230.537 45.9492 230.927 46.3276 231.395 46.5837C231.896 46.8538 232.458 46.9914 233.027 46.9834C233.687 46.9984 234.338 46.8196 234.898 46.4693L234.889 43.8698Z" fill="#152032"/>
<path d="M249.447 40.914H246.708V39.922H253.313V40.914H250.576V47.9087H249.447V40.914Z" fill="#152032"/>
<path d="M260.64 48C259.883 48.0101 259.136 47.8293 258.467 47.4743C257.835 47.1307 257.307 46.6223 256.94 46.003C256.581 45.3655 256.392 44.6463 256.392 43.9147C256.392 43.1831 256.581 42.4639 256.94 41.8264C257.306 41.2094 257.834 40.7046 258.467 40.3667C259.138 40.0155 259.883 39.832 260.64 39.832C261.396 39.832 262.142 40.0155 262.812 40.3667C263.443 40.7029 263.968 41.2084 264.328 41.8264C264.698 42.4596 264.887 43.1817 264.876 43.9147C264.886 44.6512 264.697 45.3768 264.328 46.0146C263.965 46.6296 263.44 47.1342 262.812 47.4743C262.144 47.8302 261.397 48.0111 260.64 48ZM260.64 46.9863C261.191 46.9952 261.735 46.8573 262.215 46.5866C262.677 46.3294 263.06 45.9508 263.322 45.4918C263.597 45.0127 263.739 44.4686 263.732 43.9161C263.74 43.3677 263.598 42.8274 263.322 42.3536C263.063 41.8891 262.68 41.5059 262.215 41.2471C261.735 40.9765 261.191 40.8385 260.64 40.8474C260.083 40.8413 259.534 40.979 259.047 41.2471C258.58 41.5076 258.194 41.8901 257.929 42.3536C257.659 42.8298 257.522 43.3692 257.53 43.9161C257.523 44.4671 257.66 45.0104 257.929 45.4918C258.197 45.9497 258.583 46.3276 259.047 46.5866C259.535 46.8542 260.083 46.9929 260.64 46.9863Z" fill="#152032"/>
<path d="M275.886 43.8698H276.982V46.9848C276.572 47.3189 276.104 47.5742 275.601 47.7379C275.071 47.913 274.516 48.0015 273.958 48C273.202 48.0102 272.454 47.8294 271.786 47.4743C271.156 47.1322 270.628 46.6283 270.257 46.0145C269.898 45.373 269.709 44.65 269.709 43.9147C269.709 43.1794 269.898 42.4564 270.257 41.8148C270.624 41.1973 271.153 40.692 271.786 40.3536C272.463 39.9976 273.218 39.816 273.983 39.825C274.578 39.8157 275.168 39.924 275.721 40.1436C276.231 40.3393 276.689 40.6524 277.056 41.0574L276.348 41.7641C276.043 41.4636 275.68 41.227 275.283 41.0684C274.885 40.9097 274.459 40.8321 274.031 40.8402C273.458 40.8314 272.893 40.969 272.389 41.2399C271.916 41.4908 271.524 41.8704 271.258 42.3347C270.98 42.8125 270.839 43.3567 270.848 43.9089C270.841 44.4613 270.982 45.0055 271.258 45.4845C271.529 45.945 271.92 46.3233 272.389 46.5793C272.889 46.8496 273.45 46.9872 274.019 46.979C274.68 46.994 275.33 46.8152 275.89 46.4649L275.886 43.8698Z" fill="#152032"/>
<path d="M287.873 46.9211V47.9145H282.08V39.922H287.716V40.914H283.227V43.3672H287.233V44.3375H283.227V46.9211H287.873Z" fill="#152032"/>
<path d="M294.71 40.914H291.971V39.922H298.578V40.914H295.839V47.9087H294.71V40.914Z" fill="#152032"/>
<path d="M310.727 39.922V47.9087H309.585V44.3491H304.999V47.9087H303.858V39.922H304.999V43.3556H309.585V39.922H310.727Z" fill="#152032"/>
<path d="M322.208 46.9211V47.9145H316.415V39.922H322.05V40.914H317.561V43.3672H321.566V44.3375H317.561V46.9211H322.208Z" fill="#152032"/>
<path d="M331.982 47.9088L330.26 45.4556C330.045 45.4701 329.879 45.4787 329.757 45.4787H327.783V47.9088H326.642V39.9221H329.757C330.633 39.8714 331.499 40.1342 332.199 40.6635C332.494 40.9125 332.728 41.2263 332.883 41.5804C333.037 41.9345 333.108 42.3195 333.089 42.7055C333.106 43.265 332.946 43.8155 332.633 44.2796C332.312 44.7269 331.855 45.059 331.33 45.2268L333.224 47.9088H331.982ZM329.724 44.5085C330.313 44.5482 330.897 44.3829 331.378 44.0407C331.57 43.8776 331.721 43.672 331.82 43.4403C331.919 43.2086 331.963 42.957 331.948 42.7055C331.964 42.4555 331.92 42.2054 331.821 41.9754C331.722 41.7454 331.57 41.5421 331.378 41.3818C330.897 41.0396 330.313 40.8743 329.724 40.9141H327.783V44.5085H329.724Z" fill="#152032"/>
<mask id="mask0_1615_980" style="mask-type:luminance" maskUnits="userSpaceOnUse" x="-1" y="0" width="49" height="48">
<path d="M47.7003 0H-0.0129395V47.7133H47.7003V0Z" fill="white"/>
</mask>
<g mask="url(#mask0_1615_980)">
<path d="M43.0921 32.6363C43.1428 30.6525 42.5814 28.7013 41.484 27.0479C40.3867 25.3945 38.8068 24.1192 36.9591 23.3954C35.1478 22.5012 33.1015 22.1983 31.1089 22.5293C29.1162 22.8603 27.2778 23.8086 25.853 25.2404C23.2459 27.8278 19.8314 29.4444 16.1777 29.821C14.1661 29.9888 12.1414 29.7472 10.2258 29.1107C8.31029 28.4742 6.54362 27.456 5.03255 26.1177C3.52147 24.7793 2.29734 23.1486 1.43409 21.324C0.570835 19.4993 0.0863772 17.5187 0.00997216 15.5016C-0.0664329 13.4845 0.2668 11.4728 0.989546 9.5881C1.71229 7.70339 2.80955 5.98472 4.21505 4.53591C5.62056 3.08709 7.30514 1.93819 9.16706 1.1586C11.029 0.379001 13.0296 -0.0151139 15.0481 5.5619e-05C18.7944 0.0424794 22.3901 1.481 25.1319 4.03425C27.8737 6.5875 29.5643 10.0718 29.8731 13.8056C29.889 14.0749 29.9368 14.5528 29.9368 14.5528C29.9368 14.5528 29.556 14.6484 29.2692 14.6977C28.0774 14.9352 25.4562 15.5405 25.4562 15.5405C25.3409 14.4594 25.1606 13.3863 24.916 12.327C24.3541 10.2644 23.1718 8.42433 21.5292 7.0561C19.8867 5.68786 17.8632 4.85757 15.7331 4.67768C14.0187 4.55146 12.3001 4.85706 10.7343 5.56653C9.1686 6.276 7.80572 7.36671 6.77034 8.73889C5.73496 10.1111 5.06012 11.7209 4.80755 13.4213C4.55498 15.1216 4.73274 16.8581 5.32456 18.472C5.91638 20.0859 6.90338 21.5257 8.1953 22.6596C9.48722 23.7936 11.0428 24.5855 12.7198 24.9631C14.3968 25.3406 16.1417 25.2917 17.795 24.8207C19.4482 24.3498 20.9569 23.4719 22.1833 22.2673C23.887 20.5421 25.9856 19.2582 28.2974 18.5269C30.6092 17.7955 33.0644 17.6388 35.4504 18.0702C37.8364 18.5016 40.0813 19.5081 41.9906 21.0027C43.8999 22.4972 45.4161 24.4347 46.4079 26.6473C47.3997 28.8598 47.8371 31.2808 47.6824 33.7006C47.5276 36.1203 46.7853 38.4659 45.5197 40.5341C44.2541 42.6023 42.5034 44.3308 40.4192 45.5699C38.3351 46.809 35.9803 47.5213 33.5587 47.6453C30.2239 47.9139 26.909 46.9269 24.2643 44.8778C22.4834 43.6757 20.9911 42.0937 19.8951 40.2456C18.799 38.3976 18.1264 36.3294 17.9256 34.1902C17.8937 33.7919 17.8141 33.0316 17.8141 33.0316C17.8141 33.0316 18.418 32.9361 18.8626 32.8723C19.9748 32.7145 22.2788 32.2207 22.2788 32.2207C22.4116 33.2476 22.5973 34.267 22.8349 35.2749C23.2231 37.0679 24.1063 38.7162 25.3842 40.0325C26.6621 41.3488 28.2835 42.2804 30.0643 42.7214C31.8451 43.2494 33.7362 43.281 35.5337 42.813C37.3312 42.3449 38.9667 41.3949 40.2638 40.0655C41.2568 39.1145 42.0257 37.9544 42.5149 36.6695C43.0041 35.3845 43.2012 34.0069 43.0921 32.6363Z" fill="#01C1B9"/>
</g>
<path d="M72.7321 11.9055C72.0211 10.9359 71.0739 10.1643 69.9806 9.66376C68.9126 9.17157 67.7504 8.91711 66.5745 8.91795C65.2721 8.90413 63.9839 9.18951 62.8092 9.7521C61.6795 10.2944 60.6692 11.0566 59.8375 11.9939C58.991 12.9523 58.3309 14.0603 57.8912 15.261C57.4279 16.4999 57.1925 17.8122 57.196 19.1349C57.1842 20.5044 57.4197 21.8648 57.8912 23.1507C58.3249 24.3395 58.9794 25.4357 59.8202 26.3816C60.6461 27.3 61.6515 28.0393 62.7744 28.5538C64.0125 29.0952 65.3513 29.3675 66.7024 29.3527C68.0535 29.338 69.3861 29.0366 70.612 28.4684C71.8175 27.8552 72.872 26.9822 73.6995 25.9124L75.8892 27.7559C74.857 29.1742 73.4736 30.2997 71.8748 31.0216C70.2015 31.7396 68.3951 32.095 66.5745 32.0642C64.8804 32.0775 63.2013 31.7464 61.6391 31.0911C60.1462 30.4682 58.7931 29.5528 57.6595 28.3989C56.5186 27.2249 55.6209 25.837 55.018 24.315C54.3665 22.6666 54.0418 20.9072 54.0622 19.1349C54.0495 17.4026 54.362 15.6833 54.9832 14.0662C55.8776 11.7283 57.4683 9.7213 59.5403 8.31673C61.6124 6.91216 64.0657 6.17773 66.5687 6.21274C68.2158 6.20877 69.8489 6.51534 71.3824 7.11641C72.9251 7.71939 74.2677 8.74291 75.2578 10.0707L72.7321 11.9055Z" fill="#01C1B9"/>
<path d="M79.1244 17.4767C79.9811 16.5949 81.0319 15.9255 82.1931 15.5217C83.3504 15.108 84.5701 14.8959 85.7991 14.8946C86.769 14.8026 87.7475 14.9114 88.6736 15.2141C89.5997 15.5168 90.4536 16.007 91.182 16.6541C92.395 18.1601 92.9857 20.0732 92.8329 22.0008V29.2142C92.8329 29.6921 92.857 30.1884 92.9053 30.703C92.9536 31.2175 93.0134 31.6901 93.0849 32.1207H90.3927C90.2926 31.7036 90.2387 31.2767 90.2319 30.8478C90.2184 30.3795 90.2122 29.9668 90.2131 29.6096H90.1422C89.583 30.4789 88.8269 31.2042 87.9351 31.7268C86.9246 32.2993 85.7769 32.5848 84.6159 32.5523C83.7972 32.5576 82.9818 32.4489 82.1931 32.2293C81.4819 32.0362 80.812 31.7147 80.2163 31.2808C79.6574 30.8669 79.1978 30.3335 78.871 29.7196C78.5257 29.0558 78.3529 28.3158 78.3684 27.5676C78.2997 26.3813 78.6849 25.2132 79.4459 24.3005C80.1779 23.5025 81.0965 22.8984 82.1192 22.5425C83.2304 22.1503 84.3891 21.9092 85.5645 21.8256C86.7964 21.7291 87.9269 21.6808 88.9561 21.6808H90.0335V21.1725C90.07 20.6594 89.9904 20.1446 89.8006 19.6665C89.6108 19.1884 89.3157 18.7592 88.9373 18.4108C88.0607 17.7403 86.9716 17.4086 85.87 17.4767C84.9602 17.4773 84.0568 17.629 83.1967 17.9256C82.3356 18.2177 81.5459 18.6885 80.8796 19.3072L79.1244 17.4767ZM87.2342 24.0442C85.7728 23.9811 84.3152 24.2381 82.9635 24.7973C82.4779 24.998 82.0657 25.3433 81.7831 25.7864C81.5004 26.2294 81.3609 26.7486 81.3836 27.2737C81.3432 27.7081 81.4202 28.1454 81.6064 28.5399C81.7926 28.9345 82.0812 29.2719 82.4422 29.5169C83.2404 29.9853 84.1559 30.216 85.0808 30.1816C85.8136 30.1975 86.5413 30.0568 87.2154 29.7689C87.7953 29.5157 88.315 29.1426 88.7403 28.6741C89.1538 28.2099 89.4712 27.6685 89.6744 27.0811C89.8927 26.4514 90.0138 25.7921 90.0335 25.126V24.0399L87.2342 24.0442Z" fill="#01C1B9"/>
<path d="M98.0594 19.3071C98.0594 18.5415 98.0357 17.8237 97.9884 17.1537C97.9411 16.4836 97.9175 15.8735 97.9175 15.3232H100.572C100.572 15.7793 100.584 16.2326 100.608 16.6874C100.633 17.1421 100.644 17.6084 100.644 18.0877H100.715C100.924 17.6545 101.196 17.2551 101.523 16.9031C101.887 16.5062 102.304 16.1617 102.762 15.8793C103.266 15.5694 103.809 15.3284 104.376 15.1624C105.006 14.9789 105.659 14.8887 106.314 14.8945C107.289 14.8708 108.26 15.0411 109.168 15.3956C109.93 15.7035 110.612 16.1821 111.16 16.7945C111.702 17.4247 112.1 18.1662 112.325 18.9668C112.585 19.8711 112.711 20.8081 112.702 21.7488V32.1192H109.904V22.034C109.969 20.8513 109.641 19.6801 108.971 18.7032C108.62 18.2822 108.172 17.9516 107.667 17.7392C107.161 17.5268 106.612 17.4387 106.065 17.4824C105.257 17.4622 104.454 17.6215 103.715 17.9487C103.072 18.2476 102.516 18.7051 102.1 19.2782C101.661 19.8937 101.343 20.5879 101.166 21.323C100.955 22.1801 100.853 23.0602 100.862 23.9427V32.125H98.0594V19.3071Z" fill="#01C1B9"/>
<path d="M129.599 19.5229C129.076 18.8634 128.412 18.3287 127.656 17.9574C126.935 17.6287 126.151 17.463 125.359 17.4723C124.508 17.456 123.663 17.6214 122.881 17.9574C122.192 18.2598 121.583 18.7207 121.106 19.3028C120.631 19.8938 120.271 20.5695 120.047 21.294C119.803 22.0782 119.682 22.8955 119.688 23.7169C119.682 24.5425 119.822 25.3627 120.101 26.1397C120.361 26.8671 120.75 27.5417 121.249 28.1309C121.737 28.7036 122.343 29.1632 123.026 29.4777C123.759 29.8087 124.555 29.9738 125.359 29.9614C126.188 29.9994 127.014 29.8289 127.76 29.4653C128.506 29.1017 129.149 28.5568 129.63 27.8804L131.711 29.8543C130.935 30.7602 129.95 31.4627 128.841 31.9005C126.575 32.7618 124.071 32.7618 121.805 31.9005C120.769 31.4961 119.832 30.871 119.061 30.0686C118.295 29.2614 117.697 28.3098 117.302 27.2692C116.872 26.1347 116.659 24.9298 116.673 23.7169C116.661 22.5158 116.874 21.3232 117.302 20.2007C117.699 19.1571 118.303 18.2048 119.078 17.4013C119.857 16.6032 120.791 15.9738 121.823 15.552C122.946 15.0993 124.148 14.8743 125.359 14.8902C126.567 14.8835 127.765 15.102 128.893 15.5346C130.01 15.9692 131.012 16.6573 131.818 17.5447L129.599 19.5229Z" fill="#01C1B9"/>
<path d="M150.363 29.0694C149.51 30.2378 148.374 31.1702 147.062 31.779C145.741 32.3169 144.324 32.5796 142.898 32.5508C141.678 32.5691 140.467 32.3308 139.344 31.8514C138.333 31.4138 137.423 30.773 136.671 29.9687C135.928 29.1579 135.355 28.2066 134.985 27.1708C134.585 26.0661 134.385 24.8991 134.393 23.7242C134.379 22.504 134.599 21.2925 135.039 20.1544C135.443 19.1076 136.056 18.1541 136.84 17.3522C137.616 16.5677 138.544 15.9506 139.567 15.539C140.663 15.1011 141.833 14.8822 143.013 14.8946C144.117 14.8819 145.214 15.0826 146.242 15.4855C147.203 15.8656 148.067 16.4542 148.773 17.2088C149.505 18.0054 150.061 18.9468 150.405 19.9719C150.807 21.1685 151.003 22.4245 150.985 23.6865V24.5829H137.407C137.453 25.2968 137.63 25.9962 137.928 26.6466C138.21 27.2845 138.602 27.8678 139.086 28.3699C139.569 28.8607 140.142 29.254 140.774 29.5285C141.441 29.8212 142.162 29.9693 142.891 29.9629C143.956 29.9969 145.014 29.7754 145.977 29.3171C146.857 28.8512 147.628 28.2029 148.238 27.4156L150.363 29.0694ZM147.958 22.2137C147.964 21.5757 147.844 20.9428 147.604 20.3517C147.363 19.7605 147.008 19.2229 146.559 18.7699C146.065 18.3225 145.487 17.9777 144.858 17.7557C144.23 17.5337 143.564 17.4388 142.898 17.4767C141.545 17.3893 140.211 17.8367 139.184 18.7226C138.157 19.6085 137.519 20.8621 137.407 22.2137H147.958Z" fill="#01C1B9"/>
<path d="M155.599 19.3071C155.599 18.5415 155.575 17.8237 155.528 17.1537C155.48 16.4836 155.456 15.8735 155.455 15.3232H158.111C158.111 15.7793 158.123 16.2326 158.147 16.6873C158.172 17.1421 158.182 17.6084 158.182 18.0877H158.255C158.463 17.6548 158.735 17.2556 159.061 16.9031C159.426 16.5065 159.843 16.162 160.301 15.8793C161.369 15.2234 162.6 14.8821 163.853 14.8945C164.047 14.8944 164.24 14.906 164.433 14.9292C164.631 14.9546 164.825 15.0032 165.012 15.0741L164.832 17.9096C164.343 17.7646 163.835 17.6919 163.325 17.6938C162.61 17.6328 161.891 17.7538 161.235 18.0455C160.58 18.3372 160.009 18.7902 159.575 19.3621C158.727 20.7319 158.319 22.3294 158.408 23.9384V32.1206H155.609L155.599 19.3071Z" fill="#01C1B9"/>
<path d="M186.947 11.9055C186.236 10.9363 185.289 10.1646 184.196 9.66376C183.127 9.17154 181.965 8.91708 180.788 8.91795C179.486 8.90413 178.198 9.18951 177.023 9.7521C175.894 10.2948 174.883 11.0569 174.051 11.9939C173.205 12.9526 172.545 14.0606 172.105 15.261C171.642 16.4999 171.407 17.8123 171.411 19.1349C171.399 20.5043 171.634 21.8647 172.105 23.1507C172.539 24.3399 173.194 25.4362 174.035 26.3816C174.861 27.3003 175.867 28.0397 176.99 28.5538C178.228 29.0951 179.566 29.3674 180.917 29.3527C182.268 29.338 183.6 29.0366 184.826 28.4684C186.034 27.8565 187.091 26.9834 187.919 25.9124L190.11 27.7559C189.078 29.1739 187.694 30.2993 186.096 31.0216C184.422 31.7394 182.615 32.0948 180.794 32.0642C179.1 32.0775 177.421 31.7464 175.859 31.0911C174.366 30.4678 173.013 29.5525 171.879 28.3989C170.738 27.2252 169.841 25.8372 169.239 24.315C168.587 22.6667 168.262 20.9073 168.282 19.1349C168.269 17.4024 168.582 15.683 169.204 14.0662C170.099 11.7283 171.689 9.7213 173.761 8.31673C175.833 6.91216 178.287 6.17773 180.79 6.21274C182.437 6.20877 184.07 6.51534 185.604 7.11641C187.146 7.71939 188.489 8.74291 189.479 10.0707L186.947 11.9055Z" fill="#01C1B9"/>
<path d="M192.749 23.7212C192.732 22.4917 192.964 21.2716 193.431 20.134C193.862 19.0918 194.497 18.146 195.298 17.3521C196.109 16.5605 197.073 15.9435 198.132 15.5389C200.448 14.6797 202.995 14.6797 205.31 15.5389C206.369 15.9438 207.333 16.5608 208.145 17.3521C208.946 18.1456 209.581 19.0915 210.011 20.134C210.478 21.2716 210.71 22.4917 210.693 23.7212C210.71 24.9516 210.478 26.1726 210.011 27.3112C209.58 28.3529 208.945 29.2982 208.145 30.0917C207.333 30.883 206.369 31.5 205.31 31.9049C202.995 32.766 200.447 32.766 198.132 31.9049C197.073 31.5003 196.109 30.8833 195.298 30.0917C194.497 29.2978 193.863 28.3527 193.431 27.3112C192.964 26.1726 192.732 24.9516 192.749 23.7212ZM195.764 23.7212C195.755 24.5597 195.895 25.3932 196.177 26.1831C196.438 26.9153 196.847 27.5861 197.377 28.154C197.908 28.7219 198.55 29.1749 199.263 29.4849C200.838 30.1298 202.604 30.1298 204.179 29.4849C204.892 29.1749 205.534 28.7219 206.065 28.154C206.596 27.5861 207.004 26.9153 207.265 26.1831C207.816 24.5904 207.816 22.8592 207.265 21.2665C207.006 20.5328 206.598 19.8604 206.067 19.2911C205.537 18.7218 204.895 18.2678 204.181 17.9574C202.606 17.3105 200.839 17.3105 199.264 17.9574C198.551 18.2668 197.909 18.7196 197.378 19.2876C196.847 19.8556 196.439 20.5267 196.178 21.2593C195.896 22.0491 195.756 22.8825 195.764 23.7212Z" fill="#01C1B9"/>
<path d="M214.731 19.3071C214.731 18.5415 214.707 17.8237 214.658 17.1537C214.61 16.4836 214.586 15.8735 214.587 15.3232H217.243C217.243 15.7793 217.255 16.2326 217.278 16.6874C217.301 17.1421 217.314 17.6084 217.314 18.0877H217.385C217.594 17.6548 217.867 17.2555 218.193 16.9031C218.557 16.5062 218.974 16.1617 219.432 15.8793C219.936 15.5694 220.479 15.3284 221.046 15.1624C221.676 14.9789 222.328 14.8887 222.984 14.8945C223.959 14.8708 224.929 15.0411 225.838 15.3956C226.601 15.703 227.282 16.1817 227.83 16.7945C228.37 17.4253 228.765 18.1668 228.988 18.9668C229.248 19.871 229.375 20.808 229.366 21.7488V32.1192H226.565V22.034C226.631 20.8513 226.303 19.6801 225.633 18.7032C225.281 18.2819 224.834 17.9511 224.328 17.7387C223.822 17.5263 223.273 17.4384 222.726 17.4824C221.918 17.4622 221.115 17.6215 220.376 17.9487C219.733 18.2476 219.178 18.7051 218.761 19.2782C218.322 19.8941 218.005 20.5881 217.827 21.323C217.616 22.1801 217.514 23.0602 217.523 23.9427V32.125H214.724L214.731 19.3071Z" fill="#01C1B9"/>
<path d="M235.047 19.3072C235.047 18.5416 235.023 17.8238 234.975 17.1538C234.927 16.4837 234.903 15.8736 234.904 15.3233H237.56C237.56 15.7794 237.571 16.2327 237.595 16.6875C237.618 17.1422 237.631 17.6085 237.631 18.0878H237.703C237.911 17.655 238.183 17.2557 238.51 16.9032C238.874 16.507 239.29 16.1625 239.748 15.8794C240.817 15.2237 242.048 14.8824 243.302 14.8946C244.277 14.871 245.246 15.0414 246.155 15.3957C246.917 15.7031 247.598 16.1818 248.146 16.7946C248.689 17.4251 249.087 18.1664 249.313 18.9669C249.572 19.8713 249.698 20.8083 249.69 21.7489V32.1193H246.89V22.0341C246.955 20.8512 246.627 19.68 245.956 18.7033C245.605 18.282 245.158 17.9512 244.652 17.7388C244.146 17.5264 243.597 17.4385 243.05 17.4825C242.242 17.4623 241.439 17.6216 240.699 17.9488C240.057 18.2477 239.501 18.7052 239.085 19.2783C238.647 19.8943 238.33 20.5883 238.152 21.3231C237.94 22.18 237.837 23.0602 237.847 23.9429V32.1251H235.047V19.3072Z" fill="#01C1B9"/>
<path d="M269.598 29.0693C268.745 30.2375 267.609 31.1698 266.296 31.7789C264.975 32.3168 263.559 32.5795 262.133 32.5508C260.912 32.5692 259.701 32.3309 258.579 31.8513C257.568 31.4138 256.658 30.7729 255.906 29.9686C255.163 29.1575 254.589 28.2063 254.218 27.1708C253.82 26.0657 253.62 24.8988 253.628 23.7241C253.614 22.5039 253.833 21.2924 254.273 20.1543C254.675 19.1092 255.286 18.1567 256.068 17.355C256.843 16.5705 257.771 15.9534 258.795 15.5419C259.89 15.1039 261.06 14.885 262.24 14.8974C263.344 14.8847 264.441 15.0854 265.469 15.4883C266.43 15.8684 267.295 16.457 268.001 17.2116C268.732 18.0082 269.288 18.9496 269.633 19.9747C270.034 21.1714 270.23 22.4273 270.212 23.6893V24.5858H256.646C256.692 25.2996 256.869 25.999 257.167 26.6494C257.449 27.2873 257.841 27.8706 258.325 28.3727C258.808 28.8637 259.381 29.2571 260.013 29.5313C260.68 29.824 261.401 29.9721 262.13 29.9657C263.195 29.9997 264.253 29.7783 265.216 29.3199C266.096 28.854 266.867 28.2057 267.477 27.4184L269.598 29.0693ZM267.193 22.2136C267.199 21.5756 267.078 20.9427 266.838 20.3516C266.598 19.7605 266.243 19.2228 265.794 18.7699C265.3 18.3224 264.722 17.9776 264.093 17.7556C263.465 17.5336 262.798 17.4388 262.133 17.4766C260.779 17.3893 259.446 17.8366 258.419 18.7225C257.392 19.6084 256.753 20.862 256.641 22.2136H267.193Z" fill="#01C1B9"/>
<path d="M286.778 19.5229C286.257 18.8643 285.597 18.3296 284.844 17.9574C284.124 17.6285 283.34 17.4629 282.548 17.4723C281.697 17.456 280.853 17.6214 280.071 17.9574C279.381 18.2593 278.772 18.7203 278.294 19.3028C277.819 19.8938 277.46 20.5695 277.236 21.2941C276.992 22.0783 276.871 22.8956 276.877 23.7169C276.87 24.5425 277.01 25.3627 277.289 26.1397C277.55 26.8669 277.939 27.5413 278.438 28.1309C278.926 28.7029 279.532 29.1624 280.215 29.4777C280.947 29.8087 281.744 29.9738 282.548 29.9614C283.377 29.9994 284.202 29.8289 284.948 29.4653C285.694 29.1017 286.337 28.5568 286.818 27.8804L288.899 29.8543C288.124 30.7602 287.138 31.4627 286.029 31.9005C283.764 32.7618 281.261 32.7618 278.995 31.9005C277.956 31.497 277.017 30.8718 276.244 30.0686C275.477 29.2614 274.879 28.3098 274.484 27.2692C274.055 26.1346 273.843 24.9297 273.857 23.7169C273.845 22.5159 274.058 21.3233 274.484 20.2007C274.881 19.1571 275.486 18.2048 276.261 17.4013C277.042 16.6025 277.978 15.973 279.013 15.552C280.135 15.0993 281.337 14.8743 282.548 14.8902C283.756 14.8835 284.955 15.102 286.083 15.5346C287.2 15.9696 288.2 16.6577 289.007 17.5447L286.778 19.5229Z" fill="#01C1B9"/>
<path d="M302.223 17.6925H297.271V26.092C297.271 26.6423 297.283 27.1506 297.306 27.6169C297.32 28.0386 297.419 28.4533 297.596 28.8363C297.759 29.1808 298.021 29.4687 298.349 29.6632C298.792 29.8909 299.287 29.9959 299.784 29.9673C300.207 29.9657 300.629 29.9171 301.041 29.8225C301.464 29.7289 301.874 29.5829 302.26 29.388L302.369 31.9354C301.86 32.1593 301.325 32.3165 300.776 32.4031C300.225 32.4955 299.667 32.5439 299.108 32.548C298.287 32.5804 297.469 32.4459 296.702 32.1526C296.141 31.9196 295.657 31.5343 295.303 31.0404C294.947 30.5075 294.72 29.8992 294.639 29.2635C294.526 28.4846 294.473 27.6985 294.478 26.9116V17.6925H290.817V15.3233H294.478V10.5515H297.277V15.3305H302.223V17.6925Z" fill="#01C1B9"/>
<path d="M305.326 23.7212C305.309 22.4917 305.541 21.2716 306.008 20.134C306.438 19.0912 307.073 18.1452 307.875 17.3521C308.686 16.5605 309.65 15.9435 310.709 15.539C313.024 14.6797 315.571 14.6797 317.886 15.539C318.945 15.9434 319.91 16.5605 320.722 17.3521C321.523 18.1456 322.158 19.0915 322.588 20.134C323.498 22.44 323.498 25.0053 322.588 27.3112C322.157 28.353 321.523 29.2982 320.722 30.0917C319.91 30.8833 318.945 31.5004 317.886 31.9049C315.571 32.7661 313.024 32.7661 310.709 31.9049C309.65 31.5004 308.686 30.8833 307.875 30.0917C307.073 29.2986 306.439 28.3533 306.008 27.3112C305.541 26.1727 305.309 24.9516 305.326 23.7212ZM308.341 23.7212C308.332 24.5598 308.472 25.3934 308.754 26.1831C309.015 26.9153 309.424 27.5861 309.955 28.154C310.485 28.722 311.127 29.1749 311.84 29.485C313.415 30.1298 315.181 30.1298 316.757 29.485C317.469 29.1749 318.111 28.722 318.642 28.154C319.173 27.5861 319.581 26.9153 319.843 26.1831C320.393 24.5904 320.393 22.8592 319.843 21.2665C319.582 20.534 319.174 19.8629 318.643 19.2949C318.112 18.7269 317.47 18.2741 316.757 17.9647C315.181 17.3178 313.415 17.3178 311.84 17.9647C311.127 18.2741 310.485 18.7269 309.954 19.2949C309.423 19.8629 309.014 20.534 308.754 21.2665C308.472 22.0539 308.333 22.885 308.341 23.7212Z" fill="#01C1B9"/>
<path d="M327.695 19.3072C327.695 18.5416 327.671 17.8237 327.622 17.1537C327.574 16.4837 327.55 15.8735 327.551 15.3232H330.206C330.206 15.7794 330.219 16.2327 330.242 16.6874C330.265 17.1421 330.278 17.6084 330.278 18.0878H330.349C330.557 17.6545 330.83 17.2552 331.157 16.9032C331.521 16.5063 331.937 16.1617 332.395 15.8793C332.899 15.5695 333.442 15.3284 334.01 15.1625C334.64 14.979 335.292 14.8887 335.948 14.8946C336.141 14.8944 336.335 14.906 336.527 14.9293C336.725 14.9545 336.92 15.0031 337.106 15.0741L336.927 17.9097C336.438 17.7645 335.931 17.6918 335.421 17.6939C334.706 17.6329 333.987 17.7539 333.331 18.0456C332.675 18.3373 332.104 18.7902 331.67 19.3622C330.825 20.7333 330.421 22.3305 330.511 23.9385V32.1207H327.712L327.695 19.3072Z" fill="#01C1B9"/>
</g>
<defs>
<clipPath id="clip0_1615_980">
<rect width="337.096" height="48" fill="white"/>
</clipPath>
</defs>
</svg>
