<svg width="255" height="50" viewBox="0 0 255 50" fill="none" xmlns="http://www.w3.org/2000/svg">
<path d="M92.4948 4.99982L84.3557 29.3476H80.7035L74.06 9.90417L67.4165 29.3476L63.6948 29.3476L55.5557 4.99982L59.1383 4.99982L65.7122 24.7911L72.5644 4.99982L75.7644 4.99982L82.4774 24.8955L89.1904 4.99982L92.4948 4.99982Z" fill="#01C1B9"/>
<path d="M103.111 29.5563C101.279 29.5563 99.6329 29.1505 98.172 28.339C96.7111 27.5274 95.5633 26.4143 94.7285 24.9998C93.9169 23.5621 93.5111 21.939 93.5111 20.1303C93.5111 18.3216 93.9169 16.71 94.7285 15.2955C95.5633 13.8578 96.7111 12.7447 98.172 11.9563C99.6329 11.1447 101.279 10.739 103.111 10.739C104.943 10.739 106.578 11.1447 108.015 11.9563C109.476 12.7447 110.613 13.8578 111.424 15.2955C112.259 16.71 112.676 18.3216 112.676 20.1303C112.676 21.939 112.259 23.5621 111.424 24.9998C110.613 26.4143 109.476 27.5274 108.015 28.339C106.578 29.1505 104.943 29.5563 103.111 29.5563ZM103.111 26.6346C104.294 26.6346 105.349 26.3679 106.276 25.8346C107.227 25.2781 107.969 24.5129 108.502 23.539C109.036 22.5418 109.302 21.4056 109.302 20.1303C109.302 18.8549 109.036 17.7303 108.502 16.7563C107.969 15.7592 107.227 14.994 106.276 14.4607C105.349 13.9274 104.294 13.6607 103.111 13.6607C101.929 13.6607 100.862 13.9274 99.9111 14.4607C98.9836 14.994 98.2416 15.7592 97.685 16.7563C97.1517 17.7303 96.885 18.8549 96.885 20.1303C96.885 21.4056 97.1517 22.5418 97.685 23.539C98.2416 24.5129 98.9836 25.2781 99.9111 25.8346C100.862 26.3679 101.929 26.6346 103.111 26.6346Z" fill="#01C1B9"/>
<path d="M127.483 10.739C129.825 10.739 131.68 11.423 133.048 12.7911C134.44 14.1361 135.135 16.1187 135.135 18.739V29.3476L131.796 29.3476V19.1216C131.796 17.3361 131.367 15.9911 130.509 15.0868C129.651 14.1824 128.422 13.7303 126.822 13.7303C125.014 13.7303 123.588 14.2636 122.544 15.3303C121.501 16.3737 120.979 17.881 120.979 19.852V29.3476H117.64V10.9129H120.84V13.6955C121.512 12.7447 122.417 12.0143 123.553 11.5042C124.712 10.994 126.022 10.739 127.483 10.739Z" fill="#01C1B9"/>
<path d="M159.154 3.53895V29.3476H155.954V26.4259C155.212 27.4462 154.272 28.223 153.136 28.7563C152 29.2897 150.748 29.5563 149.38 29.5563C147.594 29.5563 145.994 29.1621 144.58 28.3737C143.165 27.5853 142.052 26.4839 141.241 25.0694C140.452 23.6317 140.058 21.9853 140.058 20.1303C140.058 18.2752 140.452 16.6404 141.241 15.2259C142.052 13.8114 143.165 12.71 144.58 11.9216C145.994 11.1332 147.594 10.739 149.38 10.739C150.701 10.739 151.919 10.994 153.032 11.5042C154.145 11.9911 155.072 12.7216 155.814 13.6955V3.53895L159.154 3.53895ZM149.658 26.6346C150.817 26.6346 151.872 26.3679 152.823 25.8346C153.774 25.2781 154.516 24.5129 155.049 23.539C155.583 22.5418 155.849 21.4056 155.849 20.1303C155.849 18.8549 155.583 17.7303 155.049 16.7563C154.516 15.7592 153.774 14.994 152.823 14.4607C151.872 13.9274 150.817 13.6607 149.658 13.6607C148.475 13.6607 147.409 13.9274 146.458 14.4607C145.53 14.994 144.788 15.7592 144.232 16.7563C143.699 17.7303 143.432 18.8549 143.432 20.1303C143.432 21.4056 143.699 22.5418 144.232 23.539C144.788 24.5129 145.53 25.2781 146.458 25.8346C147.409 26.3679 148.475 26.6346 149.658 26.6346Z" fill="#01C1B9"/>
<path d="M169.017 14.0085C169.597 12.9419 170.455 12.1303 171.591 11.5737C172.727 11.0172 174.107 10.739 175.73 10.739V13.9737C175.544 13.9505 175.289 13.939 174.965 13.939C173.156 13.939 171.73 14.4839 170.686 15.5737C169.666 16.6404 169.156 18.1708 169.156 20.165V29.3476H165.817V10.9129H169.017V14.0085Z" fill="#01C1B9"/>
<path d="M180.508 4.99982L183.986 4.99982V26.3216H197.169V29.3476H180.508V4.99982Z" fill="#01C1B9"/>
<path d="M201.019 10.9129L204.358 10.9129V29.3476H201.019V10.9129ZM202.688 7.36504C202.039 7.36504 201.494 7.15634 201.053 6.73895C200.636 6.32156 200.427 5.81141 200.427 5.20852C200.427 4.60562 200.636 4.09547 201.053 3.67808C201.494 3.2375 202.039 3.01721 202.688 3.01721C203.337 3.01721 203.871 3.22591 204.288 3.6433C204.729 4.0375 204.949 4.53605 204.949 5.13895C204.949 5.76504 204.729 6.29837 204.288 6.73895C203.871 7.15634 203.337 7.36504 202.688 7.36504Z" fill="#01C1B9"/>
<path d="M220.922 10.739C223.264 10.739 225.119 11.423 226.487 12.7911C227.879 14.1361 228.574 16.1187 228.574 18.739V29.3476H225.235V19.1216C225.235 17.3361 224.806 15.9911 223.948 15.0868C223.09 14.1824 221.861 13.7303 220.261 13.7303C218.453 13.7303 217.027 14.2636 215.983 15.3303C214.94 16.3737 214.418 17.881 214.418 19.852V29.3476H211.079V10.9129H214.279V13.6955C214.951 12.7447 215.856 12.0143 216.992 11.5042C218.151 10.994 219.461 10.739 220.922 10.739Z" fill="#01C1B9"/>
<path d="M242.265 20.7563L238.439 24.3042V29.3476H235.099V3.53895L238.439 3.53895V20.0955L248.491 10.9129H252.525L244.769 18.5303L253.291 29.3476H249.186L242.265 20.7563Z" fill="#01C1B9"/>
<path d="M92.4948 4.99982L84.3557 29.3476H80.7035L74.06 9.90417L67.4165 29.3476L63.6948 29.3476L55.5557 4.99982L59.1383 4.99982L65.7122 24.7911L72.5644 4.99982L75.7644 4.99982L82.4774 24.8955L89.1904 4.99982L92.4948 4.99982Z" stroke="#01C1B9"/>
<path d="M103.111 29.5563C101.279 29.5563 99.6329 29.1505 98.172 28.339C96.7111 27.5274 95.5633 26.4143 94.7285 24.9998C93.9169 23.5621 93.5111 21.939 93.5111 20.1303C93.5111 18.3216 93.9169 16.71 94.7285 15.2955C95.5633 13.8578 96.7111 12.7447 98.172 11.9563C99.6329 11.1447 101.279 10.739 103.111 10.739C104.943 10.739 106.578 11.1447 108.015 11.9563C109.476 12.7447 110.613 13.8578 111.424 15.2955C112.259 16.71 112.676 18.3216 112.676 20.1303C112.676 21.939 112.259 23.5621 111.424 24.9998C110.613 26.4143 109.476 27.5274 108.015 28.339C106.578 29.1505 104.943 29.5563 103.111 29.5563ZM103.111 26.6346C104.294 26.6346 105.349 26.3679 106.276 25.8346C107.227 25.2781 107.969 24.5129 108.502 23.539C109.036 22.5418 109.302 21.4056 109.302 20.1303C109.302 18.8549 109.036 17.7303 108.502 16.7563C107.969 15.7592 107.227 14.994 106.276 14.4607C105.349 13.9274 104.294 13.6607 103.111 13.6607C101.929 13.6607 100.862 13.9274 99.9111 14.4607C98.9836 14.994 98.2416 15.7592 97.685 16.7563C97.1517 17.7303 96.885 18.8549 96.885 20.1303C96.885 21.4056 97.1517 22.5418 97.685 23.539C98.2416 24.5129 98.9836 25.2781 99.9111 25.8346C100.862 26.3679 101.929 26.6346 103.111 26.6346Z" stroke="#01C1B9"/>
<path d="M127.483 10.739C129.825 10.739 131.68 11.423 133.048 12.7911C134.44 14.1361 135.135 16.1187 135.135 18.739V29.3476L131.796 29.3476V19.1216C131.796 17.3361 131.367 15.9911 130.509 15.0868C129.651 14.1824 128.422 13.7303 126.822 13.7303C125.014 13.7303 123.588 14.2636 122.544 15.3303C121.501 16.3737 120.979 17.881 120.979 19.852V29.3476H117.64V10.9129H120.84V13.6955C121.512 12.7447 122.417 12.0143 123.553 11.5042C124.712 10.994 126.022 10.739 127.483 10.739Z" stroke="#01C1B9"/>
<path d="M159.154 3.53895V29.3476H155.954V26.4259C155.212 27.4462 154.272 28.223 153.136 28.7563C152 29.2897 150.748 29.5563 149.38 29.5563C147.594 29.5563 145.994 29.1621 144.58 28.3737C143.165 27.5853 142.052 26.4839 141.241 25.0694C140.452 23.6317 140.058 21.9853 140.058 20.1303C140.058 18.2752 140.452 16.6404 141.241 15.2259C142.052 13.8114 143.165 12.71 144.58 11.9216C145.994 11.1332 147.594 10.739 149.38 10.739C150.701 10.739 151.919 10.994 153.032 11.5042C154.145 11.9911 155.072 12.7216 155.814 13.6955V3.53895L159.154 3.53895ZM149.658 26.6346C150.817 26.6346 151.872 26.3679 152.823 25.8346C153.774 25.2781 154.516 24.5129 155.049 23.539C155.583 22.5418 155.849 21.4056 155.849 20.1303C155.849 18.8549 155.583 17.7303 155.049 16.7563C154.516 15.7592 153.774 14.994 152.823 14.4607C151.872 13.9274 150.817 13.6607 149.658 13.6607C148.475 13.6607 147.409 13.9274 146.458 14.4607C145.53 14.994 144.788 15.7592 144.232 16.7563C143.699 17.7303 143.432 18.8549 143.432 20.1303C143.432 21.4056 143.699 22.5418 144.232 23.539C144.788 24.5129 145.53 25.2781 146.458 25.8346C147.409 26.3679 148.475 26.6346 149.658 26.6346Z" stroke="#01C1B9"/>
<path d="M169.017 14.0085C169.597 12.9419 170.455 12.1303 171.591 11.5737C172.727 11.0172 174.107 10.739 175.73 10.739V13.9737C175.544 13.9505 175.289 13.939 174.965 13.939C173.156 13.939 171.73 14.4839 170.686 15.5737C169.666 16.6404 169.156 18.1708 169.156 20.165V29.3476H165.817V10.9129H169.017V14.0085Z" stroke="#01C1B9"/>
<path d="M180.508 4.99982L183.986 4.99982V26.3216H197.169V29.3476H180.508V4.99982Z" stroke="#01C1B9"/>
<path d="M201.019 10.9129L204.358 10.9129V29.3476H201.019V10.9129ZM202.688 7.36504C202.039 7.36504 201.494 7.15634 201.053 6.73895C200.636 6.32156 200.427 5.81141 200.427 5.20852C200.427 4.60562 200.636 4.09547 201.053 3.67808C201.494 3.2375 202.039 3.01721 202.688 3.01721C203.337 3.01721 203.871 3.22591 204.288 3.6433C204.729 4.0375 204.949 4.53605 204.949 5.13895C204.949 5.76504 204.729 6.29837 204.288 6.73895C203.871 7.15634 203.337 7.36504 202.688 7.36504Z" stroke="#01C1B9"/>
<path d="M220.922 10.739C223.264 10.739 225.119 11.423 226.487 12.7911C227.879 14.1361 228.574 16.1187 228.574 18.739V29.3476H225.235V19.1216C225.235 17.3361 224.806 15.9911 223.948 15.0868C223.09 14.1824 221.861 13.7303 220.261 13.7303C218.453 13.7303 217.027 14.2636 215.983 15.3303C214.94 16.3737 214.418 17.881 214.418 19.852V29.3476H211.079V10.9129H214.279V13.6955C214.951 12.7447 215.856 12.0143 216.992 11.5042C218.151 10.994 219.461 10.739 220.922 10.739Z" stroke="#01C1B9"/>
<path d="M242.265 20.7563L238.439 24.3042V29.3476H235.099V3.53895L238.439 3.53895V20.0955L248.491 10.9129H252.525L244.769 18.5303L253.291 29.3476H249.186L242.265 20.7563Z" stroke="#01C1B9"/>
<path d="M106.751 38.3225V41.2399H110.948V42.2682H106.751V45.6519H105.556V37.2823H111.462V38.3225H106.751Z" fill="#152032"/>
<path d="M114.341 37.2823H115.537V45.6519H114.341V37.2823Z" fill="#152032"/>
<path d="M125.037 41.4193H126.185V44.6834C125.77 45.0261 125.288 45.2892 124.738 45.4725C124.188 45.6558 123.614 45.7475 123.016 45.7475C122.171 45.7475 121.41 45.5642 120.733 45.1975C120.055 44.8229 119.521 44.3127 119.13 43.6671C118.748 43.0135 118.556 42.2801 118.556 41.4671C118.556 40.654 118.748 39.9207 119.13 39.2671C119.521 38.6135 120.055 38.1033 120.733 37.7366C121.418 37.37 122.187 37.1866 123.04 37.1866C123.71 37.1866 124.315 37.2982 124.858 37.5214C125.408 37.7366 125.874 38.0555 126.256 38.4779L125.515 39.2193C124.846 38.5736 124.036 38.2508 123.088 38.2508C122.45 38.2508 121.876 38.3903 121.366 38.6693C120.864 38.9403 120.469 39.3229 120.183 39.8171C119.896 40.3033 119.752 40.8533 119.752 41.4671C119.752 42.0729 119.896 42.6229 120.183 43.1171C120.469 43.6033 120.864 43.9859 121.366 44.2649C121.876 44.5439 122.446 44.6834 123.076 44.6834C123.825 44.6834 124.479 44.504 125.037 44.1453V41.4193Z" fill="#152032"/>
<path d="M136.867 37.2823V45.6519H135.672V41.9214H130.865V45.6519H129.67V37.2823H130.865V40.8812H135.672V37.2823H136.867Z" fill="#152032"/>
<path d="M142.23 38.3225H139.361V37.2823H146.283V38.3225H143.414V45.6519H142.23V38.3225Z" fill="#152032"/>
<path d="M148.781 37.2823H149.977V45.6519H148.781V37.2823Z" fill="#152032"/>
<path d="M160.876 37.2823V45.6519H159.896L154.874 39.4106V45.6519H153.678V37.2823H154.659L159.681 43.5236V37.2823H160.876Z" fill="#152032"/>
<path d="M170.376 41.4193H171.524V44.6834C171.109 45.0261 170.627 45.2892 170.077 45.4725C169.527 45.6558 168.953 45.7475 168.355 45.7475C167.51 45.7475 166.749 45.5642 166.072 45.1975C165.394 44.8229 164.86 44.3127 164.469 43.6671C164.087 43.0135 163.895 42.2801 163.895 41.4671C163.895 40.654 164.087 39.9207 164.469 39.2671C164.86 38.6135 165.394 38.1033 166.072 37.7366C166.757 37.37 167.526 37.1866 168.379 37.1866C169.049 37.1866 169.655 37.2982 170.197 37.5214C170.747 37.7366 171.213 38.0555 171.595 38.4779L170.854 39.2193C170.185 38.5736 169.376 38.2508 168.427 38.2508C167.789 38.2508 167.215 38.3903 166.705 38.6693C166.203 38.9403 165.808 39.3229 165.522 39.8171C165.235 40.3033 165.091 40.8533 165.091 41.4671C165.091 42.0729 165.235 42.6229 165.522 43.1171C165.808 43.6033 166.203 43.9859 166.705 44.2649C167.215 44.5439 167.785 44.6834 168.415 44.6834C169.164 44.6834 169.818 44.504 170.376 44.1453V41.4193Z" fill="#152032"/>
<path d="M181.077 38.3225H178.208V37.2823H185.13V38.3225H182.261V45.6519H181.077V38.3225Z" fill="#152032"/>
<path d="M191.29 45.7475C190.445 45.7475 189.684 45.5642 189.006 45.1975C188.329 44.8229 187.795 44.3087 187.404 43.6551C187.021 43.0015 186.83 42.2722 186.83 41.4671C186.83 40.662 187.021 39.9327 187.404 39.279C187.795 38.6254 188.329 38.1153 189.006 37.7486C189.684 37.374 190.445 37.1866 191.29 37.1866C192.127 37.1866 192.884 37.374 193.562 37.7486C194.239 38.1153 194.769 38.6254 195.152 39.279C195.534 39.9247 195.726 40.654 195.726 41.4671C195.726 42.2801 195.534 43.0135 195.152 43.6671C194.769 44.3127 194.239 44.8229 193.562 45.1975C192.884 45.5642 192.127 45.7475 191.29 45.7475ZM191.29 44.6834C191.904 44.6834 192.454 44.5439 192.94 44.2649C193.434 43.9859 193.821 43.6033 194.1 43.1171C194.387 42.6229 194.53 42.0729 194.53 41.4671C194.53 40.8613 194.387 40.3153 194.1 39.829C193.821 39.3348 193.434 38.9482 192.94 38.6693C192.454 38.3903 191.904 38.2508 191.29 38.2508C190.676 38.2508 190.118 38.3903 189.616 38.6693C189.122 38.9482 188.731 39.3348 188.444 39.829C188.165 40.3153 188.026 40.8613 188.026 41.4671C188.026 42.0729 188.165 42.6229 188.444 43.1171C188.731 43.6033 189.122 43.9859 189.616 44.2649C190.118 44.5439 190.676 44.6834 191.29 44.6834Z" fill="#152032"/>
<path d="M204.548 41.4193H205.696V44.6834C205.281 45.0261 204.799 45.2892 204.249 45.4725C203.699 45.6558 203.125 45.7475 202.527 45.7475C201.682 45.7475 200.921 45.5642 200.243 45.1975C199.566 44.8229 199.032 44.3127 198.641 43.6671C198.259 43.0135 198.067 42.2801 198.067 41.4671C198.067 40.654 198.259 39.9207 198.641 39.2671C199.032 38.6135 199.566 38.1033 200.243 37.7366C200.929 37.37 201.698 37.1866 202.551 37.1866C203.221 37.1866 203.826 37.2982 204.368 37.5214C204.918 37.7366 205.385 38.0555 205.767 38.4779L205.026 39.2193C204.356 38.5736 203.547 38.2508 202.599 38.2508C201.961 38.2508 201.387 38.3903 200.877 38.6693C200.375 38.9403 199.98 39.3229 199.693 39.8171C199.406 40.3033 199.263 40.8533 199.263 41.4671C199.263 42.0729 199.406 42.6229 199.693 43.1171C199.98 43.6033 200.375 43.9859 200.877 44.2649C201.387 44.5439 201.957 44.6834 202.587 44.6834C203.336 44.6834 203.99 44.504 204.548 44.1453V41.4193Z" fill="#152032"/>
<path d="M215.254 44.6116V45.6519H209.18V37.2823H215.087V38.3225H210.376V40.8932H214.573V41.9095H210.376V44.6116H215.254Z" fill="#152032"/>
<path d="M220.048 38.3225H217.178V37.2823H224.101V38.3225H221.232V45.6519H220.048V38.3225Z" fill="#152032"/>
<path d="M233.797 37.2823V45.6519H232.601V41.9214H227.795V45.6519H226.599V37.2823H227.795V40.8812H232.601V37.2823H233.797Z" fill="#152032"/>
<path d="M243.572 44.6116V45.6519H237.498V37.2823H243.404V38.3225H238.693V40.8932H242.89V41.9095H238.693V44.6116H243.572Z" fill="#152032"/>
<path d="M252.299 45.6519L250.494 43.0812C250.27 43.0972 250.095 43.1051 249.967 43.1051H247.899V45.6519H246.703V37.2823H249.967C251.052 37.2823 251.904 37.5414 252.526 38.0595C253.148 38.5776 253.459 39.291 253.459 40.1997C253.459 40.8453 253.299 41.3953 252.981 41.8497C252.662 42.304 252.207 42.6348 251.617 42.8421L253.602 45.6519H252.299ZM249.932 42.0888C250.689 42.0888 251.267 41.9254 251.665 41.5986C252.064 41.2718 252.263 40.8055 252.263 40.1997C252.263 39.5939 252.064 39.1316 251.665 38.8127C251.267 38.4859 250.689 38.3225 249.932 38.3225H247.899V42.0888H249.932Z" fill="#152032"/>
<g clip-path="url(#clip0_1457_410)">
<path d="M45.1714 34.2C45.0882 29.6333 42.8737 26.3333 38.7445 24.5166C34.5321 22.65 30.5028 23.3166 27.1062 26.45C24.1924 29.1333 20.9457 30.9 16.9663 31.25C9.25736 31.9333 2.03125 26.6 0.382903 19.0166C-1.76495 9.2333 5.74421 -0.0333658 15.7842 -3.24139e-05C23.8428 0.0166343 30.6859 6.39997 31.3186 14.4666C31.3353 14.75 31.3852 15.25 31.3852 15.25C31.3852 15.25 30.9856 15.35 30.6859 15.4C29.4372 15.65 26.6899 16.2833 26.6899 16.2833C26.6899 16.2833 26.4402 14.0166 26.1238 12.9166C24.8917 8.49997 21.3619 5.49997 16.5001 4.89997C12.5707 4.41663 8.30831 6.74997 6.21041 10.5166C4.12916 14.2666 4.56206 18.9833 7.29266 22.4C11.272 27.35 18.5647 27.7666 23.26 23.3333C29.5371 17.3833 38.1118 17.0833 44.7885 22.5666C49.7169 26.6333 51.4319 34.65 48.7346 40.45C46.0373 46.2666 41.4418 49.3833 35.1814 49.9333C31.6516 50.25 28.3216 49.1666 25.4412 47.0333C21.6616 44.25 19.2307 40.6166 18.7978 35.8333C18.7645 35.4166 18.6813 34.6166 18.6813 34.6166C18.6813 34.6166 19.314 34.5166 19.7802 34.45C20.9457 34.2833 23.3599 33.7666 23.3599 33.7666C23.3599 33.7666 23.643 35.9 23.9427 36.9666C25.0749 40.9333 27.4725 43.75 31.5184 44.7666C35.5144 45.7666 39.244 44.95 42.2077 41.9833C44.2723 39.8833 45.4045 37.2833 45.1714 34.2Z" fill="#01C1B9"/>
</g>
<defs>
<clipPath id="clip0_1457_410">
<rect width="50" height="50" fill="white"/>
</clipPath>
</defs>
</svg>
