<svg xmlns="http://www.w3.org/2000/svg" width="48" height="54" viewBox="0 0 54 54" fill="none">
<path d="M35.8124 26.843V26.9895C35.8124 27.3314 35.8124 27.6569 35.7961 27.9825C35.7961 28.3569 35.7798 28.715 35.7798 29.0732C35.7798 29.4313 35.7473 29.8057 35.7147 30.1638C35.6822 30.9126 35.6333 31.6451 35.5519 32.3614C35.5526 32.5308 35.5362 32.6999 35.5031 32.866C35.503 33.0624 35.4867 33.2584 35.4543 33.452C35.4054 33.8264 35.3729 34.2008 35.3078 34.559C35.1613 35.7798 34.9659 36.9519 34.738 38.0914L31.4498 37.9123C31.4691 37.7752 31.4962 37.6393 31.5312 37.5053C31.5637 37.3426 31.5963 37.1798 31.6288 37.0007C31.7102 36.6426 31.7753 36.2845 31.8242 35.9101C31.9544 35.2101 32.0195 34.445 32.1498 33.745C32.2149 32.9637 32.28 32.3451 32.3451 31.6614C32.3777 31.3196 32.4102 30.9777 32.4102 30.6196C32.5242 29.3987 32.5567 28.129 32.5567 26.843C32.5567 25.557 32.5242 24.2873 32.4265 23.0827C32.4102 22.7246 32.3939 22.3827 32.3614 22.0409C32.3288 21.6991 32.2963 21.3247 32.2474 20.9665C32.1823 20.234 32.1009 19.534 31.987 18.8503C31.9544 18.4922 31.8893 18.1341 31.8405 17.7922L31.6451 16.7179C31.5475 16.2132 31.4498 15.7412 31.3196 15.2691C31.3019 15.1424 31.2747 15.0173 31.2382 14.8947C31.2056 14.7482 31.173 14.6017 31.1405 14.4715C31.0754 14.211 31.0103 13.9506 30.9289 13.6901C30.8093 13.162 30.6626 12.6404 30.4894 12.1274C30.4242 11.8669 30.3266 11.6065 30.2452 11.346C30.1964 11.1995 30.1475 11.0693 30.0987 10.9391C30.0498 10.8088 30.0173 10.6949 29.9685 10.5809C28.2088 5.89277 25.8826 3.25567 23.9927 3.25567C22.1027 3.25567 19.8091 5.92532 18.0511 10.5972C17.9534 10.8414 17.872 11.1181 17.7743 11.3786C17.6767 11.639 17.6115 11.8832 17.5302 12.1437C17.3674 12.6483 17.2046 13.1692 17.0744 13.7064C16.993 13.9668 16.9279 14.2273 16.8627 14.4877L16.6674 15.2691C16.6511 15.3505 16.6348 15.4319 16.6186 15.5296V15.5458L12.6971 19.062C12.9087 17.4667 13.1855 15.9528 13.511 14.504L13.6087 14.1133L13.7064 13.7227C13.7715 13.4459 13.8366 13.1855 13.918 12.925C14.0482 12.3824 14.1947 11.8615 14.3575 11.3623L14.6017 10.5809C14.6505 10.4344 14.6994 10.2879 14.7645 10.1414C14.7951 10.0251 14.8331 9.91096 14.8784 9.79957C17.0434 3.80914 20.3317 0 23.9943 0C27.6569 0 30.9614 3.80914 33.1265 9.79957C33.2241 10.0437 33.3218 10.3042 33.4032 10.5647C33.7288 11.5576 34.038 12.6157 34.2985 13.7389C34.3636 13.9994 34.4287 14.2436 34.4776 14.504C34.8392 16.0341 35.1164 17.5828 35.3078 19.1434C35.3729 19.5015 35.4054 19.8596 35.4543 20.234C35.5031 20.6084 35.5357 20.9665 35.5519 21.3409C35.6333 22.0572 35.6822 22.7897 35.7147 23.5222C35.731 23.8804 35.7473 24.2548 35.7635 24.6292C35.7798 25.0036 35.7961 25.3291 35.7798 25.6873C35.8124 26.0617 35.8124 26.4523 35.8124 26.843Z" fill="#777778"/>
<path d="M33.3853 43.1051C31.2528 49.5513 27.8344 53.7023 23.9927 53.7023C20.4765 53.7023 17.3185 50.2025 15.1535 44.6515C15.1346 44.6092 15.1182 44.5657 15.1047 44.5213L18.1162 43.2679C19.7603 47.6142 22.0718 50.4466 23.9927 50.4466C25.8321 50.4466 28.3878 47.6793 30.211 42.3237C31.2551 42.6379 32.3146 42.8987 33.3853 43.1051Z" fill="#777778"/>
<path d="M29.5762 14.976C29.3808 15.0411 29.1692 15.1062 28.9576 15.1713C28.632 15.2853 28.2902 15.4155 27.9483 15.5457C27.6065 15.6759 27.2646 15.7899 26.9228 15.9364C26.2717 16.1806 25.6042 16.4736 24.9531 16.7503C24.6275 16.8968 24.302 17.0596 23.9764 17.2061C23.6508 17.3526 23.3578 17.4991 23.0485 17.6619C21.9416 18.1991 20.8184 18.8014 19.7115 19.4362C18.6045 20.0711 17.5464 20.7385 16.5209 21.4385C16.2279 21.6175 15.9349 21.8129 15.6419 22.0082V22.0245C15.3489 22.2198 15.0559 22.4315 14.7791 22.6431C14.1931 23.05 13.6234 23.4896 13.0699 23.9453C12.7769 24.157 12.5002 24.3849 12.2234 24.6128C11.9467 24.8407 11.67 25.0686 11.3932 25.3127C11.0188 25.6383 10.6607 25.9639 10.3026 26.2894C10.1072 26.4685 9.9119 26.6476 9.71656 26.8429L9.13054 27.4289C8.73986 27.8033 8.36545 28.2103 8.02361 28.601C7.82827 28.7963 7.64921 29.0079 7.48642 29.2033C7.43123 29.2724 7.3714 29.3376 7.30736 29.3986C7.19341 29.5451 7.06319 29.6916 6.96552 29.8381C6.62198 30.2147 6.30127 30.6115 6.00509 31.0264C3.64473 34.2495 2.71686 37.1634 3.56334 38.6447C4.23075 39.8005 6.23299 40.4679 9.06542 40.4679C10.3532 40.4594 11.6381 40.3451 12.9071 40.126C13.1676 40.0772 13.428 40.0284 13.7048 39.9795C13.9735 39.9336 14.2398 39.8739 14.5024 39.8005C15.007 39.7028 15.5442 39.5726 16.0814 39.4261C16.3419 39.361 16.6023 39.2958 16.8628 39.2145L17.6441 38.9703C17.9209 38.8726 18.1976 38.7912 18.4906 38.6773H18.5069L22.9183 40.533C21.4695 41.119 20.0533 41.6236 18.6859 42.0306C18.6371 42.0469 18.6045 42.0632 18.5557 42.0794C18.3001 42.1756 18.0392 42.2571 17.7743 42.3236C17.5139 42.405 17.2534 42.4701 16.993 42.5352C16.4682 42.6923 15.9357 42.8227 15.3977 42.9259C15.1351 42.9993 14.8689 43.0591 14.6001 43.105C14.337 43.1681 14.0707 43.217 13.8024 43.2515C13.7699 43.2515 13.7536 43.2678 13.721 43.2678H13.7048C12.1757 43.5624 10.6226 43.715 9.06542 43.7236C5.0935 43.7236 2.08201 42.6003 0.747182 40.2725C-1.09227 37.082 0.56812 32.3287 4.67027 27.4615C4.84933 27.2499 5.02839 27.0545 5.20745 26.8429C5.90742 26.0615 6.67251 25.2639 7.48642 24.4825C7.68176 24.3035 7.8771 24.1081 8.07244 23.9453C9.21761 22.8736 10.4184 21.863 11.67 20.9176C11.963 20.6734 12.256 20.4618 12.549 20.2339C12.7118 20.1199 12.8908 19.9897 13.0536 19.8595C13.1838 19.7781 13.3141 19.6804 13.4443 19.599C14.0303 19.1758 14.6326 18.7526 15.2512 18.3782C15.5605 18.1665 15.8698 17.9712 16.1791 17.7759C16.4884 17.5805 16.7976 17.3852 17.1232 17.2061C17.2694 17.096 17.4278 17.0031 17.5953 16.9294L17.6116 16.9131C17.759 16.8003 17.9171 16.7021 18.0836 16.6201C18.4255 16.4247 18.7673 16.2294 19.1092 16.0503C19.4185 15.8713 19.7278 15.7085 20.037 15.5457C20.3789 15.3667 20.7045 15.1876 21.03 15.0411C21.6648 14.6936 22.3168 14.3785 22.9834 14.0969C23.3253 13.9179 23.6671 13.7714 24.009 13.6249C24.3508 13.4784 24.6926 13.3319 25.0182 13.2016C26.4019 12.6319 27.753 12.1273 29.0715 11.704C29.0878 11.704 29.0878 11.6877 29.1041 11.6877L29.5762 14.976Z" fill="#777778"/>
<path d="M42.9081 26.6966H42.8918C42.859 26.7492 42.8208 26.7983 42.7779 26.8431C42.0942 27.6244 41.3454 28.4221 40.5152 29.2034C40.2222 29.4802 39.9129 29.7732 39.6036 30.0499C38.6757 30.8964 37.6665 31.7428 36.6084 32.573C36.5758 32.5893 36.5596 32.6219 36.527 32.6382L37.1781 27.8523C37.5525 27.5268 37.9269 27.1849 38.2688 26.8431C39.099 26.0454 39.8478 25.2478 40.5152 24.4827C44.0802 20.3806 45.415 16.7505 44.4383 15.0575C43.7546 13.8855 41.7524 13.2181 38.9362 13.2181C37.3758 13.2285 35.8207 13.4031 34.2969 13.739C34.0364 12.6158 33.7271 11.5577 33.4016 10.5647C33.6783 10.5159 33.955 10.467 34.2155 10.4182C35.7731 10.1313 37.3525 9.97883 38.9362 9.9624C42.8918 9.9624 45.9033 11.0856 47.2544 13.4297C49.1427 16.7179 47.3033 21.6665 42.9081 26.6966Z" fill="#777778"/>
<path d="M47.2544 40.2727C45.9033 42.6005 42.8918 43.7237 38.9362 43.7237C37.0695 43.7105 35.2091 43.5032 33.3853 43.1051C32.3146 42.8987 31.2552 42.6379 30.211 42.3237C28.4462 41.8172 26.7123 41.2085 25.0182 40.5006C24.6764 40.3703 24.3508 40.2238 24.0089 40.0773C23.9113 40.0285 23.8136 39.9959 23.7159 39.9471C23.4718 39.8494 23.2439 39.7355 22.9997 39.6215C22.3486 39.3285 21.6811 39.0029 21.0137 38.6448C20.6882 38.4983 20.3626 38.3355 20.037 38.1565C19.7277 37.9937 19.4022 37.8146 19.0929 37.6356C18.8813 37.5216 18.6859 37.4239 18.4743 37.2937C18.3441 37.2286 18.2138 37.1635 18.0836 37.0821C17.4488 36.7077 16.8139 36.3333 16.1953 35.9426C14.9256 35.145 13.7047 34.3148 12.5653 33.4683C10.9916 32.3195 9.48604 31.0803 8.05615 29.7568L11.0351 28.0476C11.4258 28.4057 11.8165 28.7476 12.2397 29.0731C13.3141 29.9847 14.4535 30.8475 15.6581 31.694C16.9604 32.5893 18.3115 33.452 19.7115 34.2497C20.8184 34.9008 21.9253 35.4868 23.0485 36.024C23.3741 36.1868 23.6834 36.3496 24.0089 36.4961C24.3345 36.6426 24.6601 36.7891 24.9856 36.9193C25.6531 37.2286 26.3042 37.5053 26.9553 37.7495C27.2972 37.896 27.639 38.0262 27.9646 38.1565C28.2902 38.2867 28.6483 38.4006 28.9901 38.5146C29.5273 38.7099 30.0645 38.889 30.5854 39.0355C30.7645 39.1006 30.9598 39.1657 31.1389 39.2146C31.7249 39.3773 32.3272 39.5401 32.8969 39.6704H32.9132C33.3853 39.7843 33.8411 39.8983 34.2969 39.9796C35.8241 40.2906 37.3777 40.4542 38.9362 40.468C41.7524 40.468 43.7546 39.8006 44.4383 38.6448C45.3824 36.9844 44.0476 33.4846 41.0524 29.8219C41.1501 29.7243 41.2477 29.6429 41.3291 29.5615L43.8523 28.0964C43.8848 28.1453 43.9337 28.1941 43.9662 28.2429C47.5963 32.8334 48.9979 37.2612 47.2544 40.2727Z" fill="#777778"/>
<path d="M12.1746 13.4134L12.3374 13.4948C11.2562 13.3124 10.1619 13.2198 9.06543 13.2181C6.233 13.2181 4.23076 13.8855 3.56335 15.0575C2.65176 16.6203 3.77497 20.2178 7.48643 24.4827C6.67251 25.2641 5.90743 26.0617 5.20746 26.8431C0.714635 21.7642 -1.17365 16.7342 0.747191 13.4297C2.08202 11.1019 5.09351 9.9624 9.06543 9.9624C10.6056 9.97328 12.1417 10.1204 13.6559 10.4019L12.1746 13.4134Z" fill="#777778"/>
<path d="M23.9129 31.8143C22.6189 31.8105 21.379 31.2947 20.464 30.3797C19.549 29.4647 19.0333 28.2248 19.0294 26.9308C19.0238 25.6187 19.5314 24.3564 20.4439 23.4136C21.3564 22.4707 22.6013 21.9219 23.9129 21.8845C24.566 21.8699 25.2154 21.985 25.8237 22.2232C26.4319 22.4613 26.9868 22.8179 27.4562 23.2722C27.9256 23.7264 28.3001 24.2693 28.5582 24.8694C28.8162 25.4695 28.9525 26.1149 28.9592 26.7681C28.9524 28.1043 28.4185 29.3839 27.4736 30.3288C26.5287 31.2736 25.2492 31.8075 23.9129 31.8143Z" fill="#262626"/>
</svg>