<svg width="216" height="240" viewBox="0 0 216 240" fill="none" xmlns="http://www.w3.org/2000/svg">
<path d="M57.3289 85.1617C57.9436 80.2434 58.5584 75.3251 59.1732 71.0216C61.6324 59.9555 64.0915 48.2745 68.395 37.8232C71.4689 29.831 75.1577 22.4535 80.6907 15.6909C84.9942 10.1578 89.9125 5.23951 96.6752 2.16558C107.127 -2.13792 116.963 0.321223 125.57 6.46908C132.333 12.0022 137.251 19.3796 141.555 26.757C144.628 32.2901 147.088 38.438 149.547 44.5858C150.162 46.4302 150.162 46.4302 152.006 45.8154C161.228 43.971 171.064 42.7415 180.901 43.3563C188.278 43.971 195.041 45.2006 201.189 48.8893C211.025 54.4224 215.944 63.0294 215.329 74.7104C214.714 83.9321 211.64 91.3096 207.337 99.3018C199.959 111.598 190.737 122.049 180.286 131.271C175.368 135.574 170.45 139.878 165.531 143.566C164.916 144.181 164.302 144.181 163.687 144.796C163.687 142.952 164.302 140.492 164.302 138.648C164.916 133.73 165.531 128.812 166.146 124.508C166.146 123.893 166.761 123.278 167.376 122.664C173.523 117.131 179.671 110.983 184.59 104.835C190.123 98.0722 195.656 90.6948 198.73 82.7026C199.959 79.0138 200.574 74.7104 199.959 71.0216C199.344 66.7181 196.885 63.6442 192.582 61.7998C188.893 59.9555 185.204 59.3407 180.901 58.7259C172.294 58.1111 163.687 58.7259 155.08 60.5703C153.85 60.5703 154.465 61.1851 154.465 61.7998C155.695 66.7181 156.309 72.2512 157.539 77.1695C158.769 86.3913 159.998 95.6131 159.998 104.22C160.613 114.057 160.613 123.278 159.998 133.115C159.383 145.411 158.154 157.092 155.695 168.773C155.695 170.002 155.08 170.002 153.85 170.002C149.547 170.002 145.243 169.387 140.94 169.387C139.71 169.387 140.325 168.773 140.325 168.158C140.94 164.469 141.555 161.395 142.169 157.706C144.014 147.255 144.628 136.804 144.628 126.352C144.628 117.131 144.628 107.909 144.014 98.0722C142.784 85.7765 141.555 72.866 138.481 61.1851C136.021 50.7337 132.333 40.2823 127.414 31.0605C124.341 25.5275 121.267 20.6092 116.348 16.9205C110.815 12.617 104.667 12.617 99.1343 16.9205C94.216 20.6092 90.5273 25.5275 88.0682 31.0605C82.5351 41.5119 78.8464 52.578 76.3872 64.259C75.7724 67.3329 74.5429 69.7921 71.4689 72.2512C66.5506 77.1695 62.2471 81.473 57.3289 85.1617Z" fill="#EC5E27"/>
<path d="M102.208 180.454C100.364 181.683 98.5195 182.298 96.6752 182.913C86.2238 186.601 75.1576 190.29 64.0915 192.749C51.7957 195.208 38.8852 196.438 26.5895 193.979C19.2121 192.749 12.4494 189.675 7.53114 184.142C1.99806 178.609 0.153696 171.847 0.153696 164.469C0.153696 155.247 3.84243 146.64 8.14594 138.648C11.8347 131.885 16.7529 126.352 21.6712 120.205C22.286 118.975 22.286 118.975 21.6712 117.745C14.2938 109.753 8.14593 100.531 3.84243 90.6948C0.768496 83.3174 -0.461091 75.9399 0.153696 68.5625C1.38327 60.5703 5.68677 53.8076 12.4494 50.1189C19.8269 45.2006 29.0487 43.971 37.6557 43.971C45.0331 43.971 53.0253 44.5858 60.4028 45.8154C61.0176 45.8154 61.6323 46.4302 61.0175 47.045C59.1732 50.7337 57.3288 54.4224 55.4845 58.1111C54.8697 59.3407 54.2549 59.9555 53.0253 59.3407C49.9514 59.3407 46.8775 58.7259 43.8035 58.7259C37.0409 58.1111 30.2782 58.7259 23.5156 61.185C19.2121 63.0294 15.5234 66.1033 14.9086 71.0216C14.2938 75.3251 14.9086 79.0138 16.7529 83.3173C20.4416 92.5391 25.9747 100.531 32.7374 107.909C33.3522 108.524 33.9669 107.909 33.9669 107.909C42.5739 99.9166 51.7957 92.5391 61.6323 85.7765C80.0759 73.4808 99.7491 62.4146 120.652 54.4224C123.111 53.1928 126.185 52.578 128.644 51.3485C129.259 51.3485 129.874 51.3485 129.874 51.9633C130.488 56.2668 131.103 59.9555 131.718 64.259C131.718 65.4886 131.103 66.1033 130.488 66.1033C128.644 66.7181 126.8 67.3329 124.955 68.5625C107.127 75.3251 90.5273 83.9321 74.5428 94.3835C59.788 104.22 46.2627 114.671 33.9669 127.582C26.5895 135.574 20.4417 144.181 16.1382 154.018C14.2938 158.321 13.679 162.625 14.2938 167.543C14.9086 171.232 17.3677 174.306 21.0564 176.15C25.3599 177.994 29.6634 179.224 33.9669 179.224C47.4922 179.839 61.0175 177.38 73.928 173.691C74.5428 173.691 75.7724 173.076 76.3872 173.076C79.4611 171.232 82.5351 171.847 85.609 173.076C89.9125 174.92 94.8308 176.765 99.7491 178.609C100.979 179.839 101.593 180.454 102.208 180.454Z" fill="#EC5E27"/>
<path d="M174.138 195.823C166.761 195.208 158.769 195.208 150.776 193.364C149.547 193.364 149.547 193.979 148.932 194.594C147.702 197.668 146.473 200.742 145.243 203.815C141.555 212.422 137.251 220.415 131.103 227.177C127.414 231.481 123.111 235.17 117.578 237.629C108.971 241.317 100.979 240.703 92.9864 235.784C85.609 231.481 80.0759 224.718 75.7724 217.341C72.6985 212.422 70.2393 206.889 68.395 200.742C67.7802 199.512 67.7802 198.897 69.0098 198.897C72.6985 197.053 76.3872 195.823 80.0759 193.979C81.3055 193.364 81.3055 193.979 81.9203 194.594C84.3794 200.127 86.8386 205.66 89.9125 210.578C92.3716 214.882 96.0604 219.185 100.364 222.259C104.053 225.333 110.815 225.333 115.119 222.874C119.422 219.8 122.496 216.111 125.57 211.808C129.874 205.045 132.948 198.282 135.407 190.905C136.021 189.675 135.407 189.061 134.177 188.446C125.57 185.372 116.963 182.298 108.356 178.609C92.9864 171.847 78.2315 163.854 64.0915 154.018C55.4845 148.485 47.4922 142.337 39.5 135.574C38.8852 134.959 37.6556 133.73 37.0409 133.115C36.4261 132.5 36.4261 132.5 37.0409 131.885C40.7296 130.041 44.4183 127.582 48.107 125.738C48.7218 125.123 49.3366 125.123 50.5662 125.738C54.8697 129.426 59.1732 132.5 64.0915 136.189C74.5428 144.181 85.609 150.944 97.2899 157.092C110.2 163.854 123.111 169.387 136.636 173.691C146.473 176.765 156.924 179.224 167.376 180.454C174.753 181.068 181.516 181.068 188.278 179.224C190.123 178.609 191.967 177.994 193.811 177.38C198.73 174.306 201.189 169.387 199.959 163.24C198.73 155.862 195.041 149.714 191.352 143.566C189.508 140.492 187.049 137.419 184.59 134.345C183.975 133.115 183.975 133.115 185.204 132.5C188.893 130.041 191.967 128.197 195.656 126.352C196.271 126.352 196.885 125.738 196.885 126.352C204.263 135.574 211.025 146.026 214.099 157.706C215.329 162.625 215.329 168.158 214.714 173.076C213.485 180.454 208.566 185.372 203.033 189.675C197.5 193.364 191.967 195.208 185.204 195.823C181.516 195.208 177.827 195.823 174.138 195.823Z" fill="#EC5E27"/>
<path d="M107.741 142.337C95.4456 142.337 85.609 132.5 85.609 120.205C85.609 105.45 97.9047 97.4574 107.127 97.4574C120.037 97.4574 129.874 107.294 129.874 119.59C129.874 132.5 120.037 142.337 107.741 142.337Z" fill="#3F3C98"/>
</svg>
