<svg class="line" width="48" height="54" viewBox="0 0 48 54" fill="none" xmlns="http://www.w3.org/2000/svg">
<path d="M12.7764 18.9793C12.9134 17.8832 13.0504 16.7871 13.1874 15.828C13.7355 13.3618 14.2835 10.7585 15.2426 8.42934C15.9277 6.64818 16.7498 5.00403 17.9829 3.4969C18.942 2.26379 20.0381 1.16769 21.5452 0.482625C23.8744 -0.476461 26.0666 0.0715882 27.9848 1.44171C29.4919 2.67482 30.588 4.31897 31.5471 5.96312C32.2321 7.19623 32.7802 8.56635 33.3283 9.93647C33.4653 10.3475 33.4653 10.3475 33.8763 10.2105C35.9315 9.79946 38.1237 9.52544 40.3159 9.66245C41.96 9.79946 43.4672 10.0735 44.8373 10.8956C47.0295 12.1287 48.1256 14.0468 47.9886 16.6501C47.8516 18.7053 47.1665 20.3494 46.2074 22.1306C44.5633 24.8708 42.5081 27.2 40.1789 29.2552C39.0828 30.2143 37.9867 31.1734 36.8906 31.9955C36.7536 32.1325 36.6165 32.1325 36.4795 32.2695C36.4795 31.8584 36.6165 31.3104 36.6165 30.8994C36.7536 29.8033 36.8906 28.7072 37.0276 27.7481C37.0276 27.6111 37.1646 27.474 37.3016 27.337C38.6717 26.1039 40.0418 24.7338 41.1379 23.3637C42.3711 21.8565 43.6042 20.2124 44.2892 18.4312C44.5633 17.6092 44.7003 16.6501 44.5633 15.828C44.4262 14.8689 43.8782 14.1839 42.9191 13.7728C42.097 13.3618 41.275 13.2248 40.3159 13.0878C38.3977 12.9507 36.4795 13.0878 34.5614 13.4988C34.2873 13.4988 34.4243 13.6358 34.4243 13.7728C34.6984 14.8689 34.8354 16.102 35.1094 17.1981C35.3834 19.2533 35.6575 21.3085 35.6575 23.2267C35.7945 25.4189 35.7945 27.4741 35.6575 29.6662C35.5204 32.4065 35.2464 35.0097 34.6984 37.613C34.6984 37.887 34.5614 37.887 34.2873 37.887C33.3282 37.887 32.3692 37.75 31.4101 37.75C31.1361 37.75 31.2731 37.613 31.2731 37.4759C31.4101 36.6539 31.5471 35.9688 31.6841 35.1467C32.0951 32.8175 32.2321 30.4883 32.2321 28.1591C32.2321 26.1039 32.2322 24.0487 32.0951 21.8565C31.8211 19.1163 31.5471 16.239 30.862 13.6358C30.314 11.3066 29.4919 8.97739 28.3958 6.9222C27.7107 5.68909 27.0257 4.593 25.9296 3.77092C24.6965 2.81184 23.3263 2.81184 22.0932 3.77092C20.9971 4.593 20.1751 5.68909 19.627 6.9222C18.3939 9.25141 17.5718 11.7176 17.0238 14.3209C16.8868 15.0059 16.6127 15.554 15.9277 16.102C14.8316 17.1981 13.8725 18.1572 12.7764 18.9793Z" fill="#777777"/>
<path d="M22.7783 40.2158C22.3673 40.4898 21.9562 40.6268 21.5452 40.7639C19.216 41.5859 16.7498 42.408 14.2835 42.9561C11.5433 43.5041 8.66603 43.7781 5.92579 43.2301C4.28164 42.9561 2.7745 42.271 1.6784 41.0379C0.445291 39.8048 0.0342528 38.2976 0.0342528 36.6535C0.0342528 34.5983 0.856331 32.6801 1.81542 30.899C2.63749 29.3918 3.73359 28.1587 4.82968 26.7886C4.9667 26.5146 4.9667 26.5146 4.82968 26.2405C3.18554 24.4594 1.81542 22.4042 0.85633 20.212C0.171268 18.5679 -0.102759 16.9237 0.0342528 15.2796C0.308277 13.4984 1.26736 11.9913 2.7745 11.1692C4.41865 10.0731 6.47383 9.79907 8.39201 9.79907C10.0362 9.79907 11.8173 9.93608 13.4615 10.2101C13.5985 10.2101 13.7355 10.3471 13.5985 10.4841C13.1874 11.3062 12.7764 12.1283 12.3654 12.9504C12.2283 13.2244 12.0913 13.3614 11.8173 13.2244C11.1323 13.2244 10.4472 13.0874 9.76213 13.0874C8.25499 12.9504 6.74786 13.0874 5.24072 13.6354C4.28164 14.0465 3.45956 14.7315 3.32255 15.8276C3.18554 16.7867 3.32255 17.6088 3.73359 18.5679C4.55566 20.623 5.78877 22.4042 7.29591 24.0484C7.43292 24.1854 7.56993 24.0484 7.56993 24.0484C9.4881 22.2672 11.5433 20.623 13.7355 19.1159C17.8459 16.3757 22.2302 13.9094 26.8887 12.1283C27.4367 11.8543 28.1218 11.7172 28.6698 11.4432C28.8068 11.4432 28.9438 11.4432 28.9438 11.5802C29.0809 12.5393 29.2179 13.3614 29.3549 14.3205C29.3549 14.5945 29.2179 14.7315 29.0809 14.7315C28.6698 14.8685 28.2588 15.0055 27.8478 15.2796C23.8744 16.7867 20.1751 18.7049 16.6127 21.0341C13.3244 23.2263 10.3102 25.5555 7.56993 28.4327C5.92578 30.2139 4.55566 32.1321 3.59658 34.3243C3.18554 35.2834 3.04853 36.2424 3.18554 37.3385C3.32255 38.1606 3.8706 38.8457 4.69267 39.2567C5.65176 39.6678 6.61084 39.9418 7.56993 39.9418C10.5842 40.0788 13.5985 39.5307 16.4757 38.7087C16.6127 38.7087 16.8868 38.5717 17.0238 38.5717C17.7088 38.1606 18.3939 38.2976 19.079 38.5717C20.0381 38.9827 21.1342 39.3937 22.2303 39.8048C22.5043 40.0788 22.6413 40.2158 22.7783 40.2158Z" fill="#777777"/>
<path d="M38.8087 43.6416C37.1646 43.5046 35.3834 43.5046 33.6023 43.0935C33.3282 43.0935 33.3283 43.2306 33.1912 43.3676C32.9172 44.0526 32.6432 44.7377 32.3692 45.4228C31.5471 47.3409 30.588 49.1221 29.2179 50.6292C28.3958 51.5883 27.4367 52.4104 26.2036 52.9584C24.2854 53.7805 22.5043 53.6435 20.7231 52.5474C19.079 51.5883 17.8459 50.0812 16.8868 48.437C16.2017 47.3409 15.6537 46.1078 15.2426 44.7377C15.1056 44.4637 15.1056 44.3267 15.3796 44.3267C16.2017 43.9156 17.0238 43.6416 17.8459 43.2306C18.1199 43.0935 18.1199 43.2306 18.2569 43.3676C18.8049 44.6007 19.353 45.8338 20.0381 46.9299C20.5861 47.889 21.4082 48.8481 22.3673 49.5331C23.1893 50.2182 24.6965 50.2182 25.6556 49.6701C26.6146 48.9851 27.2997 48.163 27.9848 47.2039C28.9439 45.6968 29.6289 44.1896 30.177 42.5455C30.314 42.2715 30.177 42.1345 29.9029 41.9974C27.9848 41.3124 26.0666 40.6273 24.1484 39.8053C20.7231 38.2981 17.4348 36.517 14.2835 34.3248C12.3654 33.0917 10.5842 31.7215 8.80305 30.2144C8.66604 30.0774 8.39201 29.8034 8.255 29.6663C8.11798 29.5293 8.11798 29.5293 8.255 29.3923C9.07707 28.9813 9.89915 28.4332 10.7212 28.0222C10.8582 27.8852 10.9952 27.8852 11.2693 28.0222C12.2284 28.8443 13.1874 29.5293 14.2835 30.3514C16.6127 32.1326 19.079 33.6397 21.6822 35.0098C24.5595 36.517 27.4367 37.7501 30.451 38.7092C32.6432 39.3942 34.9724 39.9423 37.3016 40.2163C38.9458 40.3533 40.4529 40.3533 41.96 39.9423C42.3711 39.8053 42.7821 39.6682 43.1931 39.5312C44.2892 38.8462 44.8373 37.7501 44.5633 36.3799C44.2892 34.7358 43.4672 33.3657 42.6451 31.9956C42.234 31.3105 41.686 30.6254 41.1379 29.9404C41.0009 29.6663 41.0009 29.6663 41.275 29.5293C42.097 28.9813 42.7821 28.5702 43.6042 28.1592C43.7412 28.1592 43.8782 28.0222 43.8782 28.1592C45.5223 30.2144 47.0295 32.5436 47.7145 35.1468C47.9886 36.2429 47.9886 37.476 47.8516 38.5721C47.5775 40.2163 46.4814 41.3124 45.2483 42.2715C44.0152 43.0935 42.7821 43.5046 41.275 43.6416C40.4529 43.5046 39.6308 43.6416 38.8087 43.6416Z" fill="#777777"/>
<path d="M24.0114 31.7214C21.2712 31.7214 19.079 29.5292 19.079 26.7889C19.079 23.5006 21.8192 21.7195 23.8744 21.7195C26.7517 21.7195 28.9439 23.9117 28.9439 26.6519C28.9439 29.5292 26.7517 31.7214 24.0114 31.7214Z" fill="#262626"/>
</svg>