<svg width="43" height="48" viewBox="0 0 43 48" fill="none" xmlns="http://www.w3.org/2000/svg">
<path d="M34.5762 33.9661H31.9322V31.3221C31.9322 30.4068 31.2203 29.7966 30.4067 29.6949C29.4915 29.6949 28.7796 30.4068 28.7796 31.3221V33.9661H26.1355C25.7288 33.9661 25.322 34.1695 25.0169 34.4746C24.7118 34.7797 24.5084 35.1865 24.5084 35.5933C24.5084 36 24.7118 36.4068 25.0169 36.7119C25.322 37.017 25.7288 37.2204 26.1355 37.2204H28.7796V39.8644C28.7796 40.7797 29.4915 41.4916 30.4067 41.4916C31.322 41.4916 32.0338 40.7797 31.9322 39.8644V37.2204H34.5762C34.983 37.2204 35.3898 37.017 35.6949 36.7119C35.9999 36.4068 36.2033 36 36.2033 35.5933C36.2033 35.1865 35.9999 34.7797 35.6949 34.4746C35.3898 34.1695 34.983 33.9661 34.5762 33.9661Z" fill="#262626"/>
<path d="M15.661 38.4407H3.15254V34.7797C3.15254 27.0508 9.45763 20.7458 17.1864 20.7458C19.6271 20.7458 22.0678 21.3559 24.1017 22.5763C24.5085 22.7797 24.9153 22.8814 25.322 22.7797C25.7288 22.678 26.0339 22.3729 26.2373 22.0678C26.6441 21.3559 26.4407 20.339 25.6271 19.9322C24.9153 19.5254 24.1017 19.1186 23.2881 18.8136C25.9322 16.8814 27.5593 13.7288 27.5593 10.4746C27.5593 4.67797 22.8814 0 17.1864 0C11.4915 0 6.71186 4.67797 6.71186 10.3729C6.71186 13.7288 8.23729 16.7797 10.9831 18.7119C4.37288 21.3559 0 27.661 0 34.7797V39.9661C0 40.3729 0.20339 40.7797 0.508475 41.0847C0.813559 41.3898 1.22034 41.5932 1.62712 41.5932H15.7627C16.1695 41.5932 16.5763 41.3898 16.8814 41.0847C17.1864 40.7797 17.3898 40.3729 17.3898 39.9661C17.2881 39.1525 16.5763 38.4407 15.661 38.4407ZM9.9661 10.3729C9.9661 6.40678 13.2203 3.15254 17.1864 3.15254C21.1525 3.15254 24.4068 6.40678 24.4068 10.3729C24.4068 14.339 21.1525 17.5932 17.1864 17.5932C13.2203 17.5932 9.9661 14.4407 9.9661 10.3729Z" fill="#262626"/>
<path d="M30.4068 23.1864C23.4915 23.1864 18 28.7796 18 35.5932C18 42.4067 23.5932 48 30.4068 48C37.2203 48 42.8136 42.4067 42.8136 35.5932C42.8136 28.7796 37.2203 23.1864 30.4068 23.1864ZM39.661 35.5932C39.661 40.6779 35.4915 44.8474 30.4068 44.8474C27.7627 44.8474 25.322 43.7288 23.4915 41.7966L23.2881 41.6949C22.0678 40.2711 21.3559 38.644 21.1525 36.8135V36.6101C21.1525 36.305 21.1525 36 21.1525 35.6949V35.4915C21.1525 35.1864 21.1525 34.8813 21.2542 34.5762V34.3728C21.9661 29.7966 25.8305 26.5423 30.4068 26.5423C35.4915 26.3389 39.661 30.5084 39.661 35.5932Z" fill="#262626"/>
</svg>
