<svg width="47" height="50" viewBox="0 0 47 50" fill="none" xmlns="http://www.w3.org/2000/svg">
<path d="M38.8981 18.63C37.1417 18.6423 35.4491 19.29 34.1332 20.4534C32.8172 21.6167 31.9669 23.2172 31.7394 24.9588C31.5119 26.7005 31.9225 28.4657 32.8955 29.928C33.8684 31.3904 35.3378 32.4512 37.0322 32.9142V35.1019C37.0322 36.42 36.7725 37.7253 36.2681 38.9431C35.7637 40.1609 35.0243 41.2674 34.0922 42.1995C33.1602 43.1316 32.0536 43.8709 30.8358 44.3753C29.618 44.8798 28.3128 45.1394 26.9946 45.1394C25.6765 45.1394 24.3713 44.8798 23.1534 44.3753C21.9356 43.8709 20.8291 43.1316 19.897 42.1995C18.965 41.2674 18.2256 40.1609 17.7212 38.9431C17.2167 37.7253 16.9571 36.42 16.9571 35.1019V25.5791C20.2997 25.0989 23.3569 23.4289 25.5672 20.8758C27.7776 18.3227 28.9926 15.0579 28.9893 11.681V2.93029C28.9893 2.41835 28.7859 1.92737 28.4239 1.56537C28.0619 1.20337 27.5709 1 27.059 1H20.8177V4.86059H25.1287V11.681C24.9255 14.2292 23.7697 16.6074 21.8916 18.3417C20.0135 20.076 17.551 21.039 14.9946 21.039C12.4383 21.039 9.97576 20.076 8.09767 18.3417C6.21958 16.6074 5.0638 14.2292 4.86059 11.681V4.86059H9.17158V1H2.9303C2.41835 1 1.92737 1.20337 1.56537 1.56537C1.20337 1.92737 1 2.41835 1 2.93029V11.681C0.99885 15.0675 2.22296 18.3402 4.44632 20.8947C6.66968 23.4492 9.74217 25.113 13.0965 25.5791V35.1019C13.0965 38.7879 14.5608 42.3229 17.1672 44.9293C19.7736 47.5357 23.3086 49 26.9946 49C30.6806 49 34.2157 47.5357 36.8221 44.9293C39.4285 42.3229 40.8928 38.7879 40.8928 35.1019V32.9142C42.598 32.4484 44.0751 31.3774 45.0479 29.9014C46.0206 28.4254 46.4223 26.6456 46.1778 24.8948C45.9334 23.1441 45.0595 21.5424 43.7196 20.3894C42.3798 19.2363 40.6657 18.6109 38.8981 18.63ZM38.8981 29.311C38.2237 29.311 37.5643 29.111 37.0035 28.7363C36.4427 28.3616 36.0056 27.829 35.7475 27.2058C35.4894 26.5827 35.4219 25.897 35.5535 25.2355C35.685 24.574 36.0098 23.9664 36.4868 23.4894C36.9637 23.0125 37.5713 22.6877 38.2328 22.5561C38.8943 22.4246 39.58 22.4921 40.2031 22.7502C40.8263 23.0083 41.3589 23.4454 41.7336 24.0062C42.1083 24.567 42.3083 25.2263 42.3083 25.9008C42.3083 26.8052 41.949 27.6726 41.3095 28.3122C40.67 28.9517 39.8026 29.311 38.8981 29.311Z" fill="#262626" stroke="white" stroke-width="0.8"/>
</svg>
