<svg width="84" height="84" viewBox="0 0 84 84" fill="none" xmlns="http://www.w3.org/2000/svg">
<path fill-rule="evenodd" clip-rule="evenodd" d="M12.191 12.3643C20.442 4.11335 30.3602 0 42 0C53.6395 0 63.4972 4.11298 71.6308 12.3596L71.6405 12.3691C79.8871 20.5028 84 30.3605 84 42C84 53.6399 79.8867 63.558 71.6357 71.809C63.5031 79.9416 53.6439 84 42 84C30.3581 84 20.4401 79.9428 12.1911 71.8091C4.05729 63.56 0 53.642 0 42C0 30.3561 4.05844 20.4969 12.191 12.3643ZM42 3.57447C31.3379 3.57447 22.2456 7.37682 14.7804 14.9591C7.31763 22.4232 3.57447 31.4551 3.57447 42C3.57447 52.6584 7.31621 61.75 14.7831 69.2169L14.7886 69.2224C22.3667 76.682 31.4543 80.4256 42 80.4256C52.6584 80.4256 61.75 76.6838 69.2169 69.2169L69.2224 69.2114C76.682 61.6333 80.4256 52.5458 80.4256 42C80.4256 31.338 76.6232 22.2457 69.041 14.7806C61.5769 7.31767 52.5449 3.57447 42 3.57447ZM33.8484 56.9194L62.7818 27.986C63.1766 27.641 63.4295 27.5933 63.5651 27.6012C63.7031 27.6094 63.9548 27.6889 64.316 28.0953L64.3546 28.1387L65.9118 29.5229C66.2491 29.9148 66.3203 30.1835 66.3203 30.3435C66.3203 30.4952 66.2566 30.7347 65.9177 31.0742L65.9157 31.0762L34.5242 62.1209L34.5031 62.1446C34.1477 62.5444 33.9179 62.5937 33.8101 62.5937C33.6861 62.5937 33.4175 62.5287 32.9924 62.1041L32.9907 62.1025L18.0883 47.0267L18.0843 47.0227C17.7437 46.6821 17.6798 46.4419 17.6798 46.29C17.6798 46.1299 17.7509 45.8612 18.0882 45.4693L19.6238 44.1044L19.6442 44.0839C19.9848 43.7433 20.225 43.6794 20.377 43.6794C20.5394 43.6794 20.8139 43.7527 21.2156 44.1035L33.8484 56.9194Z" fill="#262626"/>
</svg>
