<svg width="35" height="34" viewBox="0 0 35 34" fill="none" xmlns="http://www.w3.org/2000/svg">
<g clip-path="url(#clip0_2665_4413)">
<path d="M0 21.0307C0 17.9816 0 14.9533 0 11.9042C0 10.5885 0.563882 9.58599 1.64988 8.85504C2.19287 8.5 2.79853 8.27027 3.42506 8.08231C3.80098 7.957 4.15602 7.8317 4.49017 7.60197C4.78256 7.39312 4.97052 7.12162 4.92875 6.7457C4.90786 6.57862 4.97052 6.39066 4.90786 6.28624C4.84521 6.16093 4.63636 6.24447 4.49017 6.22359C3.40418 6.03563 2.67322 5.2629 2.61056 4.11425C2.5688 3.40418 2.54791 2.6941 2.63145 1.98403C2.73587 0.939803 3.59214 0.104423 4.65725 0.0208845C4.69902 0 4.80344 0 4.88698 0C8.47912 0 12.0921 0 15.6843 0C16.7703 0 17.6265 0.605651 17.898 1.60811C17.9398 1.7543 17.9816 1.90049 17.9816 2.04668C17.9816 2.86118 18.086 3.69656 17.9189 4.49017C17.7101 5.51351 16.8329 6.2027 15.7887 6.22359C15.7469 6.22359 15.6843 6.18182 15.6425 6.26536C15.5381 6.53685 15.6843 7.22604 15.914 7.45577C16.1228 7.64373 16.3526 7.78993 16.6032 7.89435C17.0418 8.06142 17.5012 8.20762 17.9398 8.37469C18.6708 8.66708 19.3391 9.06388 19.8403 9.69042C20.3415 10.2961 20.5713 11.0061 20.5713 11.7998C20.5713 13.6794 20.5713 15.559 20.5713 17.4386C20.5713 19.527 20.5713 21.5946 20.5713 23.683C20.5713 23.8501 20.613 23.8919 20.7801 23.8919C23.0147 23.8919 25.2703 23.8919 27.5049 23.8919C29.3428 23.8919 30.8256 25.1032 31.2015 26.8784C31.6609 29.113 29.9275 31.285 27.6511 31.285C25.2912 31.285 22.9312 31.285 20.5713 31.285C20.4459 31.285 20.4251 31.3268 20.4042 31.4312C19.9238 32.8305 18.984 33.6867 17.543 33.9791C17.2924 34.0418 17.0418 34.0418 16.7912 34.0418C12.4681 34.0418 8.14496 34.0418 3.82187 34.0418C1.62899 34 0 32.3919 0 30.199C0 28.5909 0 26.9619 0 25.3538C0 23.9128 0 22.4717 0 21.0307ZM10.2752 26.6486C13.0319 26.6486 15.7887 26.6486 18.5246 26.6486C18.7125 26.6486 18.7543 26.6069 18.7543 26.4189C18.7543 22.8059 18.7543 19.2138 18.7543 15.6007C18.7543 15.4337 18.7334 15.371 18.5455 15.371C13.0528 15.371 7.53931 15.371 2.04668 15.371C1.87961 15.371 1.83784 15.4128 1.83784 15.5799C1.83784 19.1929 1.83784 22.8059 1.83784 26.4189C1.83784 26.6069 1.90049 26.6486 2.06757 26.6486C4.78256 26.6486 7.53931 26.6486 10.2752 26.6486ZM10.2752 13.5541C13.0319 13.5541 15.7887 13.5541 18.5455 13.5541C18.6916 13.5541 18.7543 13.5332 18.7543 13.3452C18.7334 12.844 18.7334 12.3636 18.7543 11.8624C18.7752 11.1941 18.4828 10.7138 17.9398 10.3796C17.5221 10.129 17.0627 9.94103 16.6032 9.79484C16.102 9.62776 15.6007 9.4398 15.1622 9.14742C14.5356 8.72973 14.0971 8.18673 13.9091 7.45577C13.8256 7.12162 13.8256 6.78747 13.8464 6.45332C13.8464 6.28624 13.8047 6.22359 13.6167 6.22359C11.4865 6.22359 9.35626 6.22359 7.22604 6.22359C6.76658 6.22359 6.7457 6.22359 6.76658 6.70393C6.78747 7.51843 6.51597 8.20762 5.9312 8.7715C5.38821 9.29361 4.74079 9.58599 4.03071 9.81572C3.46683 9.9828 2.92383 10.1916 2.46437 10.5676C2.06757 10.8808 1.85872 11.2985 1.85872 11.7998C1.85872 12.3219 1.85872 12.844 1.85872 13.3661C1.81695 13.5332 1.87961 13.5749 2.04668 13.5749C4.78256 13.5541 7.51843 13.5541 10.2752 13.5541ZM10.317 28.4656C7.5602 28.4656 4.80344 28.4656 2.04668 28.4656C1.87961 28.4656 1.83784 28.5074 1.83784 28.6744C1.85872 29.1757 1.83784 29.656 1.83784 30.1572C1.83784 31.3685 2.63145 32.183 3.86364 32.183C5.99386 32.183 8.14496 32.183 10.2752 32.183C12.4472 32.183 14.64 32.183 16.812 32.183C17.8145 32.183 18.6081 31.5147 18.7334 30.5123C18.817 29.9066 18.7334 29.2801 18.7752 28.6744C18.7752 28.4865 18.7334 28.4447 18.5455 28.4447C15.7887 28.4656 13.0528 28.4656 10.317 28.4656ZM10.2752 4.38575C12.0921 4.38575 13.8882 4.38575 15.7052 4.38575C16.0393 4.38575 16.1646 4.23956 16.1855 3.92629C16.1855 3.38329 16.1855 2.84029 16.1855 2.2973C16.1855 1.96314 16.0393 1.81695 15.7052 1.81695C12.0921 1.81695 8.5 1.81695 4.88698 1.81695C4.55283 1.81695 4.40663 1.96314 4.40663 2.2973C4.40663 2.84029 4.40663 3.36241 4.40663 3.90541C4.40663 4.26044 4.55283 4.38575 4.90786 4.38575C6.68305 4.38575 8.47912 4.38575 10.2752 4.38575ZM24.957 27.5467C24.957 28.1314 24.957 28.6953 24.957 29.2801C24.957 29.3636 24.9152 29.4472 25.0614 29.4472C25.9803 29.4472 26.8993 29.4681 27.7973 29.4263C28.8415 29.3636 29.6142 28.2985 29.4263 27.2752C29.2383 26.3145 28.5074 25.7088 27.5049 25.688C26.7113 25.6671 25.9177 25.688 25.1032 25.688C24.9779 25.688 24.9361 25.7297 24.957 25.855C24.957 26.398 24.957 26.9619 24.957 27.5467ZM20.5713 27.5467C20.5713 28.1314 20.5713 28.6953 20.5713 29.2801C20.5713 29.4054 20.5921 29.4472 20.7383 29.4472C21.4902 29.4472 22.2211 29.4472 22.973 29.4472C23.1192 29.4472 23.14 29.4054 23.14 29.2801C23.14 28.1314 23.14 26.9828 23.14 25.8342C23.14 25.7088 23.0983 25.6671 22.973 25.6671C22.2211 25.6671 21.4902 25.6671 20.7383 25.6671C20.613 25.6671 20.5713 25.7088 20.5713 25.8342C20.5713 26.398 20.5713 26.9619 20.5713 27.5467Z" fill="#262626"/>
<path d="M30.9719 11.4866C33.2483 11.4866 35.0026 13.5124 34.6476 15.747C34.4596 16.8957 33.8331 17.7519 32.8933 18.3785C31.0346 19.6315 29.1759 20.9055 27.338 22.1794C25.6881 23.3281 23.6206 22.9731 22.451 21.72C20.9056 20.0701 21.1771 17.4178 23.0776 16.1229C24.999 14.7863 26.9412 13.4706 28.8626 12.1549C29.4891 11.7163 30.1992 11.4866 30.9719 11.4866ZM25.166 21.0726C25.542 21.0726 25.8761 20.9681 26.1894 20.7593C26.8786 20.279 27.5678 19.8195 28.2569 19.3392C28.3405 19.2765 28.3614 19.2347 28.2987 19.1303C27.6513 18.1905 26.983 17.2298 26.3356 16.2691C26.252 16.1438 26.2103 16.1647 26.1058 16.2274C25.4375 16.7077 24.7483 17.1672 24.08 17.6266C23.3909 18.107 23.0985 18.9632 23.3491 19.736C23.5997 20.5296 24.3307 21.0726 25.166 21.0726ZM30.9093 13.3035C30.6378 13.3035 30.3036 13.3871 30.0112 13.575C29.3012 14.0554 28.5911 14.5566 27.8601 15.0369C27.7557 15.0996 27.7557 15.1622 27.8184 15.2458C27.9437 15.4337 28.069 15.6217 28.1943 15.8097C28.7164 16.5615 29.2385 17.3342 29.7606 18.0861C29.8024 18.1487 29.8233 18.2532 29.9486 18.1696C30.6795 17.6475 31.4314 17.1672 32.1623 16.6242C32.7889 16.1647 32.9977 15.2876 32.7262 14.5566C32.4756 13.7839 31.7864 13.3035 30.9093 13.3035Z" fill="#262626"/>
<path d="M5.59706 21.0098C5.59706 20.5086 5.59706 20.0074 5.59706 19.5061C5.59706 18.9631 5.88944 18.6499 6.43244 18.629C6.85013 18.6081 7.2887 18.6081 7.70639 18.6081C7.85258 18.6081 7.89435 18.5872 7.89435 18.4201C7.87347 18.0233 7.89435 17.6056 7.89435 17.2088C7.89435 16.6449 8.24939 16.3108 8.79239 16.3108C9.79484 16.3108 10.7764 16.3108 11.7789 16.3108C12.2801 16.3108 12.6978 16.6867 12.6769 17.2088C12.656 17.6265 12.6769 18.0233 12.6769 18.441C12.6769 18.5872 12.7187 18.6081 12.844 18.6081C13.2408 18.6081 13.6585 18.6081 14.0553 18.6081C14.6401 18.6081 14.9742 18.9422 14.9742 19.5061C14.9742 20.4877 14.9742 21.4902 14.9742 22.4717C14.9742 23.0356 14.6401 23.3698 14.0553 23.3698C13.6376 23.3698 13.2408 23.3698 12.8231 23.3698C12.6978 23.3698 12.6769 23.3906 12.6769 23.516C12.6769 23.9336 12.6769 24.3722 12.6769 24.7899C12.6769 25.3329 12.3219 25.6879 11.7789 25.6879C10.7764 25.6879 9.77396 25.6879 8.7715 25.6879C8.22851 25.6879 7.87347 25.3329 7.87347 24.769C7.87347 24.3513 7.87347 23.9545 7.87347 23.5368C7.87347 23.4115 7.85258 23.3698 7.72728 23.3698C7.2887 23.3698 6.85013 23.3698 6.39067 23.3698C5.93121 23.3698 5.59706 23.0356 5.57617 22.5553C5.59706 22.054 5.59706 21.5319 5.59706 21.0098ZM9.56511 18.8378C9.56511 19.0049 9.56511 19.172 9.56511 19.3599C9.56511 19.9865 9.23096 20.3206 8.60443 20.3206C8.20762 20.3206 7.81082 20.3206 7.41401 20.3206C7.2887 20.3206 7.26782 20.3415 7.26782 20.4668C7.26782 20.8427 7.26782 21.1978 7.26782 21.5737C7.26782 21.699 7.2887 21.7408 7.43489 21.7408C7.8317 21.7408 8.24939 21.7408 8.6462 21.7408C9.23096 21.7408 9.56511 22.0749 9.56511 22.6597C9.56511 23.0774 9.56511 23.4742 9.56511 23.8919C9.56511 23.9963 9.586 24.0589 9.71131 24.0589C10.0872 24.0589 10.484 24.0589 10.86 24.0589C10.9644 24.0589 11.0061 24.0172 11.0061 23.9128C11.0061 23.4951 11.0061 23.0983 11.0061 22.6806C11.0061 22.0749 11.3403 21.7408 11.946 21.7408C12.3428 21.7408 12.7604 21.7408 13.1573 21.7408C13.2617 21.7408 13.3034 21.7199 13.3034 21.5946C13.3034 21.2187 13.3034 20.8427 13.3034 20.4668C13.3034 20.3415 13.2826 20.2997 13.1364 20.2997C12.7187 20.2997 12.3219 20.2997 11.9042 20.2997C11.3403 20.2997 11.0061 19.9447 11.0061 19.4017C11.0061 18.984 11.0061 18.5454 11.0061 18.1277C11.0061 18.0233 10.9853 17.9816 10.8808 17.9816C10.5049 17.9816 10.1081 17.9816 9.73219 17.9816C9.60688 17.9816 9.586 18.0233 9.586 18.1277C9.586 18.3784 9.56511 18.6081 9.56511 18.8378Z" fill="#262626"/>
</g>
<defs>
<clipPath id="clip0_2665_4413">
<rect width="34.6892" height="34" fill="white"/>
</clipPath>
</defs>
</svg>
