<svg width="39" height="34" viewBox="0 0 39 34" fill="none" xmlns="http://www.w3.org/2000/svg">
<path fill-rule="evenodd" clip-rule="evenodd" d="M18.1666 0C14.7776 0 12.0244 2.75322 12.0244 6.14222C12.0244 7.3104 12.4637 8.58895 13.2947 9.95689C14.1268 11.3267 15.3641 12.8067 16.9924 14.3846C19.4427 16.7678 21.8917 18.4793 22.0042 18.5544C22.1416 18.6459 22.3744 18.7459 22.5964 18.7459C22.7556 18.7459 23.0236 18.7114 23.2199 18.5315C23.2417 18.5154 23.2725 18.4928 23.3116 18.4642C23.8674 18.0569 26.1095 16.4138 28.267 14.318L28.268 14.317C29.8625 12.7561 31.0829 11.293 31.9065 9.93596C32.7289 8.58077 33.1683 7.31054 33.1683 6.14222L33.1683 6.13861C33.133 2.75442 30.3838 0 27.0261 0C25.3617 0 23.7263 0.693241 22.5929 1.89147C21.4354 0.69553 19.8034 0 18.1666 0ZM15.2812 3.29007C16.0507 2.52053 17.0623 2.09274 18.1333 2.09274C19.6068 2.09274 20.9565 2.89119 21.661 4.14706L21.661 4.14707L21.6623 4.14945C21.858 4.49187 22.2068 4.69063 22.5964 4.69063C23.0044 4.69063 23.3111 4.47504 23.4971 4.14945L23.4972 4.14948L23.5002 4.14396C24.2027 2.86111 25.5485 2.09274 27.0261 2.09274C29.2342 2.09274 31.0756 3.90418 31.0756 6.14222C31.0756 7.03528 30.6648 8.05832 29.976 9.13436C29.2915 10.2038 28.3563 11.2888 27.3619 12.2976C25.5271 14.1591 23.5204 15.7317 22.5965 16.4322C21.6721 15.73 19.6572 14.1423 17.8142 12.2726C16.8154 11.2594 15.8758 10.172 15.188 9.1053C14.4955 8.03129 14.0839 7.01724 14.0839 6.14222C14.0839 5.07124 14.5116 4.05961 15.2812 3.29007Z" fill="#262626"/>
<path fill-rule="evenodd" clip-rule="evenodd" d="M4.57683 17.3196H1.70461L1.69674 17.3199C0.782765 17.3615 0 18.1431 0 19.0987V31.3554C0 32.313 0.788148 33.1012 1.7458 33.1012H4.61014C5.56779 33.1012 6.35594 32.313 6.35594 31.3554V31.2772C7.43202 31.323 9.52993 31.5932 12.3445 32.6778C14.582 33.5591 16.8894 34.0005 19.2316 34.0005C20.5214 34.0005 21.8117 33.8647 23.0685 33.5929L23.0695 33.5927C27.9652 32.5197 32.6318 30.7081 36.5322 28.3208L36.5401 28.3156C37.2759 27.8374 37.8309 27.0992 38.0531 26.2104L38.0543 26.2056L38.0554 26.2007C38.3877 24.6868 37.6872 23.1336 36.353 22.3924L36.3449 22.3882C35.496 21.9452 34.4952 21.8687 33.6004 22.2035L33.598 22.2044L26.7077 24.6762C26.7323 23.8386 26.4655 23.0397 25.9294 22.3775L25.924 22.3711C25.2934 21.6293 24.365 21.1831 23.3615 21.1831H19.065C18.2152 21.1831 17.3603 20.8794 16.6548 20.2966L16.65 20.2928C14.854 18.8626 11.1691 16.8765 6.32263 19.2002V19.0654C6.32263 18.1077 5.53448 17.3196 4.57683 17.3196ZM2.05944 31.0084V19.379H4.2965V31.0084H2.05944ZM6.32263 29.2153V21.4934C8.45061 20.2403 10.3003 20.0275 11.8032 20.2697C13.3534 20.5195 14.5639 21.2583 15.3485 21.8987L15.3512 21.9009C16.4074 22.7459 17.7484 23.2425 19.065 23.2425H23.3282C23.7353 23.2425 24.0915 23.4035 24.3163 23.7033L24.3262 23.7164L24.3372 23.7285C24.5932 24.0101 24.6992 24.3967 24.62 24.7926L24.6185 24.8002L24.6173 24.8079C24.5695 25.1191 24.3818 25.4219 24.053 25.6384C23.9975 25.659 23.9574 25.687 23.9361 25.703C23.9209 25.7144 23.9065 25.7266 23.8938 25.738C23.6706 25.8424 23.4118 25.9126 23.195 25.9126H15.5013C14.9433 25.9126 14.4882 26.3677 14.4882 26.9257C14.4882 27.4836 14.9433 27.9387 15.5013 27.9387H23.195C23.8055 27.9387 24.3887 27.7973 24.9051 27.5088L34.3028 24.1549C34.6791 24.0205 35.0764 24.0483 35.4205 24.2336L35.4251 24.2361L35.4298 24.2384C35.9501 24.4986 36.2401 25.0992 36.0819 25.7057L36.0806 25.7104L36.0795 25.7152C35.9987 26.0655 35.7848 26.3796 35.4767 26.5593L35.4703 26.5632C30.7852 29.4336 25.8968 30.8879 22.6234 31.5822L22.6213 31.5827C19.4953 32.2665 16.201 31.9749 13.0629 30.7658C9.95561 29.5354 7.62382 29.2551 6.32263 29.2153Z" fill="#262626"/>
</svg>
