<svg width="31" height="34" viewBox="0 0 31 34" fill="none" xmlns="http://www.w3.org/2000/svg">
<g clip-path="url(#clip0_2665_4408)">
<path d="M24.4917 24.0594H22.6188V22.1865C22.6188 21.5382 22.1146 21.106 21.5383 21.0339C20.89 21.0339 20.3858 21.5382 20.3858 22.1865V24.0594H18.5129C18.2248 24.0594 17.9366 24.2034 17.7205 24.4195C17.5044 24.6356 17.3604 24.9238 17.3604 25.2119C17.3604 25.5 17.5044 25.7882 17.7205 26.0043C17.9366 26.2204 18.2248 26.3644 18.5129 26.3644H20.3858V28.2373C20.3858 28.8856 20.89 29.3899 21.5383 29.3899C22.1866 29.3899 22.6909 28.8856 22.6188 28.2373V26.3644H24.4917C24.7798 26.3644 25.068 26.2204 25.2841 26.0043C25.5002 25.7882 25.6442 25.5 25.6442 25.2119C25.6442 24.9238 25.5002 24.6356 25.2841 24.4195C25.068 24.2034 24.7798 24.0594 24.4917 24.0594Z" fill="#262626"/>
<path d="M11.0932 27.2288H2.23305V24.6356C2.23305 19.161 6.69915 14.6949 12.1737 14.6949C13.9025 14.6949 15.6314 15.1271 17.072 15.9915C17.3602 16.1356 17.6483 16.2076 17.9364 16.1356C18.2246 16.0636 18.4407 15.8475 18.5847 15.6314C18.8729 15.1271 18.7288 14.4068 18.1525 14.1186C17.6483 13.8305 17.072 13.5424 16.4958 13.3263C18.3686 11.9576 19.5212 9.72458 19.5212 7.41949C19.5212 3.31356 16.2076 0 12.1737 0C8.13983 0 4.75424 3.31356 4.75424 7.34746C4.75424 9.72458 5.83475 11.8856 7.77966 13.2542C3.09746 15.1271 0 19.5932 0 24.6356V28.3093C0 28.5975 0.144068 28.8856 0.36017 29.1017C0.576271 29.3178 0.864407 29.4619 1.15254 29.4619H11.1653C11.4534 29.4619 11.7415 29.3178 11.9576 29.1017C12.1737 28.8856 12.3178 28.5975 12.3178 28.3093C12.2458 27.7331 11.7415 27.2288 11.0932 27.2288ZM7.05932 7.34746C7.05932 4.53814 9.36441 2.23305 12.1737 2.23305C14.9831 2.23305 17.2881 4.53814 17.2881 7.34746C17.2881 10.1568 14.9831 12.4619 12.1737 12.4619C9.36441 12.4619 7.05932 10.2288 7.05932 7.34746Z" fill="#262626"/>
<path d="M21.5381 16.4238C16.6398 16.4238 12.75 20.3857 12.75 25.212C12.75 30.0382 16.7119 34.0001 21.5381 34.0001C26.3644 34.0001 30.3263 30.0382 30.3263 25.212C30.3263 20.3857 26.3644 16.4238 21.5381 16.4238ZM28.0932 25.212C28.0932 28.8137 25.1398 31.767 21.5381 31.767C19.6653 31.767 17.9364 30.9747 16.6398 29.606L16.4958 29.534C15.6314 28.5255 15.1271 27.373 14.983 26.0764V25.9323C14.983 25.7162 14.983 25.5001 14.983 25.284V25.1399C14.983 24.9238 14.9831 24.7077 15.0551 24.4916V24.3476C15.5593 21.106 18.2966 18.8009 21.5381 18.8009C25.1398 18.6569 28.0932 21.6103 28.0932 25.212Z" fill="#262626"/>
</g>
<defs>
<clipPath id="clip0_2665_4408">
<rect width="30.3263" height="34" fill="white"/>
</clipPath>
</defs>
</svg>
