<svg width="33" height="34" viewBox="0 0 33 34" fill="none" xmlns="http://www.w3.org/2000/svg">
<g clip-path="url(#clip0_2665_4405)">
<path d="M26.8445 12.4879C25.6004 12.4966 24.4014 12.9554 23.4693 13.7795C22.5372 14.6035 21.9349 15.7372 21.7737 16.9708C21.6126 18.2045 21.9035 19.4548 22.5926 20.4907C23.2818 21.5265 24.3226 22.2779 25.5228 22.6059V24.1555C25.5228 25.0892 25.3389 26.0137 24.9816 26.8763C24.6243 27.739 24.1006 28.5227 23.4403 29.183C22.7801 29.8432 21.9963 30.3669 21.1337 30.7242C20.2711 31.0815 19.3466 31.2654 18.4129 31.2654C17.4792 31.2654 16.5546 31.0815 15.692 30.7242C14.8294 30.3669 14.0456 29.8432 13.3854 29.183C12.7252 28.5227 12.2015 27.739 11.8442 26.8763C11.4869 26.0137 11.3029 25.0892 11.3029 24.1555V17.4102C13.6706 17.07 15.8362 15.8871 17.4018 14.0787C18.9674 12.2702 19.8281 9.95769 19.8257 7.56568V1.36729C19.8257 1.00466 19.6817 0.656888 19.4253 0.400471C19.1688 0.144054 18.8211 0 18.4584 0H14.0375V2.73458H17.0912V7.56568C16.9472 9.3707 16.1285 11.0552 14.7982 12.2837C13.4679 13.5121 11.7236 14.1943 9.91287 14.1943C8.10212 14.1943 6.35783 13.5121 5.02752 12.2837C3.69721 11.0552 2.87853 9.3707 2.73458 7.56568V2.73458H5.7882V0H1.36729C1.00466 0 0.656888 0.144054 0.400471 0.400471C0.144054 0.656888 5.74317e-07 1.00466 5.74317e-07 1.36729V7.56568C-0.000814639 9.9645 0.866261 12.2826 2.44114 14.0921C4.01603 15.9015 6.19237 17.0801 8.56837 17.4102V24.1555C8.56837 26.7664 9.60555 29.2704 11.4518 31.1166C13.298 32.9628 15.8019 34 18.4129 34C21.0238 34 23.5278 32.9628 25.374 31.1166C27.2202 29.2704 28.2574 26.7664 28.2574 24.1555V22.6059C29.4652 22.276 30.5116 21.5173 31.2006 20.4718C31.8896 19.4263 32.1741 18.1656 32.001 16.9255C31.8278 15.6854 31.2088 14.5509 30.2597 13.7341C29.3107 12.9174 28.0966 12.4744 26.8445 12.4879ZM26.8445 20.0536C26.3668 20.0536 25.8997 19.9119 25.5025 19.6465C25.1053 19.3811 24.7957 19.0038 24.6128 18.5625C24.43 18.1211 24.3822 17.6354 24.4754 17.1668C24.5686 16.6982 24.7986 16.2678 25.1365 15.93C25.4743 15.5922 25.9047 15.3621 26.3733 15.2689C26.8418 15.1757 27.3275 15.2236 27.7689 15.4064C28.2103 15.5892 28.5875 15.8988 28.853 16.2961C29.1184 16.6933 29.26 17.1603 29.26 17.6381C29.26 18.2787 29.0056 18.8931 28.5526 19.3461C28.0996 19.7991 27.4851 20.0536 26.8445 20.0536Z" fill="#262626" stroke="#F4F4F4" stroke-width="0.8"/>
</g>
<defs>
<clipPath id="clip0_2665_4405">
<rect width="32.2215" height="34" fill="white"/>
</clipPath>
</defs>
</svg>
