<svg width="16" height="16" viewBox="0 0 16 16" fill="none" xmlns="http://www.w3.org/2000/svg">
<g clip-path="url(#clip0_67_88)">
<path d="M16 0H0V16H16V0Z" fill="black"/>
<mask id="mask0_67_88" style="mask-type:alpha" maskUnits="userSpaceOnUse" x="1" y="0" width="15" height="16">
<g clip-path="url(#clip1_67_88)">
<path d="M11.6319 7.99757V8.04122C11.6319 8.14307 11.6319 8.24007 11.627 8.33707C11.627 8.44862 11.6222 8.55532 11.6222 8.66202C11.6222 8.76872 11.6125 8.88027 11.6029 8.98696C11.5932 9.21006 11.5787 9.42831 11.5546 9.64171C11.5548 9.69218 11.5499 9.74255 11.5401 9.79206C11.54 9.85056 11.5352 9.90896 11.5256 9.96665C11.5111 10.0782 11.5014 10.1898 11.4821 10.2965C11.4386 10.6602 11.3806 11.0094 11.3129 11.3489L10.3367 11.2955C10.3425 11.2547 10.3505 11.2142 10.3609 11.1743C10.3706 11.1258 10.3802 11.0773 10.3899 11.0239C10.4141 10.9172 10.4334 10.8105 10.4479 10.699C10.4865 10.4904 10.5059 10.2625 10.5445 10.054C10.5639 9.82116 10.5832 9.63686 10.6025 9.43316C10.6122 9.33131 10.6219 9.22946 10.6219 9.12276C10.6557 8.75902 10.6653 8.38072 10.6653 7.99757C10.6653 7.61443 10.6557 7.23613 10.6267 6.87723C10.6219 6.77054 10.617 6.66869 10.6074 6.56684C10.5977 6.46499 10.588 6.35344 10.5735 6.24674C10.5542 6.02849 10.53 5.81994 10.4962 5.61625C10.4865 5.50955 10.4672 5.40285 10.4527 5.301L10.3947 4.9809C10.3657 4.83055 10.3367 4.68991 10.2981 4.54926C10.2928 4.51151 10.2848 4.47422 10.2739 4.43771C10.2642 4.39406 10.2546 4.35041 10.2449 4.31161C10.2256 4.23401 10.2062 4.15641 10.1821 4.07881C10.1466 3.92146 10.103 3.76606 10.0516 3.61322C10.0323 3.53562 10.0033 3.45802 9.97912 3.38042C9.96462 3.33677 9.95012 3.29797 9.93562 3.25917C9.92112 3.22037 9.91146 3.18642 9.89696 3.15247C9.37455 1.75568 8.68397 0.969991 8.1229 0.969991C7.56183 0.969991 6.88091 1.76538 6.35899 3.15732C6.32999 3.23007 6.30583 3.31252 6.27683 3.39012C6.24784 3.46772 6.2285 3.54047 6.20434 3.61807C6.15602 3.76841 6.10769 3.92361 6.06903 4.08366C6.04486 4.16126 6.02553 4.23886 6.0062 4.31646L5.94821 4.54926C5.94338 4.57351 5.93855 4.59776 5.93371 4.62686V4.63171L4.76953 5.6793C4.83236 5.204 4.91451 4.75295 5.01116 4.32131L5.04016 4.20491L5.06915 4.08851C5.08849 4.00606 5.10782 3.92846 5.13198 3.85086C5.17064 3.6892 5.21413 3.534 5.26246 3.38527L5.33495 3.15247C5.34945 3.10882 5.36395 3.06517 5.38328 3.02152C5.39237 2.98688 5.40367 2.95286 5.4171 2.91967C6.05985 1.13489 7.03604 0 8.12338 0C9.21073 0 10.1918 1.13489 10.8345 2.91967C10.8635 2.99242 10.8925 3.07002 10.9166 3.14762C11.0133 3.44347 11.1051 3.75871 11.1824 4.09336C11.2018 4.17096 11.2211 4.24371 11.2356 4.32131C11.343 4.77717 11.4252 5.23861 11.4821 5.70355C11.5014 5.81024 11.5111 5.91694 11.5256 6.02849C11.5401 6.14004 11.5497 6.24674 11.5546 6.35829C11.5787 6.57169 11.5932 6.78994 11.6029 7.00818C11.6077 7.11488 11.6125 7.22643 11.6174 7.33798C11.6222 7.44953 11.627 7.54653 11.6222 7.65323C11.6319 7.76478 11.6319 7.88117 11.6319 7.99757Z" fill="#777778"/>
<path d="M10.9114 12.8427C10.2784 14.7633 9.2635 16 8.123 16C7.07915 16 6.14161 14.9573 5.49887 13.3034C5.49324 13.2908 5.4884 13.2778 5.48438 13.2646L6.37841 12.8912C6.86651 14.1861 7.55274 15.03 8.123 15.03C8.66908 15.03 9.42781 14.2055 9.96906 12.6099C10.279 12.7035 10.5936 12.7812 10.9114 12.8427Z" fill="#777778"/>
<path d="M9.78042 4.46196C9.72243 4.48136 9.6596 4.50076 9.59678 4.52016C9.50013 4.55411 9.39864 4.59291 9.29716 4.63171C9.19567 4.67051 9.09419 4.70446 8.9927 4.74811C8.7994 4.82086 8.60126 4.90816 8.40795 4.99061C8.3113 5.03425 8.21465 5.08275 8.11799 5.1264C8.02134 5.17005 7.93435 5.2137 7.84253 5.2622C7.51391 5.42225 7.18046 5.6017 6.85184 5.79085C6.52322 5.98 6.2091 6.17884 5.90465 6.38739C5.81766 6.44074 5.73067 6.49894 5.64368 6.55714V6.56199C5.5567 6.62019 5.46971 6.68324 5.38755 6.74629C5.21358 6.86754 5.04444 6.99849 4.88013 7.13428C4.79314 7.19733 4.71098 7.26523 4.62883 7.33313C4.54667 7.40103 4.46452 7.46893 4.38236 7.54168C4.27121 7.63868 4.1649 7.73568 4.05858 7.83268C4.00059 7.88603 3.94259 7.93938 3.8846 7.99758L3.71063 8.17218C3.59464 8.28372 3.48349 8.40497 3.38201 8.52137C3.32402 8.57957 3.27086 8.64262 3.22253 8.70082C3.20614 8.72141 3.18838 8.74085 3.16937 8.75902C3.13554 8.80267 3.09688 8.84632 3.06789 8.88997C2.9659 9.00218 2.87069 9.1204 2.78276 9.24401C2.08203 10.2043 1.80657 11.0724 2.05787 11.5138C2.256 11.8581 2.85042 12.057 3.6913 12.057C4.0736 12.0545 4.45506 12.0204 4.8318 11.9551C4.90912 11.9406 4.98644 11.926 5.0686 11.9115C5.1484 11.8978 5.22744 11.88 5.3054 11.8581C5.45521 11.829 5.61469 11.7902 5.77416 11.7466C5.85149 11.7272 5.92881 11.7078 6.00613 11.6835L6.2381 11.6108C6.32025 11.5817 6.40241 11.5574 6.48939 11.5235H6.49423L7.80387 12.0764C7.37377 12.251 6.95333 12.4013 6.54739 12.5226C6.53289 12.5274 6.52322 12.5323 6.50873 12.5371C6.43284 12.5658 6.35539 12.5901 6.27676 12.6099C6.19944 12.6341 6.12211 12.6535 6.04479 12.6729C5.88899 12.7197 5.73092 12.7586 5.57119 12.7893C5.49323 12.8112 5.41419 12.829 5.33439 12.8427C5.2563 12.8615 5.17725 12.8761 5.09759 12.8863C5.08793 12.8863 5.0831 12.8912 5.07343 12.8912H5.0686C4.61465 12.979 4.15359 13.0244 3.6913 13.027C2.51213 13.027 1.6181 12.6923 1.22182 11.9988C0.675731 11.0482 1.16866 9.63201 2.38648 8.18188C2.43964 8.11883 2.4928 8.06063 2.54596 7.99758C2.75377 7.76478 2.9809 7.52713 3.22253 7.29433C3.28052 7.24098 3.33851 7.18278 3.39651 7.13428C3.73648 6.81497 4.09298 6.51386 4.46452 6.23219C4.55151 6.15944 4.63849 6.09639 4.72548 6.0285C4.77381 5.99455 4.82697 5.95575 4.87529 5.91695C4.91395 5.8927 4.95262 5.8636 4.99128 5.83935C5.16525 5.71325 5.34406 5.58715 5.5277 5.4756C5.61952 5.41255 5.71134 5.35435 5.80316 5.29615C5.89498 5.23795 5.9868 5.17975 6.08345 5.1264C6.12685 5.09359 6.17387 5.06593 6.2236 5.04395L6.22843 5.0391C6.2722 5.00549 6.31914 4.97625 6.36858 4.95181C6.47006 4.89361 6.57155 4.83541 6.67303 4.78206C6.76485 4.72871 6.85667 4.68021 6.9485 4.63171C7.04998 4.57836 7.14663 4.52501 7.24329 4.48136C7.43173 4.37782 7.62529 4.28394 7.8232 4.20006C7.92469 4.14671 8.02617 4.10306 8.12766 4.05941C8.22914 4.01576 8.33063 3.97211 8.42728 3.93331C8.83806 3.76357 9.23917 3.61322 9.63061 3.48712C9.63544 3.48712 9.63544 3.48227 9.64027 3.48227L9.78042 4.46196Z" fill="#777778"/>
<path d="M13.7385 7.95392H13.7337C13.7239 7.96961 13.7126 7.98424 13.6999 7.99757C13.4969 8.23037 13.2746 8.46802 13.0281 8.70082C12.9411 8.78327 12.8493 8.87056 12.7575 8.95301C12.482 9.20521 12.1824 9.45741 11.8683 9.70476C11.8586 9.70961 11.8538 9.71931 11.8441 9.72416L12.0374 8.29827C12.1486 8.20127 12.2597 8.09942 12.3612 7.99757C12.6077 7.75992 12.83 7.52228 13.0281 7.29433C14.0865 6.07214 14.4827 4.9906 14.1928 4.48621C13.9898 4.13701 13.3954 3.93816 12.5594 3.93816C12.0961 3.94126 11.6345 3.99328 11.1821 4.09336C11.1047 3.75871 11.0129 3.44347 10.9163 3.14762C10.9984 3.13307 11.0806 3.11852 11.1579 3.10397C11.6203 3.0185 12.0892 2.97306 12.5594 2.96817C13.7337 2.96817 14.6277 3.30282 15.0288 4.00121C15.5894 4.9809 15.0433 6.45529 13.7385 7.95392Z" fill="#777778"/>
<path d="M15.0288 11.9988C14.6277 12.6923 13.7337 13.027 12.5594 13.027C12.0052 13.023 11.4529 12.9613 10.9114 12.8427C10.5936 12.7812 10.279 12.7035 9.96907 12.6099C9.44513 12.459 8.93039 12.2776 8.42745 12.0667C8.32597 12.0279 8.22932 11.9842 8.12783 11.9406C8.09883 11.926 8.06984 11.9163 8.04084 11.9018C7.96835 11.8727 7.9007 11.8387 7.82821 11.8048C7.6349 11.7175 7.43676 11.6205 7.23863 11.5138C7.14197 11.4701 7.04532 11.4216 6.94867 11.3683C6.85685 11.3198 6.76019 11.2664 6.66837 11.2131C6.60555 11.1791 6.54756 11.15 6.48473 11.1112C6.44607 11.0919 6.40741 11.0725 6.36875 11.0482C6.18028 10.9367 5.99181 10.8251 5.80816 10.7087C5.43122 10.4711 5.06877 10.2237 4.73049 9.97151C4.26331 9.62924 3.81634 9.26003 3.39185 8.86572L4.27622 8.35648C4.3922 8.46317 4.50819 8.56502 4.63383 8.66202C4.95279 8.93362 5.29107 9.19067 5.64869 9.44287C6.0353 9.70961 6.43641 9.96666 6.85201 10.2043C7.18063 10.3983 7.50925 10.5729 7.84271 10.733C7.93936 10.7815 8.03118 10.83 8.12783 10.8736C8.22448 10.9173 8.32114 10.9609 8.41779 10.9997C8.61593 11.0919 8.80923 11.1743 9.00254 11.247C9.10402 11.2907 9.20551 11.3295 9.30216 11.3683C9.39882 11.4071 9.50513 11.441 9.60662 11.475C9.7661 11.5332 9.92557 11.5865 10.0802 11.6302C10.1334 11.6496 10.1914 11.669 10.2445 11.6835C10.4185 11.732 10.5973 11.7805 10.7665 11.8193H10.7713C10.9114 11.8533 11.0467 11.8872 11.1821 11.9115C11.6355 12.0041 12.0967 12.0529 12.5594 12.057C13.3954 12.057 13.9898 11.8581 14.1928 11.5138C14.4731 11.0191 14.0768 9.97636 13.1876 8.88512C13.2166 8.85602 13.2456 8.83177 13.2698 8.80752L14.0188 8.37103C14.0285 8.38558 14.043 8.40013 14.0526 8.41468C15.1303 9.78236 15.5464 11.1016 15.0288 11.9988Z" fill="#777778"/>
<path d="M4.61453 3.99636L4.66286 4.02061C4.3419 3.96626 4.017 3.93869 3.6915 3.93816C2.85062 3.93816 2.25621 4.13701 2.05807 4.48621C1.78744 4.9518 2.12089 6.02364 3.22273 7.29433C2.9811 7.52713 2.75397 7.76477 2.54616 7.99757C1.21236 6.48439 0.65177 4.98575 1.22202 4.00121C1.6183 3.30767 2.51234 2.96817 3.6915 2.96817C4.14873 2.97141 4.60477 3.01523 5.0543 3.09912L4.61453 3.99636Z" fill="#777778"/>
<path d="M8.09922 9.47876C7.71506 9.47761 7.34697 9.32394 7.07533 9.05133C6.80369 8.77871 6.65058 8.4093 6.64943 8.02377C6.64776 7.63284 6.79846 7.25676 7.06935 6.97583C7.34024 6.69491 7.70984 6.53142 8.09922 6.52028C8.29309 6.51591 8.4859 6.5502 8.66647 6.62117C8.84704 6.69214 9.01178 6.79837 9.15113 6.93371C9.29048 7.06905 9.40168 7.23081 9.47828 7.4096C9.55487 7.58839 9.59534 7.78066 9.59734 7.97527C9.59531 8.37339 9.43682 8.75463 9.1563 9.03614C8.87579 9.31766 8.49592 9.47672 8.09922 9.47876Z" fill="#262626"/>
</g>
</mask>
<g mask="url(#mask0_67_88)">
<rect x="0.125" width="16" height="16" fill="white"/>
</g>
</g>
<defs>
<clipPath id="clip0_67_88">
<rect width="16" height="16" fill="white"/>
</clipPath>
<clipPath id="clip1_67_88">
<rect width="14.25" height="16" fill="white" transform="translate(1)"/>
</clipPath>
</defs>
</svg>
