<svg width="16" height="16" viewBox="0 0 16 16" fill="none" xmlns="http://www.w3.org/2000/svg">
<rect width="16" height="16" fill="black"/>
<path fill-rule="evenodd" clip-rule="evenodd" d="M13.9675 9.90635C14.103 10.607 14.0354 11.3378 13.7646 12.0078C13.5835 12.453 13.311 12.8708 12.9506 13.2312C12.68 13.5019 12.3771 13.7234 12.0555 13.8926C11.7325 14.0636 11.3888 14.1803 11.0405 14.248C10.3397 14.3833 9.61054 14.3174 8.93887 14.0449C8.49391 13.864 8.07601 13.5915 7.71566 13.2312C7.36867 12.8842 7.10314 12.4831 6.92203 12.0552C6.74275 11.6287 6.64627 11.1736 6.63272 10.7203C6.62761 10.5866 6.63288 10.4494 6.64461 10.3055C6.65303 10.1619 6.66825 10.0113 6.68674 9.85725C6.69104 9.82768 6.69488 9.79847 6.69873 9.76927C6.70257 9.74006 6.70641 9.71084 6.71071 9.68126C6.86167 9.65322 7.09332 9.60933 7.42008 9.54741C7.60552 9.51227 7.82159 9.47132 8.07093 9.42418C8.10642 9.41772 8.13893 9.41122 8.17127 9.40476L8.17585 9.40385L8.17422 9.41365C8.1579 9.51184 8.14155 9.61019 8.1284 9.70838C8.09291 9.96037 8.06249 10.2076 8.04894 10.4038C8.04216 10.5154 8.03887 10.6135 8.04052 10.6796C8.04894 10.962 8.10826 11.2447 8.2198 11.5086C8.33149 11.7726 8.49393 12.0197 8.71056 12.2363C8.87976 12.4055 9.06929 12.5408 9.26725 12.6439C9.4652 12.7507 9.6767 12.8233 9.89497 12.8655C10.328 12.9503 10.7833 12.9078 11.1978 12.7404C11.4718 12.6287 11.7307 12.4613 11.9557 12.2363C12.1249 12.0671 12.2603 11.8809 12.3652 11.6811C12.4701 11.4817 12.5428 11.2702 12.5851 11.0517C12.6699 10.6187 12.6274 10.1634 12.4582 9.75067C12.3483 9.47493 12.1791 9.21778 11.9557 8.99112C11.7898 8.82852 11.6089 8.69487 11.4161 8.58992C11.3533 8.5579 11.2925 8.52748 11.2282 8.50022C10.9627 8.39031 10.6816 8.32934 10.3992 8.32092C10.3332 8.31927 10.2367 8.32092 10.1233 8.32951C10.0134 8.33792 9.88305 8.34967 9.74773 8.36669C9.47707 8.40041 9.17424 8.44616 8.89662 8.49342C8.88478 8.49544 8.87296 8.49745 8.86123 8.49944C8.83268 8.50429 8.80464 8.50906 8.77817 8.51375C8.71501 8.52516 8.38587 8.58709 7.99029 8.66152C7.32707 8.78631 6.47708 8.94623 6.38062 8.96217C6.35361 8.96626 6.32613 8.96997 6.29862 8.97367C6.26942 8.97761 6.24018 8.98155 6.21141 8.98597C5.93894 9.02482 5.66498 9.05853 5.41466 9.07555C5.26909 9.08564 5.1336 9.09257 4.99991 9.08744L4.99662 9.08746C4.54487 9.07224 4.09147 8.97743 3.66497 8.79813C3.23705 8.61704 2.83585 8.35135 2.48902 8.00452C2.21837 7.73387 1.99677 7.43099 1.82759 7.10946C1.6584 6.78462 1.53975 6.44292 1.47036 6.09262C1.33667 5.39384 1.40277 4.66449 1.67526 3.99282C1.85617 3.54783 2.12865 3.12996 2.48902 2.76959C2.75984 2.49877 3.06106 2.27883 3.38431 2.10789C3.70751 1.94034 4.0507 1.82023 4.39935 1.75246C5.09979 1.61715 5.82914 1.68325 6.4975 1.9557C6.94577 2.13664 7.36381 2.40895 7.72418 2.76932C8.07101 3.11615 8.33668 3.51733 8.51761 3.94546C8.69707 4.37179 8.79358 4.82681 8.80694 5.28037C8.81039 5.4157 8.80528 5.54937 8.79521 5.69496C8.78661 5.8387 8.77157 5.98921 8.75289 6.1434C8.74875 6.17196 8.74468 6.20052 8.74062 6.22908C8.73626 6.25967 8.7319 6.29026 8.72745 6.32086C8.47453 6.3668 8.05895 6.44462 7.69498 6.51276C7.53536 6.54265 7.38567 6.57068 7.26397 6.59335C7.28083 6.4919 7.29603 6.3921 7.31123 6.29231C7.34677 6.03999 7.37551 5.79477 7.39072 5.59682C7.39766 5.48513 7.40095 5.38699 7.3993 5.32089C7.39088 5.03851 7.32993 4.75746 7.22002 4.49193C7.10817 4.22806 6.9441 3.98266 6.7291 3.7644C6.5599 3.5952 6.37222 3.46134 6.17261 3.35658C5.97284 3.25166 5.76316 3.17716 5.5449 3.13503C5.10998 3.05209 4.6566 3.09273 4.24204 3.2601C3.96625 3.37364 3.70898 3.53937 3.48394 3.76442C3.31473 3.93363 3.1812 4.1213 3.07448 4.31927C2.96954 4.51903 2.89684 4.73055 2.85454 4.94865C2.76993 5.38188 2.81225 5.83695 2.98143 6.25002C3.01862 6.3447 3.06273 6.4361 3.11347 6.52414C3.21161 6.69662 3.33502 6.86073 3.4839 7.00961C3.70052 7.22624 3.94756 7.38868 4.21159 7.50036C4.47546 7.61188 4.75819 7.6712 5.04057 7.67962C5.10665 7.6813 5.20316 7.67964 5.31633 7.6712C5.42638 7.66262 5.55675 7.65089 5.69191 7.63403C5.96273 7.60016 6.26395 7.55606 6.5432 7.50713C6.58368 7.50036 6.6243 7.49341 6.66149 7.48663C6.69593 7.48044 6.72981 7.47439 6.76308 7.46845C6.89324 7.4452 7.01391 7.42365 7.12168 7.4022C7.39068 7.34967 8.9052 7.06381 9.05738 7.04019C9.08996 7.03516 9.12372 7.0302 9.15724 7.02527C9.1812 7.02174 9.20504 7.01823 9.22824 7.01473C9.50069 6.97591 9.77482 6.94203 10.0251 6.92501C10.1691 6.91328 10.3044 6.90983 10.4397 6.91328C10.8559 6.92669 11.2756 7.00797 11.6699 7.16197C11.7054 7.1737 11.7391 7.18723 11.7746 7.20263C12.2027 7.38355 12.6038 7.64909 12.9508 7.99608C13.2214 8.26674 13.443 8.56959 13.6106 8.8928C13.7814 9.21601 13.8999 9.55789 13.9675 9.90635Z" fill="white"/>
</svg>
