<svg width="16" height="152" viewBox="0 0 16 16" fill="none" xmlns="http://www.w3.org/2000/svg">
<rect width="152" height="152" fill="black"/>
<path fill-rule="evenodd" clip-rule="evenodd" d="M132.691 94.1078C133.978 100.764 133.336 107.706 130.764 114.072C129.043 118.301 126.455 122.27 123.031 125.694C120.46 128.265 117.583 130.37 114.528 131.977C111.459 133.602 108.194 134.71 104.885 135.354C98.2276 136.639 91.3003 136.013 84.9195 133.424C80.6923 131.706 76.7223 129.117 73.299 125.694C70.0026 122.397 67.4801 118.587 65.7595 114.522C64.0563 110.47 63.1397 106.147 63.011 101.84C62.9625 100.57 63.0126 99.2668 63.124 97.8998C63.204 96.536 63.3486 95.1044 63.5243 93.6414C63.5651 93.3604 63.6016 93.0829 63.6381 92.8054C63.6746 92.5279 63.7111 92.2505 63.752 91.9695C65.1861 91.7031 67.3868 91.2861 70.491 90.6979C72.2527 90.3641 74.3053 89.9751 76.674 89.5272C77.0111 89.4659 77.3199 89.4042 77.627 89.3428L77.6708 89.3341L77.6552 89.4276C77.5002 90.3603 77.345 91.2945 77.22 92.2271C76.8829 94.6211 76.5938 96.9693 76.4651 98.8341C76.4007 99.8936 76.3694 100.826 76.3852 101.454C76.4651 104.136 77.0286 106.822 78.0883 109.329C79.1493 111.838 80.6925 114.184 82.7505 116.242C84.3579 117.85 86.1585 119.135 88.0391 120.115C89.9196 121.129 91.9289 121.819 94.0024 122.22C98.1166 123.025 102.441 122.621 106.38 121.031C108.982 119.97 111.442 118.38 113.58 116.242C115.187 114.635 116.473 112.866 117.47 110.968C118.466 109.073 119.157 107.064 119.559 104.989C120.364 100.875 119.961 96.5502 118.353 92.6289C117.309 90.0094 115.702 87.5665 113.58 85.4132C112.004 83.8684 110.285 82.5988 108.453 81.6018C107.857 81.2976 107.279 81.0086 106.668 80.7496C104.146 79.7055 101.476 79.1263 98.7931 79.0463C98.1655 79.0306 97.2487 79.0463 96.1718 79.1278C95.1279 79.2078 93.8892 79.3194 92.6036 79.4811C90.0324 79.8014 87.1555 80.236 84.5181 80.685C84.4059 80.7042 84.2938 80.7232 84.1825 80.7421C83.9111 80.7883 83.6445 80.8335 83.3928 80.8781C82.7929 80.9866 79.6663 81.5748 75.9086 82.2819C69.6079 83.4673 61.5325 84.9867 60.6161 85.1381C60.3595 85.177 60.0985 85.2122 59.8371 85.2474C59.5597 85.2848 59.2819 85.3223 59.0086 85.3643C56.4202 85.7333 53.8175 86.0536 51.4394 86.2153C50.0566 86.3111 48.7694 86.377 47.4994 86.3282L47.4681 86.3284C43.1765 86.1838 38.8691 85.2831 34.8174 83.5798C30.7521 81.8594 26.9408 79.3354 23.6459 76.0405C21.0747 73.4693 18.9695 70.592 17.3623 67.5374C15.755 64.4514 14.6278 61.2053 13.9686 57.8774C12.6986 51.239 13.3265 44.3102 15.9152 37.9293C17.6339 33.7019 20.2223 29.7322 23.6459 26.3086C26.2187 23.7358 29.0803 21.6464 32.1511 20.0225C35.2216 18.4308 38.4819 17.2898 41.794 16.6459C48.4482 15.3605 55.377 15.9884 61.7264 18.5767C65.985 20.2956 69.9564 22.8825 73.3799 26.3061C76.6748 29.6009 79.1986 33.4121 80.9175 37.4794C82.6224 41.5295 83.5392 45.8522 83.6661 50.1611C83.6989 51.4467 83.6504 52.7166 83.5547 54.0996C83.473 55.4652 83.3301 56.895 83.1527 58.3598C83.1134 58.6308 83.0748 58.9018 83.0362 59.1727C82.9948 59.4637 82.9533 59.7547 82.911 60.0457C80.5081 60.4822 76.56 61.2214 73.1022 61.8689C71.586 62.1528 70.164 62.419 69.0079 62.6343C69.168 61.6708 69.3124 60.7231 69.4568 59.7753L69.4569 59.7745C69.7945 57.3774 70.0676 55.0479 70.212 53.1673C70.278 52.1063 70.3093 51.174 70.2935 50.546C70.2136 47.8634 69.6345 45.1934 68.5904 42.6709C67.5278 40.1641 65.9691 37.8328 63.9267 35.7593C62.3192 34.1519 60.5363 32.8803 58.64 31.885C56.7422 30.8883 54.7502 30.1805 52.6767 29.7803C48.545 28.9924 44.2379 29.3785 40.2995 30.9685C37.6796 32.0471 35.2355 33.6216 33.0976 35.7595C31.4902 37.367 30.2216 39.1499 29.2078 41.0306C28.2108 42.9283 27.5202 44.9377 27.1184 47.0097C26.3146 51.1254 26.7166 55.4485 28.3238 59.3727C28.6771 60.2722 29.0962 61.1404 29.5782 61.9769C30.5105 63.6154 31.6829 65.1745 33.0972 66.5888C35.1552 68.6468 37.502 70.19 40.0103 71.251C42.5171 72.3104 45.203 72.8739 47.8856 72.9539C48.5134 72.9698 49.4302 72.9541 50.5054 72.8739C51.5509 72.7924 52.7893 72.681 54.0733 72.5208C56.6461 72.199 59.5077 71.7801 62.1606 71.3152C62.5452 71.251 62.9311 71.185 63.2844 71.1205C63.6116 71.0617 63.9335 71.0042 64.2495 70.9478C65.486 70.727 66.6324 70.5222 67.6561 70.3185C70.2116 69.8194 84.5996 67.1038 86.0453 66.8794C86.3549 66.8316 86.6755 66.7844 86.994 66.7376C87.2216 66.7041 87.4481 66.6708 87.6685 66.6375C90.2568 66.2687 92.861 65.9468 95.2391 65.7852C96.6064 65.6737 97.892 65.6409 99.1776 65.6737C103.132 65.8011 107.119 66.5733 110.864 68.0363C111.201 68.1477 111.522 68.2762 111.859 68.4226C115.926 70.1412 119.736 72.6639 123.033 75.9603C125.604 78.5315 127.709 81.4087 129.3 84.4791C130.924 87.5496 132.049 90.7975 132.691 94.1078Z" fill="white"/>
</svg>
