<svg width="34" height="34" viewBox="0 0 34 34" fill="none" xmlns="http://www.w3.org/2000/svg">
<path fill-rule="evenodd" clip-rule="evenodd" d="M17 2C8.71358 2 2 8.71358 2 17C2 25.2864 8.71358 32 17 32C25.2864 32 32 25.2864 32 17C32 8.71358 25.2864 2 17 2ZM0 17C0 7.609 7.609 0 17 0C26.391 0 34 7.609 34 17C34 26.391 26.391 34 17 34C7.609 34 0 26.391 0 17ZM13.4194 8.48387C13.4194 7.59911 14.1366 6.70968 15.1935 6.70968H18.8065C19.3252 6.70968 19.7603 6.959 20.0458 7.24451C20.3313 7.53001 20.5806 7.96509 20.5806 8.48387V13.4194H25.5161C26.0349 13.4194 26.47 13.6687 26.7555 13.9542C27.041 14.2397 27.2903 14.6748 27.2903 15.1935V18.8065C27.2903 19.8634 26.4009 20.5806 25.5161 20.5806H20.5806V25.5161C20.5806 26.5731 19.6912 27.2903 18.8065 27.2903H15.1935C14.1897 27.2903 13.4194 26.52 13.4194 25.5161V20.5806H8.48387C7.47997 20.5806 6.70968 19.8103 6.70968 18.8065V15.1935C6.70968 14.3088 7.42689 13.4194 8.48387 13.4194H13.4194V8.48387ZM15.4194 8.70968V15.4194H8.70968V18.5806H15.4194V25.2903H18.5806V18.5806H25.2903V15.4194H18.5806V8.70968H15.4194Z" fill="#262626"/>
</svg>
