<svg xmlns="http://www.w3.org/2000/svg" width="38" height="38" viewBox="0 0 38 38" fill="none">
  <path d="M19 0C29.496 0 38 8.50403 38 19C38 29.496 29.496 38 19 38C8.50403 38 0 29.496 0 19C0 8.50403 8.50403 0 19 0ZM30.0323 21.1452V16.8548C30.0323 16.3952 29.5726 15.9355 29.1129 15.9355H22.0645V8.8871C22.0645 8.42742 21.6048 7.96774 21.1452 7.96774H16.8548C16.3185 7.96774 15.9355 8.42742 15.9355 8.8871V15.9355H8.8871C8.35081 15.9355 7.96774 16.3952 7.96774 16.8548V21.1452C7.96774 21.6815 8.35081 22.0645 8.8871 22.0645H15.9355V29.1129C15.9355 29.6492 16.3185 30.0323 16.8548 30.0323H21.1452C21.6048 30.0323 22.0645 29.6492 22.0645 29.1129V22.0645H29.1129C29.5726 22.0645 30.0323 21.6815 30.0323 21.1452Z" fill="url(#paint0_linear_2163_1354)"/>
  <defs>
    <linearGradient id="paint0_linear_2163_1354" x1="36.7807" y1="37.5791" x2="-7.91196" y2="32.1559" gradientUnits="userSpaceOnUse">
      <stop stop-color="#00A5C9"/>
      <stop offset="1" stop-color="#00E7A1"/>
    </linearGradient>
  </defs>
</svg>
