<svg xmlns="http://www.w3.org/2000/svg" width="40" height="33" viewBox="0 0 40 33" fill="none">
  <path d="M39.75 24.4375C39.875 25 40 25.625 40 26.25C40 30.125 36.0625 32.875 32.125 31.8125L28.4375 30.8125C25.8125 30.125 24 27.8125 24 25.25V19.8125L29.3125 23.375C29.375 23.4375 29.5 23.4375 29.625 23.4375C29.75 23.4375 29.9375 23.375 30 23.25L30.5625 22.4375C30.625 22.3125 30.6875 22.1875 30.6875 22.125C30.6875 22 30.5625 21.8125 30.4375 21.6875L20 14.75L9.5 21.6875C9.375 21.8125 9.25 22 9.25 22.125C9.25 22.1875 9.3125 22.3125 9.375 22.4375L9.9375 23.25C10 23.375 10.1875 23.4375 10.3125 23.4375C10.4375 23.4375 10.5625 23.4375 10.625 23.375L16 19.8125V25.25C16 27.8125 14.125 30.125 11.5 30.8125L7.8125 31.8125C3.875 32.875 0 30.125 0 26.25C0 25.625 0.0625 25 0.1875 24.4375C1.5625 19.3125 3.6875 14.4375 6.5625 10C8 7.8125 8.8125 6 11.5625 6C14 6 16 7.875 16 10.125V13.875L18 12.5C18.3125 12.3125 18.5 12 18.5 11.6875V1C18.5 0.5 18.9375 0 19.5 0H20.5C21 0 21.5 0.5 21.5 1V11.6875C21.5 12 21.6875 12.375 21.9375 12.5L24 13.875V10.125C24 7.875 25.9375 6 28.375 6C31.125 6 31.9375 7.8125 33.375 10C36.25 14.4375 38.375 19.3125 39.75 24.4375Z" fill="url(#paint0_linear_2217_694)"/>
  <defs>
    <linearGradient id="paint0_linear_2217_694" x1="38.7166" y1="31.6876" x2="-7.95027" y2="24.6185" gradientUnits="userSpaceOnUse">
      <stop stop-color="#00A5C9"/>
      <stop offset="1" stop-color="#00E7A1"/>
    </linearGradient>
  </defs>
</svg>
