<svg width="34" height="34" viewBox="0 0 34 34" fill="none" xmlns="http://www.w3.org/2000/svg">
<path d="M6.5 23C6.63389 23.672 6.70351 23.9455 6.51813 24.6136C6.31021 25.3622 6.46985 26.2074 7.02149 26.8092C7.63043 27.4934 8.5464 27.7181 9.36003 27.5031C10.3455 27.2424 11.3896 27.281 12.3229 27.6904C12.4646 27.7528 12.6081 27.812 12.7536 27.8693C13.6959 28.2382 14.4735 28.934 14.9775 29.8119C15.365 30.4865 16.0802 30.968 16.8983 30.997C17.8265 31.0439 18.6408 30.5322 19.0527 29.7817C19.5355 28.9018 20.3215 28.2349 21.2561 27.8693C21.4029 27.8114 21.5483 27.7515 21.6919 27.6885C22.6085 27.2855 23.641 27.216 24.6046 27.487C25.3596 27.7 26.2151 27.5385 26.8202 26.9785C27.496 26.3696 27.7181 25.4594 27.5044 24.6503C27.245 23.6661 27.2798 22.6234 27.6898 21.692C27.7529 21.5478 27.8134 21.4023 27.8707 21.2556C28.235 20.3255 28.8961 19.5408 29.7676 19.0516C30.5008 18.6403 30.9971 17.8274 30.999 16.8998C31.0003 16.0096 30.5072 15.279 29.8397 14.907C28.9501 14.4107 28.2286 13.655 27.8533 12.7082C27.8011 12.5762 27.7464 12.4462 27.6898 12.3168C27.2862 11.399 27.2199 10.3665 27.4896 9.40099C27.7001 8.64918 27.5398 7.79824 26.9837 7.19512C26.3754 6.51604 25.4639 6.29268 24.6535 6.5051C23.6667 6.76385 22.622 6.72845 21.688 6.31843C21.5458 6.25599 21.4016 6.19613 21.2561 6.13949C20.3131 5.77002 19.5355 5.07292 19.0302 4.19495C18.6427 3.5223 17.9288 3.04212 17.1126 3.01251C16.1844 2.96552 15.3695 3.4766 14.9576 4.22713C14.4742 5.10639 13.6876 5.77324 12.7529 6.13949C12.6062 6.19678 12.46 6.25728 12.3159 6.32101C11.4005 6.72266 10.37 6.79539 9.40766 6.52312C8.65068 6.30878 7.79135 6.47098 7.18564 7.03484C6.51169 7.64312 6.29155 8.55263 6.50525 9.36044C6.76466 10.3427 6.73055 11.3829 6.3218 12.3123C6.25743 12.4578 6.19628 12.6052 6.13835 12.7539C5.76951 13.6962 5.07433 14.4738 4.19633 14.9784C3.5211 15.3659 3.03897 16.0817 3.01065 16.8998C2.96495 17.8267 3.4754 18.6397 4.2253 19.0516C4.89474 19.4198 5.11572 19.8492 5.5 20.5" stroke="#262626" stroke-width="1.8" stroke-miterlimit="10" stroke-linecap="round" stroke-linejoin="round"/>
<path d="M10.75 14.1634C11.1967 15.582 12.5227 16.4208 14.0882 16.4208C16.0212 16.4208 17.5879 14.8541 17.5879 12.9211C17.5879 10.9888 16.0212 9.42212 14.0882 9.42212C12.5221 9.42212 11.1967 10.2304 10.75 11.6491" stroke="#262626" stroke-width="1.8" stroke-miterlimit="10" stroke-linecap="round" stroke-linejoin="round"/>
<path d="M20.1562 18.2308C20.603 19.2684 21.6357 19.9198 22.8368 19.9198C24.4473 19.9198 25.7527 18.6145 25.7527 17.004C25.7527 15.3935 24.4473 14.0881 22.8368 14.0881C21.5597 14.0881 20.5515 14.6974 20.1569 15.84" stroke="#262626" stroke-width="1.8" stroke-miterlimit="10" stroke-linecap="round" stroke-linejoin="round"/>
<path d="M15.2551 24.5853C16.5436 24.5853 17.5883 23.5408 17.5883 22.2524C17.5883 20.9639 16.5436 19.9194 15.2551 19.9194C13.9665 19.9194 12.9219 20.9639 12.9219 22.2524C12.9219 23.5408 13.9665 24.5853 15.2551 24.5853Z" stroke="#262626" stroke-width="1.8" stroke-miterlimit="10" stroke-linecap="round" stroke-linejoin="round"/>
<path d="M21.5 11C21.7761 11 22 10.7761 22 10.5C22 10.2239 21.7761 10 21.5 10C21.2239 10 21 10.2239 21 10.5C21 10.7761 21.2239 11 21.5 11Z" stroke="#262626" stroke-width="1.8" stroke-miterlimit="10" stroke-linecap="round" stroke-linejoin="round"/>
<path d="M21.5 25C21.7761 25 22 24.7761 22 24.5C22 24.2239 21.7761 24 21.5 24C21.2239 24 21 24.2239 21 24.5C21 24.7761 21.2239 25 21.5 25Z" stroke="#262626" stroke-width="1.8" stroke-miterlimit="10" stroke-linecap="round" stroke-linejoin="round"/>
<path d="M9.92052 19.466C9.92267 19.213 9.71922 19.0061 9.4661 19.0039C9.21298 19.0017 9.00605 19.2052 9.0039 19.4583C9.00174 19.7113 9.20519 19.9182 9.45831 19.9204C9.71143 19.9226 9.91837 19.7191 9.92052 19.466Z" stroke="#262626" stroke-width="1.8" stroke-miterlimit="10" stroke-linecap="round" stroke-linejoin="round"/>
<path d="M23.998 2.51545C24.0009 2.23651 23.7771 2.00804 23.4981 2.00513C23.2191 2.00223 22.9906 2.22601 22.9877 2.50494C22.9848 2.78388 23.2086 3.01236 23.4876 3.01526C23.7665 3.01817 23.9951 2.79439 23.998 2.51545Z" stroke="#262626" stroke-width="1.8" stroke-miterlimit="10" stroke-linecap="round" stroke-linejoin="round"/>
<path d="M10.5 33C10.7761 33 11 32.7761 11 32.5C11 32.2239 10.7761 32 10.5 32C10.2239 32 10 32.2239 10 32.5C10 32.7761 10.2239 33 10.5 33Z" stroke="#262626" stroke-width="1.8" stroke-miterlimit="10" stroke-linecap="round" stroke-linejoin="round"/>
<path d="M31.5 25C31.7761 25 32 24.7761 32 24.5C32 24.2239 31.7761 24 31.5 24C31.2239 24 31 24.2239 31 24.5C31 24.7761 31.2239 25 31.5 25Z" stroke="#262626" stroke-width="1.8" stroke-miterlimit="10" stroke-linecap="round" stroke-linejoin="round"/>
<path d="M3.00437 10.5086C3.00706 10.2278 2.78157 9.99799 2.50072 9.9953C2.21986 9.9926 1.99 10.2181 1.9873 10.4989C1.98461 10.7797 2.2101 11.0095 2.49095 11.0122C2.77181 11.0149 3.00167 10.7894 3.00437 10.5086Z" stroke="#262626" stroke-width="1.8" stroke-miterlimit="10" stroke-linecap="round" stroke-linejoin="round"/>
</svg>
