<svg width="33" height="34" viewBox="0 0 33 34" fill="none" xmlns="http://www.w3.org/2000/svg">
<g clip-path="url(#clip0_2668_5232)">
<path d="M31.4896 13.9138C30.3388 12.3446 28.0373 11.7169 25.1081 12.24C24.7942 11.7169 24.4804 11.1938 24.0619 10.7754C22.8065 9.31077 21.2373 8.16 19.3542 7.63692V1.77846H19.7727C20.2958 1.77846 20.6096 1.36 20.7142 0.941539C20.7142 0.418462 20.2958 0 19.7727 0H13.3911C13.1819 0 12.9727 0.104615 12.7635 0.209231C12.6588 0.418462 12.5542 0.627692 12.5542 0.941539C12.5542 1.15077 12.6588 1.36 12.7635 1.56923C12.8681 1.77846 13.1819 1.88308 13.3911 1.88308H13.8096V7.74154C9.72961 8.99692 6.90499 12.7631 6.90499 17.0523C6.90499 17.4708 6.90499 17.8892 7.00961 18.3077C6.38191 18.7262 5.75422 19.2492 5.12653 19.7723C4.49884 18.7262 4.08038 17.4708 3.87114 16.32C5.44038 16.1108 6.59114 14.6462 6.48653 12.9723C6.48653 12.1354 6.06807 11.4031 5.44037 10.7754C4.9173 10.1477 4.08038 9.83385 3.24345 9.93846C1.46499 10.0431 0.209606 11.5077 0.314221 13.2862C0.314221 14.3323 1.04653 15.3785 2.09268 15.9015C2.30191 17.68 2.92961 19.3538 3.76653 20.9231C0.314221 24.2708 -0.836548 27.9323 0.628067 30.2339C1.46499 31.5939 3.13884 32.3262 5.33576 32.3262C5.64961 32.3262 5.96345 32.3262 6.2773 32.3262C6.80037 33.4769 7.95114 34.1046 9.10191 34.1046C9.52038 34.1046 9.93884 34 10.2527 33.8954C11.8219 33.2677 12.6588 31.3846 11.9265 29.8154C11.8219 29.6062 11.7173 29.5015 11.6127 29.2923C14.6465 31.28 17.8896 32.64 20.8188 32.9538C21.4465 33.0585 21.9696 33.0585 22.5973 33.0585C25.3173 33.0585 27.4096 32.1169 28.7696 30.4431C30.025 28.6646 30.1296 26.2585 28.8742 23.3292C32.1173 19.6677 33.0588 16.1108 31.4896 13.9138ZM21.2373 31.0708C20.0865 30.8615 18.8311 30.6523 17.6804 30.2339C20.2958 29.5015 22.8065 28.3508 25.1081 26.6769C25.945 26.0492 26.8865 25.3169 27.6188 24.5846C28.3511 26.5723 28.2465 28.1415 27.5142 29.2923C26.3635 30.7569 24.1665 31.4892 21.2373 31.0708ZM18.3081 9.20616C20.9235 9.83385 23.0158 11.6123 24.0619 14.1231C24.3758 14.96 24.585 15.9015 24.585 16.8431V17.0523C24.4804 21.4462 20.8188 24.8985 16.5296 24.6892C12.9727 24.5846 9.93884 22.1785 9.10191 18.7262C8.9973 18.3077 8.89268 17.8892 8.89268 17.4708C8.89268 17.2615 8.89268 17.0523 8.89268 16.8431C8.89268 13.0769 11.5081 9.93846 15.065 9.10154C15.4835 8.99692 15.7973 8.68308 15.7973 8.26462V1.77846H17.6804V8.36923C17.5758 8.78769 17.8896 9.10154 18.3081 9.20616ZM25.8404 14.0185C27.8281 13.7046 29.3973 14.0185 30.025 14.96C30.9665 16.32 30.2342 18.8308 28.1419 21.4462C27.5142 20.4 26.8865 19.3538 26.1542 18.4123C26.3635 16.9477 26.2588 15.4831 25.8404 14.0185ZM19.3542 26.1539C22.1788 25.3169 24.3758 23.2246 25.5265 20.6092C26.0496 21.3415 26.4681 22.0738 26.8865 22.8062C26.0496 23.6431 25.1081 24.48 24.0619 25.2123C21.3419 27.0954 18.3081 28.3508 14.9604 28.9785C13.8096 28.3508 12.6588 27.6185 11.5081 26.7815C9.31114 25.2123 7.53268 23.3292 5.96345 21.1323C6.38191 20.7139 6.90499 20.4 7.32345 19.9815C8.16037 22.2831 9.72961 24.1662 11.9265 25.3169C14.3327 26.6769 16.9481 26.9908 19.3542 26.1539ZM7.74191 30.5477C7.84653 29.92 8.47422 29.5015 9.10191 29.5015C9.83422 29.5015 10.4619 30.1292 10.4619 30.8615C10.4619 31.5939 9.83422 32.2215 9.10191 32.2215C8.36961 32.2215 7.74191 31.5939 7.74191 30.8615C7.74191 30.7569 7.74191 30.6523 7.74191 30.5477ZM3.34807 14.4369C3.13884 14.4369 3.03422 14.4369 2.82499 14.3323C2.09268 14.0185 1.88345 13.1815 2.1973 12.5538C2.40653 12.0308 2.92961 11.7169 3.45268 11.7169C4.18499 11.7169 4.81268 12.3446 4.81268 13.0769C4.81268 13.8092 4.18499 14.4369 3.34807 14.4369ZM7.95114 27.9323C6.90499 28.3508 6.17268 29.2923 6.06807 30.4431C4.08038 30.6523 2.72037 30.1292 2.09268 29.2923C1.15114 27.8277 2.1973 25.1077 4.70807 22.4923C6.17268 24.5846 7.84653 26.3631 9.83422 27.9323C9.31114 27.6185 8.57884 27.7231 7.95114 27.9323Z" fill="#262626"/>
<path d="M10.5672 13.2862C10.358 13.3908 10.1488 13.4954 10.1488 13.8092C10.0442 14.0185 10.0442 14.2277 10.1488 14.5416C10.4626 15.1692 10.8811 15.7969 11.2995 16.32C11.6134 16.6339 11.8226 17.0523 12.0319 17.3662C12.7642 18.3077 13.7057 19.1446 14.7519 19.7723C15.5888 20.2954 16.5303 20.5046 17.4719 20.5046C17.8903 20.5046 18.4134 20.4 18.8319 20.2954C19.1457 20.1908 19.4595 20.0862 19.6688 19.8769C19.9826 20.4 20.2965 20.9231 20.4011 21.5508C20.5057 21.8646 20.8195 22.1785 21.238 22.1785C21.3426 22.1785 21.4472 22.1785 21.5519 22.1785C21.9703 22.0739 22.2842 21.5508 22.0749 21.1323C21.7611 20.2954 21.3426 19.4585 20.8195 18.7262V18.6216C21.238 17.68 21.238 16.5292 20.8195 15.5877C20.2965 14.3323 19.2503 13.3908 17.9949 12.9723C14.6472 11.4031 10.6719 13.1816 10.5672 13.2862ZM14.9611 14.96C14.7519 15.0646 14.6472 15.2739 14.5426 15.4831C14.438 15.9016 14.7519 16.4246 15.1703 16.5292C16.4257 16.9477 17.6811 17.5754 18.6226 18.5169C18.518 18.5169 18.4134 18.6216 18.3088 18.6216C17.3672 18.8308 16.4257 18.7262 15.5888 18.2031C14.8565 17.68 14.1242 17.1569 13.4965 16.4246C13.1826 16.1108 12.9734 15.7969 12.6595 15.4831C12.4503 15.1692 12.2411 14.8554 12.0319 14.5416C13.2872 14.1231 15.4842 13.7046 17.3672 14.3323C17.7857 14.5416 18.2042 14.7508 18.518 15.0646C18.8319 15.3785 19.0411 15.6923 19.2503 16.1108C19.3549 16.4246 19.4595 16.7385 19.4595 17.0523C18.3088 16.0062 16.9488 15.2739 15.4842 14.8554C15.3795 14.7508 15.1703 14.8554 14.9611 14.96Z" fill="#262626"/>
</g>
<defs>
<clipPath id="clip0_2668_5232">
<rect width="32.2215" height="34" fill="white"/>
</clipPath>
</defs>
</svg>
