<svg xmlns="http://www.w3.org/2000/svg" width="38" height="38" viewBox="0 0 38 38" fill="none">
  <path d="M33.9543 18.9576C38.0212 25.4816 39.631 32.175 35.903 35.903C32.3445 39.3768 26.0747 38.3601 18.9576 33.9543C11.9253 38.3601 5.65552 39.3768 2.09699 35.903C-1.631 32.175 -0.0211851 25.4816 4.04571 18.9576C-0.0211851 12.5184 -1.631 5.82497 2.09699 2.09699C5.82497 -1.631 12.5184 -0.0211851 18.9576 4.04571C25.4816 -0.0211851 32.175 -1.631 35.903 2.09699C39.631 5.82497 38.0212 12.5184 33.9543 18.9576ZM14.2129 30.4805C12.01 28.7012 9.97659 26.7525 7.51951 23.7871C5.40134 27.854 4.89297 30.9889 5.99442 32.0056C7.01115 33.107 10.2308 32.5987 14.2129 30.4805ZM7.51951 14.2129C9.12932 12.1795 12.1795 9.12932 14.2129 7.51951C11.5864 6.07915 9.29877 5.40134 7.77369 5.40134C6.92642 5.40134 6.33333 5.57079 5.99442 5.99442C4.89297 7.01115 5.40134 10.146 7.51951 14.2129ZM27.3456 19.0424C25.3969 16.3311 21.6689 12.6031 19.0424 10.5697C16.3311 12.6031 12.6031 16.3311 10.6544 19.0424C12.7726 21.9231 15.2297 24.4649 18.9576 27.3456C21.9231 25.1427 24.4649 22.7703 27.3456 19.0424ZM21.7536 18.9576V19.0424C21.7536 20.4827 20.4827 21.7536 18.9576 21.7536C17.5173 21.7536 16.2464 20.4827 16.2464 19.0424C16.2464 17.5173 17.5173 16.2464 18.9576 16.2464H19.0424C20.4827 16.2464 21.7536 17.5173 21.7536 18.9576ZM32.0056 5.99442C31.6667 5.57079 31.0736 5.40134 30.2263 5.40134C28.7012 5.40134 26.4136 6.07915 23.7871 7.51951C25.8205 9.12932 28.8707 12.1795 30.4805 14.2129C32.5987 10.146 33.107 7.01115 32.0056 5.99442ZM30.4805 23.7871C28.0234 26.7525 25.99 28.7012 23.7871 30.4805C27.7692 32.5987 30.9889 33.107 32.0056 32.0056C33.107 30.9889 32.5987 27.854 30.4805 23.7871Z" fill="url(#paint0_linear_2217_320)"/>
  <defs>
    <linearGradient id="paint0_linear_2217_320" x1="36.7807" y1="37.5665" x2="-7.91152" y2="32.1415" gradientUnits="userSpaceOnUse">
      <stop stop-color="#00A5C9"/>
      <stop offset="1" stop-color="#00E7A1"/>
    </linearGradient>
  </defs>
</svg>
