<svg xmlns="http://www.w3.org/2000/svg" width="33" height="40" viewBox="0 0 33 40" fill="none">
  <path d="M32.4219 27.8906C32.3438 31.9531 30.7812 35.625 28.2812 38.4375C27.3438 39.4531 26.0156 40 24.5312 40H7.8125C6.48438 40 5.07812 39.4531 4.14062 38.4375C1.5625 35.5469 0 31.7188 0 27.5C0 21.25 3.51562 15.8594 8.75 13.2031V7.5H13.75V16.1719C12.1094 17.0312 5.85938 19.2188 5.07812 26.25C10.2344 23.6719 15 23.8281 19.2188 25.9375C22.7344 27.6562 25.625 27.5 27.4219 27.5C27.4219 20.3906 21.5625 17.7344 18.75 16.25V7.5H23.75V13.2812C28.9844 16.0938 32.5781 21.6406 32.4219 27.8906ZM7.5 5C6.79688 5 6.25 4.45312 6.25 3.75V1.25C6.25 0.625 6.79688 0 7.5 0H25C25.625 0 26.25 0.625 26.25 1.25V3.75C26.25 4.45312 25.625 5 25 5H7.5Z" fill="url(#paint0_linear_2163_1294)"/>
  <defs>
    <linearGradient id="paint0_linear_2163_1294" x1="31.3863" y1="39.557" x2="-6.94223" y2="35.7866" gradientUnits="userSpaceOnUse">
      <stop stop-color="#00A5C9"/>
      <stop offset="1" stop-color="#00E7A1"/>
    </linearGradient>
  </defs>
</svg>
