<svg width="32" height="34" viewBox="0 0 32 34" fill="none" xmlns="http://www.w3.org/2000/svg">
<g clip-path="url(#clip0_3934_1699)">
<path d="M17.2121 3.50632C16.8934 2.33757 15.9371 1.48757 14.7684 1.38132L4.88711 7.05123e-05C3.29336 -0.21243 1.91211 0.956321 1.69961 2.55007C1.59336 3.61257 2.01836 4.67507 2.97461 5.31257L0.105859 26.8813C-0.106641 28.5813 0.318359 30.1751 1.38086 31.5563C2.44336 32.9376 3.93086 33.7876 5.52461 34.0001C5.73711 34.0001 6.05586 34.0001 6.37461 34.0001C7.75586 34.0001 9.13711 33.5751 10.1996 32.7251C11.5809 31.6626 12.4309 30.1751 12.6434 28.5813L15.5121 7.01257C16.7871 6.48132 17.6371 4.99382 17.2121 3.50632ZM1.91211 27.0938L3.18711 17.4251C3.93086 17.7438 4.67461 18.0626 5.52461 18.2751C5.73711 18.2751 5.84336 18.3813 6.05586 18.3813C6.90586 18.4876 7.64961 18.4876 8.49961 18.3813C9.24336 18.2751 9.88086 18.2751 10.6246 18.3813C11.1559 18.3813 11.6871 18.5938 12.1121 18.8063L10.8371 28.4751C10.5184 30.9188 8.28711 32.6188 5.84336 32.3001C3.29336 31.7688 1.59336 29.5376 1.91211 27.0938ZM9.56211 16.3626C9.13711 16.3626 8.71211 16.3626 8.28711 16.4688C7.86211 16.4688 7.54336 16.5751 7.22461 16.5751L4.67461 16.0438C4.24961 15.9376 3.93086 15.7251 3.50586 15.4063L3.82461 13.3876L5.94961 13.7063C6.48086 13.8126 6.90586 13.3876 7.01211 12.8563C7.11836 12.3251 6.69336 11.9001 6.26836 11.7938L4.14336 11.4751L4.46211 9.35007L6.58711 9.66882C6.79961 9.66882 7.11836 9.66882 7.22461 9.45632C7.43711 9.35007 7.54336 9.13757 7.54336 8.81882C7.64961 8.28757 7.22461 7.86257 6.79961 7.75632L4.67461 7.43757L4.99336 4.78132C5.09961 4.35632 4.78086 3.93132 4.35586 3.82507C3.93086 3.82507 3.71836 3.61257 3.61211 3.40007C3.50586 3.18757 3.50586 2.86882 3.61211 2.55007C3.71836 2.12507 4.14336 1.80632 4.67461 1.80632L14.5559 3.18757C15.0871 3.29382 15.5121 3.82507 15.5121 4.35632C15.4059 4.88757 15.0871 5.20632 14.5559 5.31257C14.1309 5.31257 13.8121 5.63132 13.7059 6.16257L12.3246 16.8938C11.7934 16.6813 11.3684 16.5751 10.8371 16.5751C10.3059 16.3626 9.98711 16.3626 9.56211 16.3626Z" fill="#262626"/>
<path d="M4.25 26.2438C4.56875 26.2438 4.8875 26.1376 5.1 25.9251C5.41875 25.7126 5.63125 25.2876 5.63125 24.9688C5.7375 24.1188 5.20625 23.3751 4.35625 23.2688C3.50625 23.1626 2.7625 23.6938 2.65625 24.5438C2.65625 24.9688 2.65625 25.2876 2.975 25.6063C3.1875 25.9251 3.6125 26.1376 3.93125 26.1376C4.14375 26.2438 4.14375 26.2438 4.25 26.2438Z" fill="#262626"/>
<path d="M7.33042 30.175C7.43667 30.175 7.43667 30.175 7.54292 30.175C7.86167 30.175 8.18042 30.0687 8.39292 29.8562C8.71167 29.6437 8.81792 29.325 8.92417 28.9C9.03042 28.1562 8.49917 27.5187 7.75542 27.4125C7.01167 27.3062 6.37417 27.8375 6.26792 28.5812C6.05542 29.4312 6.58667 30.0687 7.33042 30.175ZM7.54292 28.9C7.43667 28.7937 7.43667 28.9 7.54292 28.9V28.9Z" fill="#262626"/>
<path d="M8.49904 23.2687C8.60529 23.2687 8.60529 23.2687 8.71154 23.2687C9.13654 23.2687 9.45529 23.1625 9.77404 22.95C10.0928 22.6312 10.4115 22.3125 10.4115 21.7812C10.5178 21.3562 10.3053 20.8249 10.0928 20.5062C9.77404 20.1874 9.45529 19.8687 8.92404 19.8687C8.49904 19.7625 8.07404 19.8687 7.64904 20.1875C7.33029 20.5062 7.01154 20.825 7.01154 21.3562C6.90529 22.2062 7.54279 23.1624 8.49904 23.2687ZM8.18029 21.4625C8.18029 21.3562 8.28654 21.2499 8.39279 21.1437C8.49904 21.0374 8.60529 21.0374 8.71154 21.0374C8.71154 21.0374 8.71154 21.0374 8.81779 21.0374C8.92404 21.0374 9.03029 21.1437 9.13654 21.25C9.24279 21.3562 9.24279 21.4624 9.24279 21.6749C9.24279 21.9937 8.92404 22.2062 8.60529 22.0999C8.49904 22.0999 8.39279 21.9937 8.28654 21.8875C8.28654 21.7812 8.18029 21.5687 8.18029 21.4625Z" fill="#262626"/>
<path d="M23.5875 17.6375C19.0188 17.6375 15.4062 21.3562 15.4062 25.8187C15.4062 30.3875 19.125 34 23.5875 34C28.05 34 31.7688 30.2812 31.7688 25.8187C31.7688 21.2499 28.05 17.6375 23.5875 17.6375ZM19.8688 20.7187C20.9313 19.975 22.2063 19.55 23.4813 19.55C26.8813 19.55 29.75 22.3124 29.75 25.8187C29.75 27.2 29.325 28.3687 28.5813 29.4312L19.8688 20.7187ZM27.2 30.8125C26.1375 31.5562 24.8625 31.9812 23.4813 31.9812C20.0813 31.9812 17.2125 29.2187 17.2125 25.7125C17.2125 24.4375 17.6375 23.1624 18.3812 22.0999L27.2 30.8125Z" fill="#262626"/>
</g>
<defs>
<clipPath id="clip0_3934_1699">
<rect width="31.7688" height="34" fill="white"/>
</clipPath>
</defs>
</svg>
