<svg xmlns="http://www.w3.org/2000/svg" width="91" height="90" viewBox="0 0 91 90" fill="none">
    <g clip-path="url(#clip0_2163_771)">
        <path fill-rule="evenodd" clip-rule="evenodd" d="M90.0991 45.8921C90.0991 42.3238 87.9185 40.1432 84.3502 40.1432H84.152H72.3568C71.8612 40.1432 71.663 40.0441 71.3656 39.6476L61.5529 26.8612L58.0837 22.3018C57.3884 21.4019 56.4567 20.1814 55.5674 19.0163C54.3016 17.3579 53.1215 15.8119 52.8304 15.4626L52.7313 15.3634C52.5504 15.1223 52.3737 14.8852 52.1993 14.6514L52.1992 14.6513C51.5136 13.7319 50.8654 12.8626 50.1542 11.9934C49.8568 11.5969 49.8568 11.4978 50.0551 11.1013C52.1366 8.22687 51.641 4.163 48.9648 1.78414C46.2886 -0.594714 42.3238 -0.594714 39.5485 1.78414C36.8722 4.163 36.3767 8.12775 38.4582 11.1013C38.7555 11.4978 38.7555 11.5969 38.4582 11.8943C34.8909 16.5019 31.3485 21.1343 27.8061 25.7667L27.8057 25.7672L27.8054 25.7677L27.805 25.7681L27.8046 25.7686L27.8043 25.7691L27.8039 25.7695L27.8036 25.77L27.8032 25.7705L27.8029 25.7709L27.8025 25.7714C24.2591 30.405 20.7157 35.0387 17.1476 39.6476C16.9493 39.9449 16.652 40.0441 16.2555 40.0441H5.45154C2.27974 40.1432 0 42.4229 0 45.5947V84.5485C0 87.7203 2.27974 90 5.45154 90H45.0991H84.7467C87.9185 90 90.1982 87.7203 90.1982 84.5485V81.8722L90.0991 45.8921ZM44.2071 10.804C42.1256 10.804 40.5396 9.11894 40.5396 7.03744C40.5396 4.95595 42.2247 3.37004 44.3062 3.37004C45.2974 3.37004 46.2886 3.76652 46.9824 4.46035C47.6762 5.15418 48.0727 6.14537 48.0727 7.13656C47.9736 9.21806 46.2885 10.804 44.2071 10.804ZM41.2335 13.7775C41.4317 13.5793 41.4317 13.5793 41.7291 13.6784C43.4141 14.3722 45.1982 14.3722 46.8833 13.6784C47.1806 13.5793 47.1806 13.5793 47.3789 13.7775C48.37 15.1652 49.3612 16.4537 50.4515 17.7423L50.848 18.2379C50.8859 18.2757 50.9093 18.3136 50.9293 18.3459C50.9616 18.3983 50.985 18.4361 51.0463 18.4361C51.9073 19.5727 52.9478 20.9366 54.0888 22.4322C56.2316 25.241 58.7288 28.5144 61.0573 31.6189L67.4009 39.8458C67.4009 39.8954 67.4257 39.9202 67.4504 39.9449C67.4752 39.9697 67.5 39.9945 67.5 40.0441H21.1123L24.7797 35.2863C26.7486 32.7089 28.7304 30.1315 30.7157 27.5495L30.7158 27.5494C34.2277 22.982 37.7508 18.4 41.2335 13.7775ZM86.7291 81.9714V84.2511C86.7291 85.9361 86.0352 86.63 84.3502 86.63H5.64978C3.96476 86.63 3.27093 85.9361 3.27093 84.2511V45.793C3.27093 44.1079 3.96476 43.4141 5.64978 43.4141H84.2511C86.0352 43.4141 86.7291 44.1079 86.7291 45.8921V80.5837V81.4758V81.9714ZM47.477 57.9819L47.4775 57.9843C47.6758 59.0003 47.874 60.0164 48.0723 61.0572L48.0771 61.0816C48.178 61.5877 48.3888 62.6447 49.5591 62.7423C50.1538 62.8414 50.6494 62.6432 50.9467 62.2467C51.3432 61.8502 51.4423 61.1564 51.3432 60.3634C50.6494 56.7951 49.9555 53.2269 49.2617 49.7577L49.0635 48.8656C48.8652 47.6762 48.1714 46.9824 47.1802 46.9824C46.189 46.9824 45.4952 47.5771 45.1978 48.6674L44.4049 51.5418L44.4048 51.542L44.4048 51.5421L44.4048 51.5421L44.4048 51.5422L44.4048 51.5422L44.4048 51.5423L44.4048 51.5423L44.4047 51.5424L44.4047 51.5424L44.4047 51.5425C44.0083 53.029 43.6119 54.5156 43.1163 56.0022L42.7199 54.7136L40.9357 48.7665C40.4401 47.1806 39.4489 46.9824 38.8542 47.0815C37.863 47.1806 37.1692 47.8744 36.971 48.9647L36.4754 51.8392C36.3267 52.5824 36.2029 53.3256 36.079 54.0688L36.079 54.0689L36.079 54.069L36.079 54.069L36.0789 54.0691L36.0789 54.0691L36.0789 54.0692L36.0789 54.0692L36.0789 54.0693L36.0789 54.0694L36.0788 54.0698L36.0788 54.0698L36.0788 54.0699L36.0788 54.0699L36.0788 54.07L36.0788 54.07L36.0788 54.0701L36.0787 54.0702L36.0787 54.0702C35.9549 54.8133 35.831 55.5564 35.6824 56.2995L35.5833 56.9934C35.4842 57.6376 35.3603 58.2819 35.2364 58.9262C35.1125 59.5705 34.9886 60.2147 34.8895 60.859C34.7903 61.7511 35.2859 62.4449 36.178 62.6432C37.0701 62.8414 37.863 62.3458 38.1604 61.4537C38.2595 61.2555 38.2595 60.9581 38.2595 60.7599L39.3498 54.9119L39.4489 55.4075C39.7463 56.3491 40.0189 57.2907 40.2914 58.2324C40.564 59.174 40.8366 60.1156 41.134 61.0572C41.5304 62.2467 42.1251 62.8414 43.0172 62.8414H43.1163C44.1075 62.7423 44.7022 62.2467 44.9996 61.0572C45.5943 59.4713 46.0899 57.6872 46.5855 55.9031L46.8829 54.9119C47.0809 55.9515 47.2789 56.9665 47.4769 57.9814L47.477 57.9815L47.477 57.9815L47.477 57.9816L47.477 57.9816L47.477 57.9817L47.477 57.9817L47.477 57.9818L47.477 57.9819ZM72.4563 68.4912C72.7536 68.8877 72.9519 69.3833 72.9519 69.978C73.051 72.5551 73.051 75.1322 72.9519 77.7093V81.7731C72.9519 82.7643 72.5554 83.4582 71.6633 83.7555C70.8704 84.0529 70.0774 83.7555 69.4827 82.8634C68.7889 81.8723 68.0951 80.8563 67.4012 79.8403C66.7074 78.8244 66.0136 77.8084 65.3197 76.8172L64.1303 75.1322V76.0242V81.674C64.1303 82.0705 64.1303 82.3679 64.0312 82.6652C63.8329 83.4582 63.2382 83.9538 62.4453 83.9538C61.6523 83.9538 60.9585 83.4582 60.8594 82.5661V81.9714V78.4031V70.1762C60.8594 69.3833 61.0576 68.4912 62.1479 68.1939C63.2833 67.91 63.8768 68.7099 64.187 69.1281L64.2294 69.185C64.9728 70.2753 65.741 71.3904 66.5092 72.5055C67.2773 73.6206 68.0455 74.7357 68.7889 75.826L69.681 77.1146V74.6366V70.0771C69.681 68.8877 70.2757 68.0947 71.2669 68.0947C71.7625 68.0947 72.1589 68.1938 72.4563 68.4912ZM56.6953 59.0749V61.2555C56.6953 62.2467 57.3891 62.9405 58.2812 62.9405H58.3803C59.2724 62.9405 59.8671 62.3458 60.0654 61.4537V60.7599V54.1189L61.1557 55.7048L61.1558 55.7051C62.5434 57.6874 63.931 59.6697 65.3187 61.7511C65.7151 62.3458 66.409 63.1387 67.5984 62.8414C68.7878 62.4449 68.8869 61.4537 68.8869 60.6608C68.8869 57.9846 68.8869 55.3083 68.7878 52.6321V49.2621V48.6674C68.6887 47.6762 67.8958 47.0815 67.1028 47.1806C66.2107 47.1806 65.5169 47.9735 65.5169 48.8656V52.2357V54.0198V56.2004L64.5257 54.8128C63.7823 53.7224 63.0141 52.6321 62.2459 51.5418C61.4778 50.4515 60.7096 49.3612 59.9662 48.2709C59.5698 47.7753 58.975 47.0815 57.9839 47.3788C56.7944 47.7753 56.7944 48.8656 56.7944 49.2621V55.8039L56.6953 59.0749ZM46.7836 70.4736C48.2704 68.9868 50.2528 68.0947 52.4334 68.0947C56.7947 68.0947 60.3629 71.663 60.3629 76.0242C60.3629 78.2049 59.57 80.1872 58.0832 81.674C56.5964 83.1608 54.5149 84.0529 52.4334 84.0529C48.0722 84.0529 44.5039 80.4846 44.5039 76.1234C44.5039 73.9427 45.2969 71.9604 46.7836 70.4736ZM52.4334 80.6828C55.0105 80.6828 57.092 78.7005 57.092 76.1234C57.092 74.9339 56.5964 73.7445 55.8035 72.8524C54.9114 71.9604 53.722 71.4648 52.5325 71.4648C49.9554 71.4648 47.8739 73.4472 47.8739 76.0242C47.7748 77.3128 48.2704 78.4031 49.1625 79.2952C50.0546 80.1872 51.244 80.6828 52.4334 80.6828ZM21.311 60.5617C22.7978 62.0484 24.7801 62.9405 26.9608 62.9405C29.0423 62.9405 31.0246 62.1476 32.6105 60.6608C34.0973 59.174 34.9894 57.1916 34.9894 55.011C34.9894 50.6498 31.4211 46.9824 27.0599 46.9824C22.6986 46.9824 19.1304 50.5506 19.0312 54.9119C19.0312 57.0925 19.8242 59.0749 21.311 60.5617ZM22.4013 55.011C22.4013 52.4339 24.4828 50.3524 26.9608 50.3524C29.5379 50.3524 31.5202 52.3348 31.6194 54.9119C31.6194 56.2004 31.1238 57.2907 30.3308 58.1828C29.4387 59.0749 28.3484 59.5705 27.0599 59.5705C24.4828 59.5705 22.4013 57.5881 22.4013 55.011ZM81.2775 53.326H82.467C83.5573 53.326 84.2511 54.0198 83.9538 55.011C84.0529 59.174 81.3767 62.4449 77.6102 62.8414H76.8172C73.1498 62.8414 69.7797 60.1652 69.0859 56.5969C68.3921 53.2269 69.4824 50.4515 72.2577 48.4691C74.9339 46.5859 78.0066 46.3876 80.9802 48.0727C82.1696 48.7665 82.1696 49.5595 82.0705 50.1542C81.9714 50.6498 81.674 51.0462 81.1784 51.2445C80.5837 51.4427 79.989 51.3436 79.4934 51.0462C78.2049 50.2533 77.0154 50.055 75.6278 50.4515C73.2489 51.1454 71.8612 53.6233 72.5551 56.1013C73.2489 58.4802 75.7269 59.9669 78.0066 59.3722C79.2952 59.0749 80.0881 58.1828 80.5837 56.5969H78.7996C77.8084 56.5969 77.1146 56.0022 77.1146 55.011C77.1146 54.0198 77.8084 53.326 78.8987 53.326H80.1872H80.782H81.2775ZM36.9719 68.1938C36.179 68.0947 35.5842 68.2929 35.1878 68.5903C34.8904 68.8876 34.6922 69.2841 34.6922 69.6806C34.6922 70.2753 34.8904 71.3656 36.5754 71.4647C39.0534 71.663 40.9367 73.7445 40.8375 76.3216C40.7384 78.7995 38.6569 80.6828 36.0798 80.6828C33.6019 80.6828 31.6195 78.6013 31.6195 76.1233C31.6195 75.1321 31.9168 74.2401 32.5116 73.348C33.1063 72.4559 32.908 71.5639 32.016 70.9691C31.223 70.4735 30.3309 70.6718 29.7362 71.4647C29.6867 71.5638 29.6124 71.6629 29.538 71.762L29.538 71.7621C29.4636 71.8612 29.3893 71.9603 29.3397 72.0594C27.6547 74.9339 27.9521 78.6013 30.1327 81.1784C31.6195 82.9625 33.8992 83.9537 36.179 83.9537C37.071 83.9537 37.9631 83.7555 38.8552 83.4581C42.027 82.3678 44.1085 79.2951 44.1085 75.9251C44.2076 71.9603 41.0358 68.4912 36.9719 68.1938ZM24.4664 74.6945C24.7314 74.7775 25.0361 74.873 25.2762 75.0331C27.3577 75.9251 28.448 77.7093 28.3489 79.4934C28.1506 81.4758 26.4656 83.2599 24.3841 83.7555C23.7894 83.8546 23.1947 83.9538 22.6 83.9538C20.6176 83.9538 18.9326 83.1608 17.3467 81.674C16.9502 81.2775 16.752 80.8811 16.752 80.3855C16.752 79.8899 16.9502 79.4934 17.2475 79.1961C17.9414 78.5022 18.9326 78.6013 19.7255 79.2952C20.6176 80.1872 21.7079 80.5837 22.9964 80.5837C23.2938 80.5837 23.5911 80.4846 23.8884 80.3855L23.8885 80.3855C24.5823 79.989 24.8797 79.5925 24.8797 79.0969C24.8797 78.5022 24.3841 78.2049 23.9876 78.0066C23.6903 77.9075 23.3929 77.7836 23.0956 77.6597C22.7982 77.5358 22.5009 77.4119 22.2035 77.3128L20.122 76.4207C18.3379 75.6278 17.4458 74.4383 17.3467 72.8524C17.2475 71.1674 17.9414 69.8789 19.4282 68.8877C20.3202 68.293 21.3114 67.9956 22.6 67.9956C24.1859 68.0947 25.5735 68.5903 26.9612 69.5815C27.7542 70.1762 27.9524 71.1674 27.4568 71.9604C27.2586 72.3568 26.8621 72.5551 26.4656 72.6542C25.97 72.7533 25.4744 72.6542 25.0779 72.3568C24.0868 71.663 23.1947 71.4648 22.3026 71.4648C21.9061 71.5639 21.5097 71.663 21.2123 71.8612C20.9149 72.0595 20.7167 72.3568 20.7167 72.6542C20.7167 72.8524 20.9149 73.1498 21.2123 73.348C21.7079 73.7445 22.3026 73.9427 22.8973 74.141L23.7894 74.4383C23.8885 74.4879 23.9628 74.5127 24.0372 74.5375C24.1115 74.5622 24.1859 74.587 24.285 74.6366C24.3423 74.6557 24.4032 74.6748 24.4664 74.6945ZM19.0305 58.381C18.7331 58.0837 18.3366 57.8854 17.9402 57.8854C17.4446 57.8854 16.949 58.0837 16.4534 58.5793C15.9578 59.0749 15.4622 59.3722 14.9666 59.4713C13.1825 59.9669 11.101 59.174 10.0107 57.489C8.92034 55.8039 9.11858 53.5242 10.4071 52.0374C11.8939 50.3524 14.2728 49.9559 16.3543 51.1454C17.7419 51.9383 18.4358 51.2445 18.7331 50.848C19.0305 50.4515 19.1296 49.9559 19.0305 49.5594C18.9314 49.0639 18.5349 48.5683 18.0393 48.2709C15.3631 46.685 12.6869 46.685 10.0107 48.1718C7.43356 49.5594 6.04589 51.9383 5.84766 55.011C5.94678 57.489 6.83885 59.4713 8.72211 61.0572C10.2089 62.3458 12.0922 62.9405 13.8763 62.9405C15.7596 62.9405 17.5437 62.2467 18.8322 60.9581C19.6252 60.0661 19.7243 59.0749 19.0305 58.381ZM55.704 60.9581C55.704 62.1476 55.1093 62.9405 54.019 62.9405C53.6225 62.9405 53.2261 62.8414 52.9287 62.2467C52.5322 61.9493 52.334 61.3546 52.334 60.7599V48.7665C52.334 48.1718 52.5322 47.6762 52.9287 47.2797C53.2261 46.9824 53.6225 46.8832 54.1181 46.8832C55.1093 46.9824 55.704 47.6762 55.704 48.8656V53.1277V54.9119V56.696V60.9581Z" fill="url(#paint0_linear_2163_771)"/>
    </g>
    <defs>
        <linearGradient id="paint0_linear_2163_771" x1="87.3046" y1="89" x2="-0.996124" y2="88.0005" gradientUnits="userSpaceOnUse">
            <stop stop-color="#00A5C9"/>
            <stop offset="1" stop-color="#00E7A1"/>
        </linearGradient>
        <clipPath id="clip0_2163_771">
            <rect width="90.0991" height="90" fill="white"/>
        </clipPath>
    </defs>
</svg>