<svg width="101" height="100" viewBox="0 0 101 100" fill="none" xmlns="http://www.w3.org/2000/svg">
<g clip-path="url(#clip0_2657_2364)">
<path fill-rule="evenodd" clip-rule="evenodd" d="M100.11 50.9912C100.11 47.0264 97.6872 44.6035 93.7225 44.6035H93.5022H80.3965C79.8458 44.6035 79.6256 44.4934 79.2952 44.0529L68.3921 29.8458L64.5375 24.7797C63.7649 23.78 62.7299 22.4241 61.7419 21.1296L61.7414 21.1289L61.741 21.1285C60.3348 19.2862 59.0238 17.5687 58.7004 17.1806L58.5903 17.0705C58.3894 16.8025 58.1929 16.5391 57.9992 16.2793C57.2373 15.2577 56.5171 14.2918 55.7269 13.326C55.3965 12.8855 55.3965 12.7753 55.6167 12.3348C57.9295 9.14097 57.3789 4.62555 54.4053 1.98238C51.4317 -0.660793 47.0264 -0.660793 43.9427 1.98238C40.9692 4.62555 40.4185 9.03084 42.7313 12.3348C43.0617 12.7753 43.0617 12.8855 42.7313 13.2159C38.7676 18.3356 34.8314 23.4829 30.8953 28.6302L30.8949 28.6307L30.8946 28.6311L30.8942 28.6316L30.8938 28.632L30.8935 28.6325L30.8931 28.633L30.8928 28.6334L30.8924 28.6339L30.8921 28.6344L30.8916 28.635C26.9545 33.7834 23.0175 38.9319 19.0529 44.0529C18.8326 44.3833 18.5022 44.4934 18.0617 44.4934H6.05727C2.53304 44.6035 0 47.1366 0 50.6608V93.9427C0 97.467 2.53304 100 6.05727 100H50.1101H94.163C97.6872 100 100.22 97.467 100.22 93.9427V90.9692L100.11 50.9912ZM49.1189 12.0044C46.8062 12.0044 45.0441 10.1322 45.0441 7.81938C45.0441 5.50661 46.9163 3.74449 49.2291 3.74449C50.3304 3.74449 51.4317 4.18502 52.2027 4.95595C52.9736 5.72687 53.4141 6.82819 53.4141 7.92952C53.304 10.2423 51.4317 12.0044 49.1189 12.0044ZM45.815 15.3084C46.0352 15.0881 46.0352 15.0881 46.3656 15.1982C48.2379 15.9692 50.2203 15.9692 52.0925 15.1982C52.4229 15.0881 52.4229 15.0881 52.6432 15.3084C53.7445 16.8502 54.8458 18.2819 56.0573 19.7137L56.4978 20.2643C56.5399 20.3064 56.5659 20.3484 56.5881 20.3844C56.624 20.4425 56.65 20.4846 56.7181 20.4846C57.6732 21.7453 58.8271 23.2579 60.0924 24.9165L60.0955 24.9206L60.0972 24.9228L60.0988 24.9248L60.099 24.9251C62.4798 28.0458 65.2544 31.6828 67.8414 35.1322L74.8899 44.2731C74.8899 44.3282 74.9174 44.3557 74.9449 44.3833C74.9725 44.4108 75 44.4383 75 44.4934H23.4582L27.533 39.207C29.7196 36.3446 31.9206 33.4821 34.1255 30.6145L34.1283 30.6109L34.1285 30.6106L34.1292 30.6097L34.1304 30.6082L34.1312 30.6071C38.0325 25.5333 41.9462 20.4433 45.815 15.3084ZM96.3656 91.0793V93.6123C96.3656 95.4846 95.5947 96.2555 93.7225 96.2555H6.27753C4.40529 96.2555 3.63436 95.4846 3.63436 93.6123V50.8811C3.63436 49.0088 4.40529 48.2379 6.27753 48.2379H93.6123C95.5947 48.2379 96.3656 49.0088 96.3656 50.9912V89.5374V90.5286V91.0793ZM51.7617 62.1145L52.0921 61.0132C52.3123 62.1696 52.5326 63.2984 52.7529 64.4273C52.9731 65.5561 53.1934 66.685 53.4136 67.8414L53.4191 67.8685C53.5312 68.4308 53.7653 69.6053 55.0656 69.7136C55.7264 69.8238 56.2771 69.6035 56.6075 69.163C57.048 68.7224 57.1581 67.9515 57.048 67.0705L57.0476 67.0683L57.0473 67.067L57.0471 67.0657L57.0468 67.0644L57.0466 67.0631L57.0463 67.0618L57.0461 67.0605L57.0458 67.0592L57.0456 67.0579L57.0453 67.0566C56.2753 63.0965 55.5053 59.1365 54.7352 55.2863L54.515 54.2951C54.2947 52.9735 53.5238 52.2026 52.4225 52.2026C51.3211 52.2026 50.5502 52.8634 50.2198 54.0749L49.3388 57.2687L49.3387 57.2689C48.8982 58.9208 48.4577 60.5727 47.907 62.2246L47.4665 60.7929L45.4841 54.185C44.9335 52.4229 43.8321 52.2026 43.1714 52.3128C42.07 52.4229 41.2991 53.1938 41.0788 54.4053L40.5282 57.5991C40.363 58.4251 40.2253 59.2511 40.0877 60.0771C39.95 60.9031 39.8123 61.729 39.6471 62.555L39.537 63.326C39.4269 64.0418 39.2892 64.7577 39.1515 65.4735C39.0139 66.1894 38.8762 66.9053 38.7661 67.6211C38.6559 68.6123 39.2066 69.3832 40.1978 69.6035C41.189 69.8238 42.07 69.2731 42.4004 68.2819C42.5106 68.0617 42.5106 67.7313 42.5106 67.511L43.722 61.0132L43.8321 61.5639C44.1625 62.6101 44.4654 63.6564 44.7683 64.7026C45.0711 65.7489 45.374 66.7951 45.7044 67.8414C46.1449 69.163 46.8057 69.8238 47.7969 69.8238H47.907C49.0084 69.7136 49.6692 69.163 49.9995 67.8414C50.6603 66.0793 51.211 64.0969 51.7617 62.1145ZM80.507 76.1013C80.8374 76.5419 81.0576 77.0925 81.0576 77.7533C81.1678 80.6168 81.1678 83.4802 81.0576 86.3436V90.859C81.0576 91.9604 80.6171 92.7313 79.6259 93.0617C78.7449 93.3921 77.8638 93.0617 77.203 92.0705C76.4321 90.9691 75.6611 89.8402 74.8901 88.7113L74.8892 88.7099L74.8889 88.7095L74.8886 88.7091L74.8883 88.7086L74.888 88.7082L74.8877 88.7078L74.8874 88.7073L74.8871 88.7069C74.1172 87.5796 73.3474 86.4522 72.5775 85.3524L71.2559 83.4802V84.4714V90.7489V90.749C71.2559 91.1895 71.2559 91.5199 71.1458 91.8502C70.9255 92.7313 70.2647 93.282 69.3836 93.282C68.5026 93.282 67.7317 92.7313 67.6215 91.7401V91.0793V87.1145V77.9736C67.6215 77.0925 67.8418 76.1013 69.0532 75.7709C70.3148 75.4556 70.9742 76.3444 71.3189 76.809L71.366 76.8723C72.192 78.0837 73.0455 79.3227 73.8991 80.5617C74.7526 81.8007 75.6061 83.0397 76.4321 84.2511L77.4233 85.6828V82.9295V77.8634C77.4233 76.5419 78.0841 75.6608 79.1854 75.6608C79.7361 75.6608 80.1766 75.7709 80.507 76.1013ZM62.9948 65.6387V68.0616C62.9948 69.163 63.7657 69.9339 64.7569 69.9339H64.867C65.8582 69.9339 66.519 69.2731 66.7393 68.2819V67.511V60.1321L67.9507 61.8942C69.4926 64.0969 71.0344 66.2995 72.5763 68.6123C73.0168 69.2731 73.7877 70.1542 75.1093 69.8238C76.4309 69.3832 76.541 68.2819 76.541 67.4009C76.541 64.4273 76.541 61.4537 76.4309 58.4801V54.7357V54.0749C76.3208 52.9735 75.4397 52.3127 74.5587 52.4229C73.5675 52.4229 72.7966 53.3039 72.7966 54.2951V58.0396V60.022V62.4449L71.6952 60.9031C70.8692 59.6915 70.0156 58.48 69.1621 57.2685L69.1618 57.2682L69.1616 57.2678L69.1613 57.2675L69.1611 57.2671L69.1608 57.2668L69.1606 57.2664L69.1603 57.266C68.3074 56.0555 67.4545 54.8449 66.6292 53.6343C66.1886 53.0837 65.5278 52.3127 64.4265 52.6431C63.1049 53.0837 63.1049 54.2951 63.1049 54.7357V62.0044L62.9948 65.6387ZM51.9818 78.304C53.6338 76.652 55.8365 75.6608 58.2594 75.6608C63.1052 75.6608 67.0699 79.6256 67.0699 84.4714C67.0699 86.8943 66.1889 89.0969 64.5369 90.7489C62.8849 92.4009 60.5721 93.3921 58.2594 93.3921C53.4135 93.3921 49.4488 89.4273 49.4488 84.5815C49.4488 82.1586 50.3298 79.956 51.9818 78.304ZM58.2594 89.6476C61.1228 89.6476 63.4356 87.445 63.4356 84.5815C63.4356 83.2599 62.8849 81.9383 62.0039 80.9472C61.0127 79.956 59.6911 79.4053 58.3695 79.4053C55.5061 79.4053 53.1933 81.6079 53.1933 84.4714C53.0831 85.9031 53.6338 87.1146 54.625 88.1057C55.6162 89.0969 56.9378 89.6476 58.2594 89.6476ZM23.6789 67.2907C25.3309 68.9427 27.5335 69.9339 29.9564 69.9339C32.2692 69.9339 34.4718 69.0528 36.2339 67.4009C37.8859 65.7489 38.8771 63.5462 38.8771 61.1233C38.8771 56.2775 34.9124 52.2026 30.0665 52.2026C25.2207 52.2026 21.256 56.1674 21.1458 61.0132C21.1458 63.4361 22.0269 65.6387 23.6789 67.2907ZM24.8903 61.1233C24.8903 58.2599 27.2031 55.9471 29.9564 55.9471C32.8198 55.9471 35.0225 58.1498 35.1326 61.0132C35.1326 62.4449 34.582 63.6564 33.7009 64.6476C32.7097 65.6387 31.4983 66.1894 30.0665 66.1894C27.2031 66.1894 24.8903 63.9868 24.8903 61.1233ZM90.3084 59.2511H91.63C92.8414 59.2511 93.6124 60.022 93.282 61.1233C93.3921 65.7489 90.4185 69.3832 86.2335 69.8238H85.3524C81.2775 69.8238 77.5331 66.8502 76.7621 62.8854C75.9912 59.1409 77.2027 56.0573 80.2864 53.8546C83.2599 51.7621 86.674 51.5418 89.978 53.4141C91.2996 54.185 91.2996 55.0661 91.1895 55.7269C91.0793 56.2775 90.7489 56.718 90.1983 56.9383C89.5375 57.1586 88.8767 57.0484 88.326 56.718C86.8943 55.837 85.5727 55.6167 84.0309 56.0573C81.3877 56.8282 79.8458 59.5815 80.6168 62.3348C81.3877 64.978 84.141 66.6299 86.674 65.9691C88.1057 65.6387 88.9868 64.6476 89.5375 62.8854H87.5551C86.4538 62.8854 85.6828 62.2247 85.6828 61.1233C85.6828 60.022 86.4538 59.2511 87.6652 59.2511H89.0969H89.7577H90.3084ZM41.0799 75.7709C40.1988 75.6608 39.538 75.881 39.0975 76.2114C38.7671 76.5418 38.5469 76.9824 38.5469 77.4229C38.5469 78.0837 38.7671 79.2951 40.6394 79.4053C43.3927 79.6255 45.4852 81.9383 45.375 84.8017C45.2649 87.555 42.9521 89.6476 40.0887 89.6476C37.3354 89.6476 35.1328 87.3348 35.1328 84.5815C35.1328 83.4802 35.4632 82.489 36.1239 81.4978C36.7847 80.5066 36.5645 79.5154 35.5733 78.8546C34.6922 78.3039 33.701 78.5242 33.0402 79.4053C32.9852 79.5154 32.9026 79.6255 32.82 79.7356L32.8199 79.7357C32.7374 79.8458 32.6548 79.9559 32.5997 80.0661C30.7275 83.2599 31.0579 87.3348 33.4808 90.1982C35.1328 92.1806 37.6658 93.2819 40.1988 93.2819C41.19 93.2819 42.1812 93.0616 43.1724 92.7313C46.6966 91.5198 49.0094 88.1057 49.0094 84.3612C49.1195 79.9559 45.5953 76.1013 41.0799 75.7709ZM27.1849 82.9939L27.185 82.994C27.4794 83.0862 27.8179 83.1922 28.0846 83.3701C30.3974 84.3612 31.6089 86.3436 31.4987 88.326C31.2785 90.5286 29.4062 92.511 27.0935 93.0617C26.4327 93.1718 25.7719 93.282 25.1111 93.282C22.9084 93.282 21.0362 92.4009 19.2741 90.7489C18.8335 90.3084 18.6133 89.8679 18.6133 89.3172C18.6133 88.7665 18.8335 88.326 19.1639 87.9956C19.9349 87.2247 21.0362 87.3348 21.9172 88.1057C22.9084 89.0969 24.1199 89.5375 25.5516 89.5375C25.882 89.5375 26.2124 89.4273 26.5428 89.3172C27.3137 88.8767 27.6441 88.4361 27.6441 87.8855C27.6441 87.2247 27.0935 86.8943 26.6529 86.674C26.3225 86.5639 25.9921 86.4262 25.6617 86.2886C25.3313 86.1509 25.0009 86.0132 24.6706 85.9031L22.3578 84.9119C20.3754 84.0309 19.3842 82.7093 19.2741 80.9472C19.1639 79.0749 19.9349 77.6432 21.5869 76.5419C22.578 75.8811 23.6794 75.5507 25.1111 75.5507C26.8732 75.6608 28.415 76.2115 29.9569 77.3128C30.838 77.9736 31.0582 79.0749 30.5076 79.956C30.2873 80.3965 29.8468 80.6168 29.4062 80.7269C28.8556 80.837 28.3049 80.7269 27.8644 80.3965C26.7631 79.6256 25.7719 79.4053 24.7807 79.4053L24.7806 79.4053C24.3401 79.5154 23.8996 79.6256 23.5692 79.8458C23.2388 80.0661 23.0186 80.3965 23.0186 80.7269C23.0186 80.9472 23.2388 81.2775 23.5692 81.4978C24.1199 81.9383 24.7807 82.1586 25.4415 82.3789L26.4327 82.7093C26.5428 82.7643 26.6254 82.7919 26.708 82.8194C26.7906 82.8469 26.8732 82.8745 26.9833 82.9295C27.047 82.9507 27.1147 82.972 27.1849 82.9939ZM21.145 64.8678C20.8146 64.5374 20.3741 64.3172 19.9335 64.3172C19.3829 64.3172 18.8322 64.5374 18.2815 65.0881C17.7309 65.6387 17.1802 65.9691 16.6296 66.0793C14.6472 66.6299 12.3344 65.7489 11.1229 63.8766C9.91149 62.0044 10.1318 59.4713 11.5635 57.8194C13.2155 55.9471 15.8586 55.5066 18.1714 56.8282C19.7133 57.7092 20.4842 56.9383 20.8146 56.4978C21.145 56.0572 21.2551 55.5066 21.145 55.0661C21.0348 54.5154 20.5943 53.9647 20.0437 53.6343C17.0701 51.8722 14.0965 51.8722 11.1229 53.5242C8.25951 55.0661 6.71766 57.7092 6.4974 61.1233C6.60753 63.8766 7.59872 66.0793 9.69123 67.8414C11.3432 69.2731 13.4357 69.9339 15.4181 69.9339C17.5106 69.9339 19.493 69.163 20.9247 67.7313C21.8058 66.7401 21.9159 65.6387 21.145 64.8678ZM61.8934 67.7313C61.8934 69.0528 61.2326 69.9339 60.0211 69.9339C59.5806 69.9339 59.1401 69.8238 58.8097 69.163C58.3691 68.8326 58.1489 68.1718 58.1489 67.511V54.185C58.1489 53.5242 58.3691 52.9735 58.8097 52.533C59.1401 52.2026 59.5806 52.0925 60.1313 52.0925C61.2326 52.2026 61.8934 52.9735 61.8934 54.2951V59.0308V61.0132V62.9956V67.7313Z" fill="#262626"/>
</g>
<defs>
<clipPath id="clip0_2657_2364">
<rect width="100.11" height="100" fill="white"/>
</clipPath>
</defs>
</svg>
