<svg width="24" height="24" viewBox="0 0 24 24" fill="none" xmlns="http://www.w3.org/2000/svg">
<path d="M21.75 0C22.375 0 22.9062 0.21875 23.3438 0.65625C23.7812 1.09375 24 1.625 24 2.25V17.25C24 17.875 23.7812 18.4062 23.3438 18.8438C22.9062 19.2812 22.375 19.5 21.75 19.5H19.5V21.75C19.5 22.375 19.2812 22.9062 18.8438 23.3438C18.4062 23.7812 17.875 24 17.25 24H2.25C1.625 24 1.09375 23.7812 0.65625 23.3438C0.21875 22.9062 0 22.375 0 21.75V6.75C0 6.125 0.21875 5.59375 0.65625 5.15625C1.09375 4.71875 1.625 4.5 2.25 4.5H4.5V2.25C4.5 1.625 4.71875 1.09375 5.15625 0.65625C5.59375 0.21875 6.125 0 6.75 0H21.75ZM16.9688 21.75C17.1562 21.75 17.25 21.6562 17.25 21.4688V19.5H6.75C6.125 19.5 5.59375 19.2812 5.15625 18.8438C4.71875 18.4062 4.5 17.875 4.5 17.25V6.75H2.53125C2.34375 6.75 2.25 6.84375 2.25 7.03125V21.4688C2.25 21.6562 2.34375 21.75 2.53125 21.75H16.9688ZM21.4688 17.25C21.6562 17.25 21.75 17.1562 21.75 16.9688V2.53125C21.75 2.34375 21.6562 2.25 21.4688 2.25H7.03125C6.84375 2.25 6.75 2.34375 6.75 2.53125V16.9688C6.75 17.1562 6.84375 17.25 7.03125 17.25H21.4688Z" fill="#262626"/>
</svg>
