<svg width="28" height="28" viewBox="0 0 28 28" fill="none" xmlns="http://www.w3.org/2000/svg">
<g clip-path="url(#clip0_3951_2061)">
<path d="M10.3081 11.3904C13.5373 11.3904 16.1693 8.83712 16.1693 5.69521C16.1693 2.5533 13.5451 0 10.3081 0C7.07117 0 4.44702 2.5533 4.44702 5.69521C4.44702 8.83712 7.07903 11.3904 10.3081 11.3904ZM10.3081 1.67834C12.6023 1.67834 14.4644 3.48394 14.4644 5.69521C14.4644 7.90648 12.6023 9.71209 10.3081 9.71209C8.01398 9.71209 6.15193 7.90648 6.15193 5.69521C6.15193 3.48394 8.01398 1.67834 10.3081 1.67834Z" fill="#262626"/>
<path d="M15.3206 12.9495H5.30329C2.38059 12.9495 0 15.2641 0 18.1038V22.4229C0 22.8843 0.38498 23.2581 0.848527 23.2581H10.8659C11.3373 23.2581 11.7144 22.8843 11.7144 22.4229C11.7144 21.9616 11.3294 21.5877 10.8659 21.5877H1.70491V18.1117C1.70491 16.1948 3.3234 14.6358 5.30329 14.6358H15.3206C15.792 14.6358 16.1692 14.2619 16.1692 13.8006C16.1692 13.3392 15.7842 12.9654 15.3206 12.9654V12.9495Z" fill="#262626"/>
<path d="M25.3372 18.172H22.7524V15.6744C22.7524 14.6722 21.9117 13.8529 20.8825 13.8529H19.7668C18.7376 13.8529 17.8969 14.6642 17.8969 15.6744V18.172H15.312C14.2828 18.172 13.4421 18.9913 13.4421 19.9936V21.0753C13.4421 22.0776 14.2828 22.8968 15.312 22.8968H17.8969V25.3945C17.8969 26.3967 18.7376 27.216 19.7668 27.216H20.8825C21.9117 27.216 22.7524 26.3967 22.7524 25.3945V22.8968H25.3372C26.3665 22.8968 27.2071 22.0776 27.2071 21.0753V19.9936C27.2071 18.9913 26.3665 18.172 25.3372 18.172ZM18.659 21.4094H15.3199C15.1235 21.4094 14.9585 21.2583 14.9585 21.0674V19.9856C14.9585 19.7947 15.1235 19.6436 15.3199 19.6436H18.659C19.0754 19.6436 19.4133 19.3095 19.4133 18.9038V15.6665C19.4133 15.4756 19.5782 15.3244 19.7747 15.3244H20.8903C21.0867 15.3244 21.2517 15.4756 21.2517 15.6665V18.9038C21.2517 19.3095 21.5896 19.6436 22.006 19.6436H25.3451C25.5415 19.6436 25.7065 19.7947 25.7065 19.9856V21.0674C25.7065 21.2583 25.5415 21.4094 25.3451 21.4094H22.006C21.5896 21.4094 21.2517 21.7435 21.2517 22.1491V25.3865C21.2517 25.5774 21.0867 25.7285 20.8903 25.7285H19.7747C19.5782 25.7285 19.4133 25.5774 19.4133 25.3865V22.1491C19.4133 21.7435 19.0754 21.4094 18.659 21.4094Z" fill="#262626"/>
</g>
<defs>
<clipPath id="clip0_3951_2061">
<rect width="28" height="28" fill="white"/>
</clipPath>
</defs>
</svg>
