<svg width="21" height="34" viewBox="0 0 21 34" fill="none" xmlns="http://www.w3.org/2000/svg">
<path d="M19.8462 25.3146C19.2692 25.3146 18.8077 25.7383 18.8077 26.2679V28.2804C18.8077 29.2336 18.3462 30.1869 17.6538 30.9284C16.8462 31.6698 15.9231 31.9875 14.7692 31.9875C13.7308 31.9875 12.6923 31.5639 11.8846 30.9284C11.0769 30.1869 10.7308 29.3396 10.7308 28.2804V24.1495H12.8077C13.3846 24.1495 13.8462 23.7259 13.8462 23.1963V21.6075H17.1923C17.7692 21.6075 18.3462 21.3956 18.8077 20.972C19.2692 20.5483 19.5 20.0187 19.5 19.4891V2.11838C19.5 1.58879 19.2692 1.05919 18.8077 0.635514C18.3462 0.211838 17.7692 0 17.1923 0H2.30769C1.73077 0 1.15385 0.211838 0.692308 0.635514C0.230769 1.05919 0 1.58879 0 2.11838V19.595C0 20.1246 0.230769 20.6542 0.692308 21.0779C1.15385 21.5016 1.73077 21.7134 2.30769 21.7134H5.65385V23.3022C5.65385 23.8318 6.11539 24.2555 6.69231 24.2555H8.76923V28.3863C8.76923 29.8692 9.46154 31.2461 10.6154 32.3053C11.7692 33.3645 13.2692 34 14.8846 34C16.5 34 18 33.3645 19.1538 32.3053C20.3077 31.2461 21 29.8692 21 28.3863V26.3738C20.8846 25.7383 20.4231 25.3146 19.8462 25.3146ZM2.07692 18.2181H3.57692C4.15385 18.2181 4.61539 17.7944 4.61539 17.2648C4.61539 16.7352 4.15385 16.3115 3.57692 16.3115H2.07692V15.0405H3.57692C4.15385 15.0405 4.61539 14.6168 4.61539 14.0872C4.61539 13.5576 4.15385 13.134 3.57692 13.134H2.07692V11.8629H3.57692C4.15385 11.8629 4.61539 11.4393 4.61539 10.9097C4.61539 10.3801 4.15385 9.95639 3.57692 9.95639H2.07692V8.57944H3.57692C4.15385 8.57944 4.61539 8.15576 4.61539 7.62617C4.61539 7.09657 4.15385 6.6729 3.57692 6.6729H2.07692V5.40187H3.57692C4.15385 5.40187 4.61539 4.97819 4.61539 4.4486C4.61539 3.919 4.15385 3.49533 3.57692 3.49533H2.07692V2.11838C2.07692 2.01246 2.07692 2.01246 2.19231 2.01246L2.30769 1.90654H17.1923C17.1923 1.90654 17.3077 1.90654 17.3077 2.01246L17.4231 2.11838V19.595C17.4231 19.595 17.4231 19.7009 17.3077 19.7009L17.1923 19.8069H2.30769C2.30769 19.8069 2.19231 19.8069 2.19231 19.7009V19.595V18.2181H2.07692ZM11.7692 21.7134V22.243H7.73077V21.6075H11.7692V21.7134Z" fill="#262626"/>
<path d="M9.92422 15.5125C11.3055 15.5125 12.4742 14.6625 12.8992 13.2813C13.218 12.2188 13.3242 9.98753 10.668 6.58753C10.668 6.58753 10.668 6.48128 10.5617 6.37503C10.1367 6.05628 9.49922 6.16253 9.18047 6.58753C7.16172 9.13753 6.41797 11.5813 6.94922 13.2813C7.37422 14.6625 8.54297 15.5125 9.92422 15.5125ZM9.92422 8.81878C11.3055 10.9438 11.3055 12.2188 11.093 12.75C10.8805 13.3875 10.3492 13.6 9.92422 13.6C9.49922 13.6 8.96797 13.3875 8.75547 12.75C8.64922 12.2188 8.54297 10.9438 9.92422 8.81878Z" fill="#262626"/>
</svg>
