<svg xmlns="http://www.w3.org/2000/svg" width="40" height="32" viewBox="0 0 40 32" fill="none">
  <path d="M30.5066 11.9593C31.3185 11.9593 32.0056 12.6464 32.0056 13.4583V16.4562C32.0056 17.3306 31.3185 17.9552 30.5066 17.9552H30.0069V21.9524C30.0069 23.0766 29.0701 23.951 28.0083 23.951H27.009C27.009 26.1994 25.1978 27.9482 23.0118 27.9482H14.4552L8.02221 31.6956C7.0229 32.2577 5.83622 31.9455 5.27412 30.9461L0.277585 22.3271C-0.284525 21.3903 0.0277585 20.1411 1.02706 19.579L6.02359 16.706V13.7706C6.02359 12.3341 6.71062 11.0225 7.95975 10.3355L12.0194 7.89965V15.4569C12.0194 17.9552 14.018 19.9538 16.5163 19.9538C18.9521 19.9538 21.0132 17.9552 21.0132 15.4569V11.9593H30.5066ZM39.6877 9.64844C40.2498 10.5853 39.9375 11.8344 39.0007 12.3965L34.0042 15.2695V13.4583C34.0042 11.5846 32.3803 9.96072 30.5066 9.96072H19.0146V15.4569C19.0146 16.8934 17.8904 17.9552 16.5163 17.9552C15.0798 17.9552 14.018 16.8934 14.018 15.4569V7.58737C14.018 6.90035 14.3303 6.27578 14.9549 5.90104L17.016 4.58945C17.6405 4.21471 18.39 3.96488 19.1395 3.96488H25.5101L32.0056 0.279944C32.9424 -0.282166 34.1291 0.0301174 34.6912 0.966967L39.6877 9.64844Z" fill="url(#paint0_linear_2217_682)"/>
  <defs>
    <linearGradient id="paint0_linear_2217_682" x1="38.6853" y1="31.6191" x2="-7.941" y2="24.5466" gradientUnits="userSpaceOnUse">
      <stop stop-color="#00A5C9"/>
      <stop offset="1" stop-color="#00E7A1"/>
    </linearGradient>
  </defs>
</svg>
