<svg xmlns="http://www.w3.org/2000/svg" width="40" height="32" viewBox="0 0 40 32" fill="none">
  <path d="M27.25 1.10323C29.4375 3.04073 29.5625 6.47823 27.5625 8.54073L20.75 15.6657C20.3125 16.1032 19.625 16.1032 19.1875 15.6657L12.375 8.54073C10.375 6.47823 10.5 3.04073 12.75 1.10323C14.625 -0.58427 17.5 -0.27177 19.25 1.60323L20 2.29073L20.6875 1.60323C22.4375 -0.27177 25.3125 -0.58427 27.25 1.10323ZM12.75 14.4157L16.375 19.2282C17.4375 20.6032 18 22.2907 18 23.9782V30.9782C18 31.5407 17.5 31.9782 17 31.9782H8.75C8.3125 31.9782 7.875 31.7282 7.8125 31.2907C7.6875 30.7907 7.4375 30.3532 7.125 29.9157L0.625 21.5407C0.1875 20.9782 0 20.3532 0 19.6657V5.97823C0 4.91573 0.875 3.97823 2 3.97823C3.0625 3.97823 4 4.91573 4 5.97823V15.2907L9.5625 22.0407C9.9375 22.4782 10.625 22.4782 11.0625 22.1032L11.875 21.2907C12.1875 20.9157 12.25 20.3532 11.9375 19.9782L9.5625 16.7907C8.9375 15.9157 9.0625 14.6657 10 13.9782C10.875 13.3532 12.125 13.5407 12.75 14.4157ZM38 3.97823C39.0625 3.97823 40 4.91573 40 5.97823V19.6657C40 20.3532 39.75 20.9782 39.3125 21.5407L32.8125 29.9157C32.5 30.3532 32.3125 30.7907 32.1875 31.2907C32.0625 31.7282 31.625 31.9782 31.1875 31.9782H23C22.4375 31.9782 22 31.5407 22 30.9782V23.9782C22 22.2907 22.5625 20.6032 23.5625 19.2282L27.1875 14.4157C27.8125 13.5407 29.0625 13.3532 30 13.9782C30.875 14.6657 31.0625 15.9157 30.375 16.7907L28 19.9782C27.6875 20.3532 27.75 20.9157 28.0625 21.2907L28.875 22.1032C29.3125 22.4782 30 22.4782 30.375 22.0407L36 15.2907V5.97823C36 4.91573 36.875 3.97823 38 3.97823Z" fill="url(#paint0_linear_2163_1338)"/>
  <defs>
    <linearGradient id="paint0_linear_2163_1338" x1="38.7166" y1="31.624" x2="-7.94606" y2="24.5414" gradientUnits="userSpaceOnUse">
      <stop stop-color="#00A5C9"/>
      <stop offset="1" stop-color="#00E7A1"/>
    </linearGradient>
  </defs>
</svg>
