<svg width="35" height="32" viewBox="0 0 35 32" fill="none" xmlns="http://www.w3.org/2000/svg">
<g clip-path="url(#clip0_2668_6009)">
<path d="M34.5006 7.2L28.7006 0.699997C28.0006 -0.100003 26.8006 -0.200004 26.0006 0.399997L22.0006 3.7C21.8006 3.9 21.6006 4 21.4006 4H16.5006C15.2006 4 14.1006 4.9 13.7006 6.1L13.3006 7.8H10.8006C9.70061 7.8 8.70061 8.5 8.20061 9.5L4.40061 17.9C4.30061 18 4.20061 18.2 4.10061 18.3L0.700612 21C-0.0993882 21.7 -0.299388 22.9 0.400612 23.7L6.40061 31.3C6.70061 31.7 7.20061 32 7.70061 32C7.80061 32 7.80061 32 7.90061 32C8.40061 32 8.80061 31.8 9.20061 31.5L12.1006 29C12.3006 28.8 12.5006 28.8 12.7006 28.8H19.8006C20.5006 28.8 21.2006 28.5 21.7006 28.1L23.6006 26.4L30.4006 20.3C30.8006 20 31.0006 19.5 31.0006 19.1L31.6006 12.8C31.6006 12.6 31.7006 12.4 31.9006 12.2L34.3006 9.8C35.1006 9.1 35.1006 7.9 34.5006 7.2ZM19.8006 26.9H12.7006C12.0006 26.9 11.3006 27.1 10.8006 27.6L7.90061 30.1L1.90061 22.5L5.30061 19.8C5.70061 19.5 5.90061 19.2 6.10061 18.8L9.90061 10.3C10.1006 10 10.4006 9.7 10.8006 9.7H12.8006L11.0006 16.3C10.7006 17.5 11.3006 18.8 12.4006 19.3C13.5006 19.9 14.9006 19.5 15.6006 18.6L18.3006 15.1L26.9006 18.9C27.2006 19 27.4006 19.3 27.5006 19.6C27.6006 19.9 27.4006 20.2 27.2006 20.5L26.5006 21.1L26.0006 21.7L20.6006 19.2C20.1006 19 19.6006 19.2 19.4006 19.7C19.2006 20.2 19.4006 20.7 19.8006 21L24.4006 23.1L22.5006 24.8L17.9006 22.9C17.4006 22.7 16.9006 22.9 16.7006 23.4C16.5006 23.9 16.7006 24.4 17.2006 24.6L21.0006 26.2L20.5006 26.6C20.3006 26.8 20.1006 26.9 19.8006 26.9ZM30.7006 10.8C30.2006 11.3 29.9006 11.9 29.9006 12.5L29.3006 18.5C29.0006 17.9 28.5006 17.4 27.9006 17.1L19.7006 13.5L21.2006 11.6C21.5006 11.2 21.4006 10.6 21.0006 10.3C20.6006 10 20.0006 10 19.7006 10.4L14.3006 17.3C14.1006 17.6 13.7006 17.7 13.4006 17.5C13.1006 17.3 12.9006 17 13.0006 16.7L15.7006 6.5C15.8006 6.1 16.2006 5.8 16.6006 5.8H21.4006C22.1006 5.8 22.7006 5.6 23.2006 5.1L27.2006 1.8L33.0006 8.4L30.7006 10.8Z" fill="#262626"/>
</g>
<defs>
<clipPath id="clip0_2668_6009">
<rect width="34.9" height="32" fill="white"/>
</clipPath>
</defs>
</svg>
