<svg xmlns="http://www.w3.org/2000/svg" width="40" height="41" viewBox="0 0 40 41" fill="none">
  <path fill-rule="evenodd" clip-rule="evenodd" d="M1.26995 16.2984C3.29836 16.6709 5.36808 16.8779 7.43781 16.8779C11.1632 16.9192 14.8888 16.1742 18.366 14.7668V21.6797L20.8082 22.8388L21.636 23.2528V14.767C25.1131 16.1743 28.8387 16.878 32.5642 16.8367C34.6339 16.8367 36.7036 16.6297 38.732 16.2572C39.3528 16.133 39.8498 15.6364 39.9739 15.0153C40.0981 14.3529 39.7669 13.7321 39.229 13.4009C36.4969 11.8694 34.1788 9.71676 32.399 7.15037C32.0678 6.65373 31.5712 6.32256 30.9917 6.23969C30.4122 6.15683 29.7914 6.28098 29.3361 6.65376C27.018 8.30939 24.4516 9.63416 21.7195 10.5033V8.01948C23.8305 7.1088 24.824 4.6666 23.9134 2.55525C22.9608 0.402957 20.5183 -0.549044 18.4073 0.320094C16.2962 1.18953 15.3027 3.67298 16.2134 5.78432C16.6275 6.77787 17.4137 7.56414 18.4073 7.97823V10.4621C15.6752 9.59262 13.1088 8.30947 10.7493 6.61251C10.2939 6.24003 9.67312 6.11586 9.09367 6.19845C8.51416 6.28132 8.01748 6.61251 7.68633 7.10913C5.90651 9.71706 3.54687 11.8281 0.773435 13.4012C0.193926 13.7324 -0.0959979 14.3947 0.0284814 15.0156C0.152355 15.6777 0.649281 16.1743 1.2701 16.2984L1.26995 16.2984ZM21.6774 38.9V32.2767L18.3658 30.7452L18.3661 38.8999C18.3661 39.8106 19.111 40.5555 20.0217 40.5555C20.9324 40.5555 21.6773 39.8106 21.6773 38.8999L21.6774 38.9ZM26.7276 25.5707L22.9193 23.7909L25.0307 22.7564C25.1964 22.6735 25.3619 22.5078 25.4447 22.3423C25.6515 21.9282 25.4447 21.3903 25.0307 21.1833C24.8649 21.1417 24.7408 21.0591 24.6166 20.9762C23.8713 20.4793 23.6646 19.4444 24.1612 18.6994C24.6582 17.9542 25.6931 17.7474 26.438 18.2441C27.183 18.6166 27.8038 19.1961 28.2178 19.8997C29.3769 21.8866 28.7145 24.4117 26.7276 25.5707ZM13.6056 35.6712C14.475 35.9612 15.427 35.5058 15.7166 34.6364C15.965 33.8914 15.6754 33.1049 15.013 32.6908C14.5989 32.4838 14.3922 31.9459 14.5989 31.5318C14.6818 31.3663 14.8472 31.2006 15.013 31.1177L17.124 30.1242L13.3157 28.3444C11.3289 29.5034 10.6665 32.0285 11.8255 34.0153C12.1983 34.7193 12.8606 35.2988 13.6056 35.6712ZM16.0894 19.1547C16.3792 20.0242 15.8826 20.9345 15.0132 21.2244C14.8064 21.3073 14.6823 21.4728 14.5997 21.6798C14.393 22.0939 14.5997 22.6318 15.0138 22.8389L19.774 25.074L26.3973 28.1786C27.2664 28.5924 27.9701 29.2961 28.3841 30.1655C29.3364 32.2352 28.467 34.6774 26.3973 35.671C26.2731 35.7538 26.1074 35.8367 25.9832 35.878C25.1138 36.1678 24.2034 35.6712 23.9135 34.8018C23.6236 33.9324 24.1202 33.022 24.9897 32.7321C25.1554 32.6492 25.3208 32.4835 25.4037 32.318C25.6105 31.9039 25.4037 31.366 24.9897 31.159L18.3664 28.0131L13.6056 25.7779C12.7364 25.3641 12.0328 24.6605 11.6187 23.791C10.6664 21.7213 11.5358 19.2791 13.6056 18.2856C13.7297 18.2027 13.8955 18.1198 14.0196 18.0785C14.8891 17.7887 15.7994 18.2853 16.0894 19.1547Z" fill="url(#paint0_linear_2217_676)"/>
  <defs>
    <linearGradient id="paint0_linear_2217_676" x1="38.7168" y1="40.1032" x2="-7.51834" y2="37.8235" gradientUnits="userSpaceOnUse">
      <stop stop-color="#00A5C9"/>
      <stop offset="1" stop-color="#00E7A1"/>
    </linearGradient>
  </defs>
</svg>
