<svg width="34" height="34" viewBox="0 0 34 34" fill="none" xmlns="http://www.w3.org/2000/svg">
<path fill-rule="evenodd" clip-rule="evenodd" d="M21.9375 0C28.6148 0 34 5.38522 34 12.0625C34 18.6847 28.6073 24 22 24C21.4117 24 20.8503 23.9642 20.3175 23.8902L19.1989 25.1486C18.9428 25.4583 18.6092 25.6622 18.3115 25.7882C18.0027 25.9188 17.6517 26 17.3125 26H16V27.5C16 28.9544 14.8373 30 13.5 30H12V31.5C12 32.9544 10.8373 34 9.5 34H2.5C1.07272 34 0 32.9273 0 31.5V26.625C0 26.0139 0.210721 25.3751 0.730393 24.8554L10.3885 15.1973C10.1447 14.1831 10 13.1412 10 12C10 5.38328 15.3224 0.0681434 21.9272 5.31077e-05L21.9375 0ZM21.9427 2C16.4248 2.05962 12 6.49344 12 12C12 13.144 12.1707 14.1781 12.4635 15.2324L12.6197 15.7945L2.14461 26.2696C2.03928 26.3749 2 26.4861 2 26.625V31.5C2 31.8227 2.17728 32 2.5 32H9.5C9.78774 32 10 31.7956 10 31.5V28H13.5C13.7877 28 14 27.7956 14 27.5V24H17.3125C17.3483 24 17.4348 23.9874 17.5322 23.9462C17.5767 23.9274 17.6115 23.9075 17.6355 23.8907C17.6499 23.8807 17.6572 23.874 17.6593 23.8719L17.6728 23.855L19.5712 21.7194L20.1336 21.8319C20.6839 21.942 21.3046 22 22 22C27.5177 22 32 17.5653 32 12.0625C32 6.4915 27.513 2.00277 21.9427 2ZM20 10C20 7.83633 21.7467 6 24 6C26.1773 6 28 7.82272 28 10C28 12.2533 26.1637 14 24 14C21.7602 14 20 12.2398 20 10ZM24 8C22.8783 8 22 8.91367 22 10C22 11.1352 22.8648 12 24 12C25.0863 12 26 11.1217 26 10C26 8.92728 25.0727 8 24 8Z" fill="#262626"/>
</svg>
