<svg xmlns="http://www.w3.org/2000/svg" width="38" height="38" viewBox="0 0 38 38" fill="none">
  <path d="M38 13.1367C38 20.3359 32.1367 26.125 24.9375 26.125C24.0469 26.125 23.2305 26.0508 22.4883 25.9023L20.707 27.9062C20.4102 28.2773 19.8164 28.5 19.3711 28.5H16.625V31.4688C16.625 32.5078 15.8086 33.25 14.8438 33.25H11.875V36.2188C11.875 37.2578 11.0586 38 10.0938 38H1.78125C0.742188 38 0 37.2578 0 36.2188V30.4297C0 29.9844 0.148438 29.5391 0.519531 29.168L12.4688 17.2188C12.0977 15.8828 11.875 14.5469 11.875 13.0625C11.875 5.86328 17.6641 0.0742188 24.8633 0C32.1367 0 38 5.86328 38 13.1367ZM24.9375 9.5C24.9375 11.5039 26.4961 13.0625 28.5 13.0625C30.4297 13.0625 32.0625 11.5039 32.0625 9.5C32.0625 7.57031 30.4297 5.9375 28.5 5.9375C26.4961 5.9375 24.9375 7.57031 24.9375 9.5Z" fill="url(#paint0_linear_2163_1346)"/>
  <defs>
    <linearGradient id="paint0_linear_2163_1346" x1="36.7807" y1="37.5791" x2="-7.91196" y2="32.1559" gradientUnits="userSpaceOnUse">
      <stop stop-color="#00A5C9"/>
      <stop offset="1" stop-color="#00E7A1"/>
    </linearGradient>
  </defs>
</svg>
