<svg width="27" height="34" viewBox="0 0 27 34" fill="none" xmlns="http://www.w3.org/2000/svg">
<g clip-path="url(#clip0_3567_442)">
<path d="M1.07937 34H25.581C26.1206 34 26.5524 33.5683 26.5524 33.0286C26.5524 32.4889 26.1206 32.0572 25.581 32.0572H16.946V28.6032H22.4508C23.9619 28.6032 25.2571 27.8477 26.0127 26.5524C26.7683 25.2572 26.7683 23.6381 26.0127 22.3429L22.4508 16.2985L22.6667 16.1905C23.9619 15.0032 24.6095 13.1683 24.3937 11.4413C24.0698 9.6064 22.9905 8.09529 21.2635 7.33973L20.9397 7.23179L22.2349 5.93656C22.4508 5.72068 22.5587 5.50481 22.5587 5.28894C22.5587 5.07306 22.4508 4.74926 22.2349 4.64132L20.7238 3.23814L21.8032 2.05084C22.019 1.83497 22.127 1.6191 22.127 1.40322C22.127 1.18735 22.019 0.863542 21.8032 0.755605C21.4794 0.431796 20.8317 0.431796 20.5079 0.755605L19.4286 2.05084L17.9175 0.539732C17.5937 0.215923 16.946 0.215923 16.6222 0.539732L7.01587 9.71433C6.8 9.93021 6.69206 10.1461 6.69206 10.4699C6.69206 10.7937 6.8 11.0096 7.01587 11.1175L8.52698 12.6286L7.33968 13.708C7.12381 13.9239 7.01587 14.1397 7.01587 14.3556C7.01587 14.5715 7.12381 14.8953 7.33968 15.0032C7.66349 15.435 8.31111 15.327 8.63492 15.0032L9.82222 13.9239L11.3333 15.435C11.6571 15.7588 12.3048 15.7588 12.6286 15.327L14.1397 13.8159V14.3556C15.0032 16.1905 16.946 17.4858 18.9968 17.4858C19.5365 17.4858 20.0762 17.3778 20.6159 17.162L20.8317 17.054L24.1778 22.7747L24.3937 23.0985C24.8254 23.854 24.8254 24.7175 24.3937 25.3651C23.9619 26.1207 23.2063 26.5524 22.4508 26.5524H1.07937C0.755556 26.5524 0.539683 26.5524 0.32381 26.7683C0.107937 27.2 0 27.4159 0 27.7397C0 27.9556 0.107937 28.2794 0.32381 28.4953C0.539683 28.7112 0.755556 28.7112 1.07937 28.7112H9.71428V32.1651H1.07937C0.539683 32.1651 0.107937 32.5969 0.107937 33.1366C0.107937 33.6762 0.539683 34 1.07937 34ZM11.981 13.3842L8.95873 10.362L17.1619 2.15878L20.1841 5.181L11.981 13.3842ZM18.9968 15.7588C18.673 15.7588 18.2413 15.6508 17.9175 15.5429C16.6222 15.1112 15.7587 14.0318 15.5429 12.7366V12.6286L19.3206 8.63497H19.4286C20.7238 8.85084 21.8032 9.71433 22.2349 11.0096C22.6667 12.3048 22.3429 13.708 21.3714 14.5715C20.8317 15.327 19.8603 15.7588 18.9968 15.7588Z" fill="#262626"/>
</g>
<defs>
<clipPath id="clip0_3567_442">
<rect width="26.5524" height="34" fill="white"/>
</clipPath>
</defs>
</svg>
