<svg width="33" height="34" viewBox="0 0 33 34" fill="none" xmlns="http://www.w3.org/2000/svg">
<g clip-path="url(#clip0_2668_5995)">
<path d="M14.5707 12.7764C14.7818 12.7764 14.993 12.6708 15.0986 12.5652L17.6328 10.031C17.9495 9.71426 17.9495 9.18631 17.6328 8.86954C17.316 8.55277 16.7881 8.55277 16.4713 8.86954L14.5707 10.7702L13.9371 10.1366C13.6204 9.81985 13.0924 9.81985 12.7756 10.1366C12.67 10.2422 12.5645 10.4534 12.5645 10.6646C12.5645 10.8757 12.67 11.0869 12.7756 11.1925L13.9371 12.354C14.1483 12.7764 14.3595 12.7764 14.5707 12.7764Z" fill="#262626"/>
<path d="M7.07531 28.9316H23.3362C23.8641 28.9316 24.2865 28.5093 24.2865 27.9813C24.2865 27.4534 23.8641 27.031 23.3362 27.031H7.07531C6.54736 27.031 6.125 27.4534 6.125 27.9813C6.125 28.5093 6.65295 28.9316 7.07531 28.9316Z" fill="#262626"/>
<path d="M31.7826 1.0559C31.0435 0.31677 30.1988 0 29.2484 0H5.80745C5.06832 0 4.32919 0.31677 3.80124 0.84472C3.27329 1.37267 2.95652 2.00621 2.95652 2.85093V29.4596C2.95652 30.1988 1.68944 31.2547 1.0559 31.7826C0.52795 32.205 0 32.6273 0 33.1553C0 33.472 0.10559 34.1056 1.0559 34.1056H24.6025C25.3416 34.1056 26.0807 33.7888 26.6087 33.2609C27.1366 32.7329 27.4534 31.9938 27.4534 31.2547V8.86956H31.8882C32.4161 8.86956 32.8385 8.4472 32.8385 7.91925V3.59006C32.9441 2.63975 32.5217 1.79503 31.7826 1.0559ZM31.0435 3.59006V6.96894H27.4534V3.59006C27.4534 3.06211 27.6646 2.63975 27.9814 2.32298C28.2981 2.00621 28.7205 1.79503 29.2484 1.79503C29.6708 1.79503 30.1988 2.00621 30.5155 2.32298C30.8323 2.74534 31.0435 3.1677 31.0435 3.59006ZM26.0807 1.90062C25.764 2.42857 25.6584 3.06211 25.6584 3.69565V31.3602C25.6584 31.5714 25.5528 31.8882 25.3416 31.9938C25.1304 32.205 24.9193 32.3106 24.7081 32.3106H3.27329C4.01242 31.677 4.85714 30.6211 4.85714 29.4596V2.85093C4.85714 2.63975 4.96273 2.32298 5.17391 2.21739C5.2795 1.90062 5.49068 1.90062 5.80745 1.90062H26.0807Z" fill="#262626"/>
<path d="M7.07531 25.2361H23.3362C23.8641 25.2361 24.2865 24.8137 24.2865 24.2858C24.2865 23.7578 23.8641 23.3354 23.3362 23.3354H7.07531C6.54736 23.3354 6.125 23.7578 6.125 24.2858C6.125 24.8137 6.65295 25.2361 7.07531 25.2361Z" fill="#262626"/>
<path d="M10.8766 19.7454C10.8766 19.9566 10.8766 20.0621 10.9822 20.1677C11.0878 20.3789 11.2989 20.5901 11.5101 20.5901C11.6157 20.5901 11.7213 20.5901 11.7213 20.5901C11.9325 20.5901 12.0381 20.5901 12.1437 20.4845L14.889 18.9007L18.1623 20.4845C18.2679 20.5901 18.4791 20.5901 18.6902 20.5901C19.2182 20.5901 19.6406 20.1677 19.6406 19.6398V14.2547C20.4853 13.1988 20.9076 12.0373 20.9076 10.6646C20.9076 9.18637 20.2741 7.70811 19.2182 6.65221C18.1623 5.59631 16.684 4.96277 15.2058 4.96277C13.7275 4.96277 12.2492 5.59631 11.1933 6.65221C10.1374 7.70811 9.50391 9.18637 9.50391 10.6646C9.50391 11.9317 9.92627 13.1988 10.771 14.2547L10.8766 19.7454ZM11.4045 10.7702C11.4045 9.71432 11.8269 8.76401 12.566 8.02488C13.3051 7.28575 14.2555 6.86339 15.2058 6.86339C16.2617 6.86339 17.212 7.28575 17.8455 8.02488C18.5847 8.76401 19.007 9.71432 19.007 10.7702C19.007 11.8261 18.5847 12.7764 17.8455 13.41C17.1064 14.1491 16.1561 14.5715 15.2058 14.5715C14.1499 14.5715 13.1996 14.1491 12.4604 13.41C11.8269 12.6708 11.4045 11.7205 11.4045 10.7702ZM17.8455 15.8385V18.2671L15.4169 17.1056C15.3114 17 15.2058 17 14.9946 17C14.7834 17 14.6778 17 14.5722 17.1056L12.7772 18.1615V15.8385C14.2555 16.5777 16.2617 16.5777 17.8455 15.8385Z" fill="#262626"/>
</g>
<defs>
<clipPath id="clip0_2668_5995">
<rect width="32.9441" height="34" fill="white"/>
</clipPath>
</defs>
</svg>
