<svg xmlns="http://www.w3.org/2000/svg" width="40" height="40" viewBox="0 0 40 40" fill="none">
  <path d="M39.4496 8.21189C40.0751 8.75914 39.9969 9.38457 39.9969 10.01H29.99V0.00312715C30.6154 0.00312715 31.2409 -0.0750515 31.8663 0.550378L39.4496 8.21189ZM27.4883 10.6354C27.4883 11.6518 28.3482 12.5117 29.3646 12.5117H39.9969V38.0762C39.9969 39.1707 39.2151 39.9524 38.1206 39.9524H17.5596V32.8382C18.8886 32.2909 19.9049 31.1183 20.2958 29.6329C20.6086 28.5384 20.374 28.9292 21.1558 28.1475C22.3285 26.9748 22.7976 25.1767 22.3285 23.5349C22.0939 22.4404 22.0939 22.8313 22.3285 21.815C22.7976 20.1732 22.3285 18.3751 21.1558 17.1243C20.374 16.3425 20.5304 16.7334 20.2958 15.6389C19.8268 13.9971 18.5759 12.6681 16.9342 12.2772C15.8397 11.9645 16.1524 12.1208 15.4488 11.4172C14.5888 10.4791 13.3379 9.93182 12.0871 9.93182C11.5398 9.93182 11.4616 9.93182 10.0544 10.3227V1.87942C10.0544 0.784914 10.8362 0.00312715 11.9307 0.00312715H27.4883V10.6354ZM19.3577 26.4275C18.185 27.6002 18.3414 27.3657 17.8723 29.0074C17.6378 29.7892 17.0123 30.4146 16.2305 30.6492C15.136 30.9619 15.3706 30.8837 14.9797 31.0401V39.9524L9.97625 37.4507L4.97281 39.9524V31.0401C4.6601 30.8837 4.89463 30.9619 3.80013 30.6492C3.01834 30.4146 2.39291 29.7892 2.15838 29.0074C1.76748 27.3657 1.84566 27.6002 0.672982 26.4275C0.125731 25.8021 -0.108805 24.9421 0.0475522 24.1603C0.516624 22.5186 0.516624 22.7531 0.0475522 21.1896C-0.108805 20.3296 0.125731 19.4696 0.672982 18.9224C1.84566 17.7497 1.68931 17.9061 2.15838 16.3425C2.39291 15.4825 3.01834 14.8571 3.80013 14.6225C5.3637 14.2317 5.12917 14.3098 6.30185 13.1372C6.92728 12.5899 7.78724 12.3554 8.56903 12.5899C10.1326 12.9808 9.89807 12.9808 11.4616 12.5899C12.2434 12.3554 13.1034 12.5899 13.7288 13.1372C14.9015 14.3098 14.667 14.2317 16.2305 14.6225C17.0123 14.8571 17.6378 15.4825 17.8723 16.3425C18.2632 17.9061 18.185 17.7497 19.3577 18.9224C19.9049 19.4696 20.1395 20.3296 19.9831 21.1896C19.5141 22.7531 19.5141 22.5186 19.9831 24.1603C20.1395 24.9421 19.9049 25.8021 19.3577 26.4275ZM10.0544 27.522C12.7907 27.522 15.0579 25.2549 15.0579 22.5186C15.0579 19.7042 12.7907 17.5152 10.0544 17.5152C7.23999 17.5152 5.05099 19.7042 5.05099 22.5186C5.05099 25.2549 7.23999 27.522 10.0544 27.522Z" fill="url(#paint0_linear_2217_688)"/>
  <defs>
    <linearGradient id="paint0_linear_2217_688" x1="38.7166" y1="39.5099" x2="-8.32675" y2="33.7947" gradientUnits="userSpaceOnUse">
      <stop stop-color="#00A5C9"/>
      <stop offset="1" stop-color="#00E7A1"/>
    </linearGradient>
  </defs>
</svg>
