<svg width="35" height="35" viewBox="0 0 35 35" fill="none" xmlns="http://www.w3.org/2000/svg">
<g clip-path="url(#clip0_3934_1910)">
<path d="M12.885 14.238C16.9214 14.238 20.2114 11.0464 20.2114 7.11901C20.2114 3.19162 16.9312 0 12.885 0C8.83878 0 5.55859 3.19162 5.55859 7.11901C5.55859 11.0464 8.8486 14.238 12.885 14.238ZM12.885 2.09792C15.7527 2.09792 18.0803 4.35493 18.0803 7.11901C18.0803 9.8831 15.7527 12.1401 12.885 12.1401C10.0173 12.1401 7.68973 9.8831 7.68973 7.11901C7.68973 4.35493 10.0173 2.09792 12.885 2.09792Z" fill="#262626"/>
<path d="M19.1508 16.1868H6.62912C2.97574 16.1868 0 19.0801 0 22.6297V28.0286C0 28.6053 0.481225 29.0726 1.06066 29.0726H13.5823C14.1716 29.0726 14.643 28.6053 14.643 28.0286C14.643 27.4519 14.1618 26.9846 13.5823 26.9846H2.13114V22.6396C2.13114 20.2434 4.15425 18.2946 6.62912 18.2946H19.1508C19.74 18.2946 20.2114 17.8273 20.2114 17.2506C20.2114 16.674 19.7302 16.2067 19.1508 16.2067V16.1868Z" fill="#262626"/>
<path d="M31.6716 22.7151H28.4405V19.5931C28.4405 18.3403 27.3897 17.3162 26.1031 17.3162H24.7086C23.422 17.3162 22.3712 18.3303 22.3712 19.5931V22.7151H19.1401C17.8536 22.7151 16.8027 23.7392 16.8027 24.992V26.3442C16.8027 27.597 17.8536 28.6211 19.1401 28.6211H22.3712V31.7431C22.3712 32.9959 23.422 34.02 24.7086 34.02H26.1031C27.3897 34.02 28.4405 32.9959 28.4405 31.7431V28.6211H31.6716C32.9581 28.6211 34.009 27.597 34.009 26.3442V24.992C34.009 23.7392 32.9581 22.7151 31.6716 22.7151ZM23.3238 26.7618H19.1499C18.9044 26.7618 18.6982 26.5729 18.6982 26.3342V24.982C18.6982 24.7434 18.9044 24.5545 19.1499 24.5545H23.3238C23.8443 24.5545 24.2666 24.1369 24.2666 23.6298V19.5831C24.2666 19.3445 24.4729 19.1556 24.7184 19.1556H26.113C26.3585 19.1556 26.5647 19.3445 26.5647 19.5831V23.6298C26.5647 24.1369 26.987 24.5545 27.5075 24.5545H31.6814C31.9269 24.5545 32.1332 24.7434 32.1332 24.982V26.3342C32.1332 26.5729 31.9269 26.7618 31.6814 26.7618H27.5075C26.987 26.7618 26.5647 27.1794 26.5647 27.6865V31.7332C26.5647 31.9718 26.3585 32.1607 26.113 32.1607H24.7184C24.4729 32.1607 24.2666 31.9718 24.2666 31.7332V27.6865C24.2666 27.1794 23.8443 26.7618 23.3238 26.7618Z" fill="#262626"/>
</g>
<defs>
<clipPath id="clip0_3934_1910">
<rect width="35" height="35" fill="white"/>
</clipPath>
</defs>
</svg>
