<svg width="23" height="34" viewBox="0 0 23 34" fill="none" xmlns="http://www.w3.org/2000/svg">
<g clip-path="url(#clip0_3934_1743)">
<path d="M17.9938 30.5476H4.28919C3.76612 30.5476 3.34766 30.9661 3.34766 31.4891C3.34766 32.0122 3.76612 32.4307 4.28919 32.4307H17.9938C18.5169 32.4307 18.9353 32.0122 18.9353 31.4891C18.9353 30.9661 18.5169 30.5476 17.9938 30.5476Z" fill="#262626"/>
<path d="M4.91797 27.4093C4.91797 27.9324 5.33643 28.3509 5.85951 28.3509H16.5303C17.0534 28.3509 17.4718 27.9324 17.4718 27.4093C17.4718 26.8862 17.0534 26.4678 16.5303 26.4678H5.85951C5.33643 26.4678 4.91797 26.8862 4.91797 27.4093Z" fill="#262626"/>
<path d="M14.8564 22.3877H7.53333C7.01026 22.3877 6.5918 22.8062 6.5918 23.3292C6.5918 23.8523 7.01026 24.2708 7.53333 24.2708H14.8564C15.3795 24.2708 15.798 23.8523 15.798 23.3292C15.798 22.8062 15.3795 22.3877 14.8564 22.3877Z" fill="#262626"/>
<path d="M4.28919 3.45241H17.9938C18.5169 3.45241 18.9353 3.03395 18.9353 2.51087C18.9353 1.9878 18.5169 1.56934 17.9938 1.56934H4.28919C3.76612 1.56934 3.34766 1.9878 3.34766 2.51087C3.34766 3.03395 3.76612 3.45241 4.28919 3.45241Z" fill="#262626"/>
<path d="M17.4718 6.59071C17.4718 6.06763 17.0534 5.64917 16.5303 5.64917H5.85951C5.33643 5.64917 4.91797 6.06763 4.91797 6.59071C4.91797 7.11379 5.33643 7.53225 5.85951 7.53225H16.5303C17.0534 7.53225 17.4718 7.11379 17.4718 6.59071Z" fill="#262626"/>
<path d="M7.53333 9.72925C7.01026 9.72925 6.5918 10.1477 6.5918 10.6708C6.5918 11.1939 7.01026 11.6123 7.53333 11.6123H14.8564C15.3795 11.6123 15.798 11.1939 15.798 10.6708C15.798 10.1477 15.3795 9.72925 14.8564 9.72925H7.53333Z" fill="#262626"/>
<path d="M11.6126 17.8892C17.7849 14.6462 23.5388 10.6708 22.1788 0.836923C22.1788 0.627692 21.9696 0.313846 21.7603 0.209231C21.5511 0 21.2372 0 21.028 0C20.8188 0 20.5049 0.209231 20.4003 0.418462C20.2957 0.627692 20.1911 0.836923 20.1911 1.15077C21.4465 9.93846 16.3203 13.2862 10.4619 16.32C4.18494 19.5631 -1.25506 23.3292 0.209555 33.1631C0.31417 33.5815 0.732632 34 1.15109 34H1.25571C1.46494 34 1.77879 33.7908 1.8834 33.5815C1.98802 33.3723 2.09263 33.1631 2.09263 32.8492C0.837247 24.1662 5.64955 20.9231 11.6126 17.8892Z" fill="#262626"/>
<path d="M7.53341 16.0062C7.63802 16.1108 7.84725 16.1108 8.05649 16.1108C8.37033 16.1108 8.68418 15.9015 8.89341 15.6923C8.99802 15.4831 9.10264 15.1692 8.99802 14.96C8.89341 14.7508 8.78879 14.5415 8.57956 14.3323C4.70879 12.0308 1.04726 8.57846 2.09341 1.15077C2.09341 0.941539 2.09341 0.627692 1.88418 0.418462C1.77956 0.209231 1.57033 0 1.3611 0C1.04726 0 0.838025 0 0.628794 0.209231C0.419563 0.313846 0.314948 0.523077 0.210333 0.836923C-1.04505 9.52 3.45341 13.4954 7.53341 16.0062Z" fill="#262626"/>
<path d="M14.8556 17.9939C14.4371 17.68 13.8095 17.8893 13.4956 18.3077C13.391 18.517 13.2864 18.8308 13.391 19.04C13.4956 19.2493 13.6002 19.4585 13.8095 19.6677C17.5756 22.0739 21.3418 25.4216 20.191 32.9539C20.191 33.1631 20.191 33.477 20.4002 33.6862C20.5048 33.8954 20.8187 34 21.0279 34.1047H21.1325C21.6556 34.1047 21.9695 33.7908 22.0741 33.2677C23.4341 24.5847 18.9356 20.5047 14.8556 17.9939Z" fill="#262626"/>
</g>
<defs>
<clipPath id="clip0_3934_1743">
<rect width="22.3877" height="34" fill="white"/>
</clipPath>
</defs>
</svg>
