<svg xmlns="http://www.w3.org/2000/svg" width="40" height="32" viewBox="0 0 40 32" fill="none">
  <path d="M7.78745 0C12.0288 0 15.5749 3.54607 15.5749 7.78745V23.3624C15.5749 27.6733 12.0288 31.1498 7.78745 31.1498C3.47654 31.1498 0 27.6733 0 23.3624V7.78745C0 3.54607 3.47654 0 7.78745 0ZM11.1249 15.5749V7.78745C11.1249 5.97965 9.59525 4.44997 7.78745 4.44997C5.91012 4.44997 4.44997 5.97965 4.44997 7.78745V15.5749H11.1249ZM20.7897 13.5585L35.4607 28.2295C35.7388 28.4381 35.6693 28.8553 35.3912 29.0639C31.0803 32.1928 24.9616 31.8451 21.0678 27.9514C17.1741 24.0577 16.8265 17.939 19.9553 13.628C20.1639 13.3499 20.5811 13.2804 20.7897 13.5585ZM36.7818 12.2374C40.6755 16.1312 41.0232 22.2499 37.8943 26.5608C37.6857 26.8389 37.2685 26.8389 37.0599 26.6303L22.3889 11.9593C22.1108 11.7507 22.1803 11.3335 22.4585 11.1249C26.7694 7.99604 32.8881 8.27417 36.7818 12.2374Z" fill="url(#paint0_linear_2217_294)"/>
  <defs>
    <linearGradient id="paint0_linear_2217_294" x1="38.7166" y1="30.8244" x2="-7.89089" y2="23.5666" gradientUnits="userSpaceOnUse">
      <stop stop-color="#00A5C9"/>
      <stop offset="1" stop-color="#00E7A1"/>
    </linearGradient>
  </defs>
</svg>
