<svg width="28" height="28" viewBox="0 0 28 28" fill="none" xmlns="http://www.w3.org/2000/svg">
<path d="M23.0973 5.12559C23.496 5.35205 23.9562 5.48215 24.4466 5.48215C25.9581 5.48215 27.1877 4.2525 27.1877 2.7411C27.1877 1.22965 25.9581 0 24.4466 0C22.9352 0 21.7056 1.22965 21.7056 2.7411C21.7056 3.16209 21.8012 3.56109 21.9715 3.91787L19.0126 6.15869C18.5753 5.86327 18.0486 5.69062 17.4822 5.69062C16.9295 5.69062 16.4148 5.85561 15.9838 6.13813L13.0829 3.76452C13.1963 3.46413 13.2588 3.13901 13.2588 2.7994C13.2588 1.288 12.0292 0.0583516 10.5178 0.0583516C9.00636 0.0583516 7.77671 1.288 7.77671 2.7994C7.77671 3.18248 7.85601 3.54736 7.99858 3.87882L4.20895 7.86549C3.99873 7.8137 3.77927 7.78564 3.5533 7.78564C2.0419 7.78564 0.812256 9.01529 0.812256 10.5267C0.812256 12.0381 2.0419 13.2677 3.5533 13.2677C5.0647 13.2677 6.29435 12.0381 6.29435 10.5267C6.29435 9.84829 6.04607 9.22715 5.6363 8.74798L9.07608 5.12936C9.49521 5.38967 9.98909 5.5405 10.5178 5.5405C11.0933 5.5405 11.6277 5.36178 12.0692 5.0575L14.9406 7.40688C14.8124 7.72368 14.7411 8.06942 14.7411 8.43167C14.7411 9.94306 15.9708 11.1727 17.4822 11.1727C18.9936 11.1727 20.2232 9.94306 20.2232 8.43167C20.2232 8.08298 20.1571 7.74966 20.0378 7.44264L23.0973 5.12559ZM24.4466 1.64248C25.0524 1.64248 25.5452 2.13527 25.5452 2.7411C25.5452 3.34682 25.0524 3.83961 24.4466 3.83961C23.8409 3.83961 23.348 3.34682 23.348 2.7411C23.3481 2.13533 23.8409 1.64248 24.4466 1.64248ZM3.5533 11.6253C2.94758 11.6253 2.45474 11.1325 2.45474 10.5267C2.45474 9.92092 2.94753 9.42813 3.5533 9.42813C4.15902 9.42813 4.65187 9.92092 4.65187 10.5267C4.65187 11.1325 4.15902 11.6253 3.5533 11.6253ZM10.5178 3.89796C9.91204 3.89796 9.41919 3.40517 9.41919 2.7994C9.41919 2.19363 9.91198 1.70089 10.5178 1.70089C11.1235 1.70089 11.6163 2.19368 11.6163 2.7994C11.6163 3.40512 11.1235 3.89796 10.5178 3.89796ZM17.4822 9.53012C16.8765 9.53012 16.3836 9.03733 16.3836 8.43161C16.3836 7.82589 16.8764 7.33305 17.4822 7.33305C18.088 7.33305 18.5808 7.82584 18.5808 8.43161C18.5808 9.03738 18.0879 9.53012 17.4822 9.53012Z" fill="#262626"/>
<path d="M24.3989 10.5894C22.9217 10.5894 21.7197 11.7913 21.7197 13.2686V28H27.0782V13.2686C27.0782 11.7913 25.8763 10.5894 24.3989 10.5894ZM25.4356 26.3575H23.3622V13.2686C23.3622 12.697 23.8273 12.2319 24.3989 12.2319C24.9705 12.2319 25.4356 12.697 25.4356 13.2686L25.4356 26.3575Z" fill="#262626"/>
<path d="M17.4822 17.3C16.0049 17.3 14.803 18.5019 14.803 19.9793V28H20.1614V19.9792C20.1614 18.5019 18.9595 17.3 17.4822 17.3ZM18.5189 26.3575H16.4455V19.9792C16.4455 19.4076 16.9105 18.9425 17.4821 18.9425C18.0538 18.9425 18.5188 19.4076 18.5188 19.9792L18.5189 26.3575Z" fill="#262626"/>
<path d="M10.4749 12.7795C8.99758 12.7795 7.79565 13.9814 7.79565 15.4588V28.0001H13.1542V15.4588C13.1542 13.9815 11.9523 12.7795 10.4749 12.7795ZM11.5117 26.3575H9.43819V15.4588C9.43819 14.8871 9.90326 14.4221 10.4749 14.4221C11.0466 14.4221 11.5116 14.8871 11.5116 15.4588V26.3575H11.5117Z" fill="#262626"/>
<path d="M3.55816 19.76C2.08083 19.76 0.878906 20.9619 0.878906 22.4392V27.9999H6.23735V22.4392C6.23735 20.9619 5.03543 19.76 3.55816 19.76ZM4.59481 26.3574H2.52145V22.4392C2.52145 21.8676 2.98651 21.4025 3.55816 21.4025C4.12975 21.4025 4.59481 21.8676 4.59481 22.4392V26.3574Z" fill="#262626"/>
</svg>
