<svg xmlns="http://www.w3.org/2000/svg" width="40" height="33" viewBox="0 0 40 33" fill="none">
  <path d="M8.00313 8.00313C12.3798 8.00313 16.0063 11.6295 16.0063 16.0063C16.0063 20.4455 12.3798 24.0094 8.00313 24.0094C3.56389 24.0094 0 20.4455 0 16.0063C0 11.6295 3.56389 8.00313 8.00313 8.00313ZM12.0047 17.0066V15.0059C12.0047 14.8808 11.8171 14.6932 11.6295 14.6932H9.31614V12.3798C9.31614 12.1923 9.12857 12.0047 9.00352 12.0047H7.00274C6.81516 12.0047 6.62759 12.1923 6.62759 12.3798V14.6932H4.31419C4.12661 14.6932 4.00156 14.8808 4.00156 15.0059V17.0066C4.00156 17.1942 4.12661 17.3818 4.31419 17.3818H6.62759V19.6952C6.62759 19.8828 6.81516 20.0078 7.00274 20.0078H9.00352C9.12857 20.0078 9.31614 19.8828 9.31614 19.6952V17.3818H11.6295C11.8171 17.3818 12.0047 17.1942 12.0047 17.0066ZM4.00156 30.0117V26.0102H12.0047V30.0117C12.0047 31.1372 11.0668 32.0125 10.0039 32.0125H6.00234C4.8769 32.0125 4.00156 31.1372 4.00156 30.0117ZM12.0047 2.00078V6.00234H4.00156V2.00078C4.00156 0.937866 4.8769 0 6.00234 0H10.0039C11.0668 0 12.0047 0.937866 12.0047 2.00078ZM39.9531 27.7608C40.1407 28.5111 39.7655 29.449 38.8277 29.6991L37.8273 29.9492C37.4521 30.0742 37.0145 29.9492 36.5143 29.6991C35.5139 29.7616 33.1379 30.3869 32.2626 30.8245C31.95 31.3247 31.6374 31.6374 31.2622 31.6999L30.3243 31.95C29.324 32.2626 28.5737 31.6374 28.3236 30.8245L22.0086 6.00234H14.0055V2.00078C14.0055 0.937866 14.8808 0 16.0063 0H20.0078C21.0707 0 22.0086 0.937866 22.0086 2.00078V2.5635C22.0711 2.50098 22.1962 2.43845 22.3837 2.37593L23.3216 2.12583C23.6968 2.00078 24.1344 2.12583 24.6346 2.37593C25.635 2.3134 28.0109 1.68816 28.8863 1.25049C29.1989 0.750293 29.5115 0.437671 29.8867 0.375147L30.8871 0.0625244C31.8249 -0.187573 32.6377 0.437671 32.8253 1.25049L39.9531 27.7608ZM31.5123 27.3232L35.3888 26.2603L29.6366 4.75186L25.7601 5.81477L31.5123 27.3232ZM14.0055 8.06565V8.00313H22.0086V24.0094H14.0055C16.3814 22.1336 18.007 19.32 18.007 16.0063C18.007 12.755 16.3814 9.94138 14.0055 8.06565ZM14.0055 30.0117V26.0102H22.0086V30.0117C22.0086 31.1372 21.0707 32.0125 20.0078 32.0125H16.0063C14.8808 32.0125 14.0055 31.1372 14.0055 30.0117Z" fill="url(#paint0_linear_2217_299)"/>
  <defs>
    <linearGradient id="paint0_linear_2217_299" x1="38.7166" y1="31.6772" x2="-7.94959" y2="24.606" gradientUnits="userSpaceOnUse">
      <stop stop-color="#00A5C9"/>
      <stop offset="1" stop-color="#00E7A1"/>
    </linearGradient>
  </defs>
</svg>
