<svg width="34" height="34" viewBox="0 0 34 34" fill="none" xmlns="http://www.w3.org/2000/svg">
<g clip-path="url(#clip0_3934_1889)">
<path d="M28.0467 6.22393C28.5308 6.49891 29.0897 6.65689 29.6852 6.65689C31.5205 6.65689 33.0137 5.16375 33.0137 3.32848C33.0137 1.49314 31.5205 0 29.6852 0C27.8499 0 26.3568 1.49314 26.3568 3.32848C26.3568 3.83968 26.4729 4.32418 26.6797 4.75741L23.0868 7.47841C22.5557 7.11968 21.9161 6.91004 21.2284 6.91004C20.5572 6.91004 19.9323 7.11038 19.4089 7.45344L15.8864 4.57121C16.0241 4.20644 16.1 3.81165 16.1 3.39927C16.1 1.564 14.6068 0.0708555 12.7716 0.0708555C10.9363 0.0708555 9.44316 1.564 9.44316 3.39927C9.44316 3.86445 9.53945 4.30751 9.71257 4.71L5.11089 9.55095C4.85562 9.48806 4.58913 9.45399 4.31474 9.45399C2.47947 9.45399 0.986328 10.9471 0.986328 12.7824C0.986328 14.6177 2.47947 16.1108 4.31474 16.1108C6.15001 16.1108 7.64316 14.6177 7.64316 12.7824C7.64316 11.9586 7.34167 11.2044 6.84409 10.6225L11.021 6.22851C11.5299 6.5446 12.1296 6.72775 12.7716 6.72775C13.4705 6.72775 14.1194 6.51073 14.6555 6.14125L18.1422 8.99406C17.9865 9.37875 17.8999 9.79857 17.8999 10.2384C17.8999 12.0737 19.3931 13.5669 21.2283 13.5669C23.0636 13.5669 24.5568 12.0737 24.5568 10.2384C24.5568 9.81504 24.4765 9.4103 24.3316 9.03749L28.0467 6.22393ZM29.6852 1.99445C30.4208 1.99445 31.0192 2.59283 31.0192 3.32848C31.0192 4.064 30.4208 4.66238 29.6852 4.66238C28.9497 4.66238 28.3512 4.064 28.3512 3.32848C28.3513 2.5929 28.9497 1.99445 29.6852 1.99445ZM4.31474 14.1164C3.57923 14.1164 2.98077 13.518 2.98077 12.7824C2.98077 12.0468 3.57916 11.4484 4.31474 11.4484C5.05026 11.4484 5.64871 12.0468 5.64871 12.7824C5.64871 13.518 5.05026 14.1164 4.31474 14.1164ZM12.7716 4.73324C12.0361 4.73324 11.4376 4.13485 11.4376 3.39927C11.4376 2.66369 12.036 2.06537 12.7716 2.06537C13.5072 2.06537 14.1055 2.66375 14.1055 3.39927C14.1055 4.13479 13.5071 4.73324 12.7716 4.73324ZM21.2284 11.5723C20.4929 11.5723 19.8944 10.9739 19.8944 10.2384C19.8944 9.50287 20.4928 8.90441 21.2284 8.90441C21.964 8.90441 22.5624 9.5028 22.5624 10.2384C22.5624 10.974 21.9639 11.5723 21.2284 11.5723Z" fill="#262626"/>
<path d="M29.6283 12.8584C27.8345 12.8584 26.375 14.3179 26.375 16.1117V33.9999H32.8817V16.1117C32.8817 14.3179 31.4222 12.8584 29.6283 12.8584ZM30.8872 32.0054H28.3694V16.1117C28.3694 15.4176 28.9342 14.8529 29.6282 14.8529C30.3224 14.8529 30.8871 15.4176 30.8871 16.1117L30.8872 32.0054Z" fill="#262626"/>
<path d="M21.2279 21.0071C19.4341 21.0071 17.9746 22.4665 17.9746 24.2605V33.9999H24.4813V24.2604C24.4813 22.4665 23.0218 21.0071 21.2279 21.0071ZM22.4868 32.0054H19.9691V24.2604C19.9691 23.5662 20.5338 23.0015 21.2279 23.0015C21.922 23.0015 22.4867 23.5662 22.4867 24.2604L22.4868 32.0054Z" fill="#262626"/>
<path d="M12.7202 15.5181C10.9263 15.5181 9.4668 16.9775 9.4668 18.7714V34.0001H15.9735V18.7714C15.9735 16.9775 14.5141 15.5181 12.7202 15.5181ZM13.9791 32.0056H11.4613V18.7714C11.4613 18.0773 12.026 17.5126 12.7202 17.5126C13.4143 17.5126 13.979 18.0773 13.979 18.7714V32.0056H13.9791Z" fill="#262626"/>
<path d="M4.31978 23.9944C2.52588 23.9944 1.06641 25.4538 1.06641 27.2477V34H7.57309V27.2477C7.57309 25.4538 6.11361 23.9944 4.31978 23.9944ZM5.57858 32.0055H3.06092V27.2477C3.06092 26.5535 3.62564 25.9888 4.31978 25.9888C5.01386 25.9888 5.57858 26.5535 5.57858 27.2477V32.0055Z" fill="#262626"/>
</g>
<defs>
<clipPath id="clip0_3934_1889">
<rect width="34" height="34" fill="white"/>
</clipPath>
</defs>
</svg>
