<svg width="32" height="32" viewBox="0 0 32 32" fill="none" xmlns="http://www.w3.org/2000/svg">
<path d="M28.7922 19.3902C30.1812 17.4796 31.0007 15.1282 31.0007 12.5854C31.0007 6.18689 25.8138 1 19.4154 1C13.0171 1 7.83008 6.18689 7.83008 12.5853C7.83008 17.4772 10.8621 21.6607 15.1493 23.3596" stroke="#262626" stroke-width="1.8" stroke-miterlimit="22.9256" stroke-linecap="round" stroke-linejoin="round"/>
<path d="M16.7773 20.6498C13.4899 19.5191 11.1211 16.3321 11.1211 12.5769C11.1211 11.1774 11.4502 9.85681 12.0331 8.69219M15.6295 5.00059C16.7641 4.40225 18.0505 4.06445 19.4138 4.06445C23.9937 4.06445 27.7065 7.87558 27.7065 12.5769C27.7065 14.2878 27.2146 15.8807 26.3683 17.2151" stroke="#262626" stroke-width="1.8" stroke-miterlimit="22.9256" stroke-linecap="round" stroke-linejoin="round"/>
<path d="M12.53 21.9577L4.48729 30.4039C3.69223 31.1989 2.39131 31.1989 1.59625 30.4039C0.80125 29.6088 0.80125 28.3079 1.59625 27.5129L9.93948 19.5681" stroke="#262626" stroke-width="1.8" stroke-miterlimit="22.9256" stroke-linecap="round" stroke-linejoin="round"/>
<path d="M7.77344 22.0166L9.98344 24.2266" stroke="#262626" stroke-width="1.8" stroke-miterlimit="22.9256" stroke-linecap="round" stroke-linejoin="round"/>
<path fill-rule="evenodd" clip-rule="evenodd" d="M24.3436 16.4169C25.27 16.5927 26.1295 16.9572 26.8809 17.4688L26.8817 17.468C27.3758 16.974 28.1843 16.974 28.6783 17.468V17.4681C29.1723 17.9621 29.1723 18.7706 28.6783 19.2647L28.6775 19.2654C29.189 20.0168 29.5534 20.8764 29.7292 21.8028H29.7297C30.4284 21.8028 31.0001 22.3745 31.0001 23.0732C31.0001 23.7719 30.4284 24.3436 29.7297 24.3436H29.7292C29.5535 25.27 29.189 26.1295 28.6775 26.8808L28.6784 26.8817C29.1724 27.3757 29.1725 28.1842 28.6784 28.6783C28.1843 29.1723 27.3758 29.1723 26.8817 28.6783L26.8809 28.6774C26.1295 29.1889 25.27 29.5534 24.3436 29.7292V29.7296C24.3436 30.4283 23.772 31 23.0733 31H23.0732C22.3745 31 21.8028 30.4283 21.8028 29.7296V29.7295C20.8764 29.5536 20.0169 29.1891 19.2654 28.6775L19.2647 28.6783C18.7707 29.1723 17.9622 29.1723 17.4681 28.6783C16.9741 28.1842 16.9741 27.3758 17.4681 26.8817L17.4689 26.8809C16.9575 26.1294 16.5931 25.2699 16.4173 24.3435H16.4169C15.7182 24.3435 15.1465 23.7719 15.1465 23.0731C15.1465 22.3744 15.7182 21.8028 16.4169 21.8028H16.4174C16.5931 20.8764 16.9576 20.0169 17.4691 19.2656L17.4682 19.2647C16.9742 18.7706 16.9742 17.9621 17.4682 17.4681H17.4683C17.9623 16.9741 18.7708 16.974 19.2648 17.4681L19.2658 17.469C20.0171 16.9575 20.8766 16.593 21.803 16.4172V16.4168C21.803 15.7181 22.3747 15.1465 23.0734 15.1465H23.0732C23.7718 15.1465 24.3436 15.7181 24.3436 16.4168V16.4169Z" stroke="#262626" stroke-width="1.8" stroke-miterlimit="22.9256" stroke-linecap="round" stroke-linejoin="round"/>
<path d="M21.3667 21.8535C21.6361 21.8535 21.8545 21.6351 21.8545 21.3657C21.8545 21.0963 21.6361 20.8779 21.3667 20.8779C21.0973 20.8779 20.8789 21.0963 20.8789 21.3657C20.8789 21.6351 21.0973 21.8535 21.3667 21.8535Z" stroke="#262626" stroke-width="1.8" stroke-miterlimit="22.9256" stroke-linecap="round" stroke-linejoin="round"/>
<path d="M21.3086 26.1772H21.3091" stroke="#262626" stroke-width="1.8" stroke-miterlimit="22.9256" stroke-linecap="round" stroke-linejoin="round"/>
<path d="M25.8203 25.3845H25.8208" stroke="#262626" stroke-width="1.8" stroke-miterlimit="22.9256" stroke-linecap="round" stroke-linejoin="round"/>
<path d="M26.7363 21.3601H26.7368" stroke="#262626" stroke-width="1.8" stroke-miterlimit="22.9256" stroke-linecap="round" stroke-linejoin="round"/>
</svg>
