<svg width="32" height="34" viewBox="0 0 32 34" fill="none" xmlns="http://www.w3.org/2000/svg">
<g clip-path="url(#clip0_3934_1965)">
<path d="M7.45513 10.0451C7.95135 10.0451 8.35362 9.64349 8.35362 9.14805C8.35362 8.65261 7.95135 8.25098 7.45513 8.25098C6.95891 8.25098 6.55664 8.65261 6.55664 9.14805C6.55664 9.64349 6.95891 10.0451 7.45513 10.0451Z" fill="#262626"/>
<path d="M14.2565 21.3917C14.2565 20.8989 13.8517 20.4947 13.358 20.4947H11.64V18.7794C11.64 18.2865 11.2352 17.8823 10.7415 17.8823C10.2479 17.8823 9.84304 18.2865 9.84304 18.7794V20.4947H8.12505C7.63138 20.4947 7.22656 20.8989 7.22656 21.3917C7.22656 21.8846 7.63138 22.2888 8.12505 22.2888H9.84304V24.0041C9.84304 24.497 10.2479 24.9012 10.7415 24.9012C11.2352 24.9012 11.64 24.497 11.64 24.0041V22.2888H13.358C13.8517 22.2888 14.2565 21.8846 14.2565 21.3917Z" fill="#262626"/>
<path d="M31.2694 21.2045C30.5387 19.9328 29.3539 19.0259 27.9321 18.6513C26.5103 18.2767 25.0392 18.464 23.7655 19.2033L21.4749 20.5243V15.27C21.4749 14.5109 21.228 13.7617 20.7738 13.1604L17.5452 8.86234V7.2555C18.3351 6.90061 18.8584 6.11198 18.8584 5.23462V2.22795C18.8584 1.00557 17.8612 0.0197754 16.6467 0.0197754H4.83801C3.6137 0.0197754 2.62635 1.01543 2.62635 2.22795V5.23462C2.62635 6.11198 3.14965 6.90061 3.93952 7.2555V8.86234L0.701018 13.1505C0.246837 13.7519 0 14.5109 0 15.2601V27.9374C0 29.8794 1.57976 31.4567 3.52484 31.4567H13.9216C14.9583 33.0931 16.7454 34.0001 18.5819 34.0001C19.51 34.0001 20.448 33.7635 21.307 33.2706L29.2552 28.6866C31.8815 27.1784 32.78 23.8168 31.2694 21.1946V21.2045ZM16.7158 25.3349L20.0629 23.4028L23.7458 29.7809L20.3986 31.713C18.6313 32.7284 16.3801 32.127 15.3632 30.3625C14.3462 28.5979 14.9583 26.3503 16.7158 25.3349ZM1.80685 16.591H19.668V21.5495L15.8173 23.7675C14.9978 24.2407 14.3166 24.911 13.8426 25.7194H1.80685V16.591ZM2.15242 14.2251L5.55878 9.6904C5.67726 9.53268 5.7365 9.34538 5.7365 9.14822V7.43294H15.7285V8.25115H10.071C9.57729 8.25115 9.17248 8.65532 9.17248 9.14822C9.17248 9.64111 9.57729 10.0453 10.071 10.0453H16.1728L19.3126 14.2251C19.4409 14.3926 19.5298 14.5898 19.589 14.787H1.86609C1.92533 14.5799 2.01419 14.3926 2.14255 14.2251H2.15242ZM17.0515 5.22476C17.0515 5.45149 16.8639 5.62894 16.6467 5.62894H4.83801C4.61092 5.62894 4.4332 5.44164 4.4332 5.22476V2.21809C4.4332 1.99136 4.6208 1.81392 4.83801 1.81392H16.6368C16.8639 1.81392 17.0417 2.00122 17.0417 2.21809V5.22476H17.0515ZM13.191 29.6527H3.52484C2.57698 29.6527 1.80685 28.8838 1.80685 27.9374V27.5234H13.1712C13.0429 28.2332 13.0528 28.9627 13.191 29.6527ZM28.3567 27.1291L25.3156 28.8838L21.6328 22.5057L24.6739 20.751C25.523 20.2581 26.5202 20.1299 27.4681 20.3764C28.4159 20.6327 29.2157 21.2439 29.7093 22.0917C30.7263 23.8464 30.124 26.1039 28.3567 27.1192V27.1291Z" fill="#262626"/>
</g>
<defs>
<clipPath id="clip0_3934_1965">
<rect width="32" height="34" fill="white"/>
</clipPath>
</defs>
</svg>
