<svg width="27" height="28" viewBox="0 0 27 28" fill="none" xmlns="http://www.w3.org/2000/svg">
<g clip-path="url(#clip0_3951_2076)">
<path d="M6.12939 8.27257C6.5374 8.27257 6.86815 7.94182 6.86815 7.53381C6.86815 7.1258 6.5374 6.79504 6.12939 6.79504C5.72138 6.79504 5.39062 7.1258 5.39062 7.53381C5.39062 7.94182 5.72138 8.27257 6.12939 8.27257Z" fill="#262626"/>
<path d="M11.7229 17.6167C11.7229 17.2108 11.39 16.8779 10.9841 16.8779H9.5715V15.4653C9.5715 15.0594 9.23865 14.7266 8.83274 14.7266C8.42683 14.7266 8.09398 15.0594 8.09398 15.4653V16.8779H6.68139C6.27548 16.8779 5.94263 17.2108 5.94263 17.6167C5.94263 18.0226 6.27548 18.3554 6.68139 18.3554H8.09398V19.768C8.09398 20.1739 8.42683 20.5068 8.83274 20.5068C9.23865 20.5068 9.5715 20.1739 9.5715 19.768V18.3554H10.9841C11.39 18.3554 11.7229 18.0226 11.7229 17.6167Z" fill="#262626"/>
<path d="M25.7106 17.4624C25.1099 16.4152 24.1357 15.6683 22.9667 15.3598C21.7976 15.0513 20.588 15.2056 19.5407 15.8144L17.6573 16.9023V12.5752C17.6573 11.9501 17.4543 11.3331 17.0809 10.8379L14.4262 7.29834V5.97506C15.0757 5.6828 15.5059 5.03334 15.5059 4.31081V1.83473C15.5059 0.828065 14.686 0.0162354 13.6874 0.0162354H3.97796C2.9713 0.0162354 2.15947 0.836183 2.15947 1.83473V4.31081C2.15947 5.03334 2.58974 5.6828 3.2392 5.97506V7.29834L0.576399 10.8298C0.202957 11.325 0 11.9501 0 12.5671V23.0072C0 24.6065 1.29893 25.9055 2.89823 25.9055H11.4468C12.2992 27.2531 13.7686 28 15.2786 28C16.0417 28 16.813 27.8052 17.5193 27.3992L24.0545 23.6242C26.214 22.3821 26.9527 19.6138 25.7106 17.4543V17.4624ZM13.7443 20.864L16.4964 19.2728L19.5245 24.5254L16.7724 26.1165C15.3192 26.9527 13.4683 26.4575 12.6321 25.0043C11.7959 23.5512 12.2992 21.7002 13.7443 20.864ZM1.48565 13.6631H16.1716V17.7466L13.0055 19.5732C12.3317 19.9629 11.7715 20.5149 11.3819 21.1806H1.48565V13.6631ZM1.76979 11.7147L4.5706 7.98028C4.66802 7.85039 4.71673 7.69614 4.71673 7.53377V6.12119H12.9324V6.79501H8.28066C7.87475 6.79501 7.5419 7.12786 7.5419 7.53377C7.5419 7.93969 7.87475 8.27254 8.28066 8.27254H13.2978L15.8794 11.7147C15.9849 11.8527 16.058 12.0151 16.1067 12.1774H1.53436C1.58307 12.007 1.65613 11.8527 1.76167 11.7147H1.76979ZM14.0203 4.30269C14.0203 4.48942 13.866 4.63554 13.6874 4.63554H3.97796C3.79124 4.63554 3.64511 4.4813 3.64511 4.30269V1.82661C3.64511 1.63989 3.79936 1.49376 3.97796 1.49376H13.6793C13.866 1.49376 14.0122 1.64801 14.0122 1.82661V4.30269H14.0203ZM10.846 24.4198H2.89823C2.11888 24.4198 1.48565 23.7866 1.48565 23.0072V22.6663H10.8298C10.7243 23.2508 10.7324 23.8515 10.846 24.4198ZM23.3157 22.3415L20.8153 23.7866L17.7872 18.5341L20.2876 17.089C20.9858 16.6831 21.8057 16.5776 22.5851 16.7805C23.3645 16.9916 24.022 17.4949 24.4279 18.1931C25.2641 19.6382 24.7689 21.4972 23.3157 22.3334V22.3415Z" fill="#262626"/>
</g>
<defs>
<clipPath id="clip0_3951_2076">
<rect width="26.3114" height="28" fill="white"/>
</clipPath>
</defs>
</svg>
