<svg xmlns="http://www.w3.org/2000/svg" width="38" height="36" viewBox="0 0 38 36" fill="none">
  <path d="M38 7.6V8.86667C38 9.2625 37.6833 9.5 37.3667 9.5H35.4667V10.45C35.4667 11.0042 34.9917 11.4 34.5167 11.4H3.48333C2.92917 11.4 2.53333 11.0042 2.53333 10.45V9.5H0.633333C0.2375 9.5 0 9.2625 0 8.86667V7.6C0 7.44167 0.158333 7.125 0.316667 7.04583L18.6833 0.0791667C18.7625 0.0791667 18.9208 0 19 0C19 0 19.1583 0.0791667 19.2375 0.0791667L37.6042 7.04583C37.7625 7.125 38 7.44167 38 7.6ZM36.1 31.6667C37.1292 31.6667 38 32.5375 38 33.5667V34.8333C38 35.2292 37.6833 35.4667 37.3667 35.4667H0.633333C0.2375 35.4667 0 35.2292 0 34.8333V33.5667C0 32.5375 0.791667 31.6667 1.9 31.6667H36.1ZM6.33333 12.6667H11.4V27.8667H16.4667V12.6667H21.5333V27.8667H26.6V12.6667H31.6667V27.8667H34.5167C34.9917 27.8667 35.4667 28.3417 35.4667 28.8167V30.4H2.53333V28.8167C2.53333 28.3417 2.92917 27.8667 3.48333 27.8667H6.33333V12.6667Z" fill="url(#paint0_linear_2217_304)"/>
  <defs>
    <linearGradient id="paint0_linear_2217_304" x1="37.9659" y1="46.4711" x2="-10.0718" y2="42.451" gradientUnits="userSpaceOnUse">
      <stop stop-color="#00A5C9"/>
      <stop offset="1" stop-color="#00E7A1"/>
    </linearGradient>
  </defs>
</svg>
