<svg width="38" height="34" viewBox="0 0 38 34" fill="none" xmlns="http://www.w3.org/2000/svg">
<g clip-path="url(#clip0_2668_5256)">
<path d="M37.1385 16.32L19.3538 0.313876C19.04 2.96682e-05 18.4123 2.96682e-05 18.0985 0.313876L0.313846 16.32C0.104615 16.4246 0 16.7385 0 17.0523C0 17.5754 0.418462 17.9939 0.941539 17.9939H2.61538C2.72 18.7262 3.03385 19.3539 3.55692 19.877C3.76615 20.0862 4.08 20.2954 4.39385 20.5046V28.037C4.08 28.1416 3.66154 28.3508 3.45231 28.6646C2.92923 29.1877 2.61538 29.92 2.61538 30.6523V33.0585C2.61538 33.5816 3.03385 34 3.55692 34H10.7754C11.2985 34 11.7169 33.5816 11.7169 33.0585V30.6523C11.7169 29.92 11.4031 29.1877 10.88 28.6646C10.5662 28.3508 10.2523 28.1416 9.93846 28.037V20.5046C10.2523 20.4 10.5662 20.1908 10.7754 19.877C11.2985 19.3539 11.6123 18.7262 11.7169 17.9939H14.2277C14.3323 18.7262 14.6462 19.3539 15.1692 19.877C15.3785 20.0862 15.6923 20.2954 16.0062 20.5046V28.037C15.6923 28.1416 15.2738 28.3508 15.0646 28.6646C14.5415 29.1877 14.2277 29.92 14.2277 30.6523V33.0585C14.2277 33.5816 14.6462 34 15.1692 34H22.3877C22.9108 34 23.3292 33.5816 23.3292 33.0585V30.6523C23.3292 29.92 23.0154 29.1877 22.4923 28.6646C22.1785 28.3508 21.8646 28.1416 21.5508 28.037V20.5046C21.8646 20.4 22.1785 20.1908 22.3877 19.877C22.9108 19.3539 23.2246 18.7262 23.3292 17.9939H25.84C25.9446 18.7262 26.2585 19.3539 26.7815 19.877C26.9908 20.0862 27.3046 20.2954 27.6185 20.5046V28.037C27.3046 28.1416 26.8862 28.3508 26.6769 28.6646C26.1538 29.1877 25.84 29.92 25.84 30.6523V33.0585C25.84 33.5816 26.2585 34 26.7815 34H34C34.5231 34 34.9415 33.5816 34.9415 33.0585V30.6523C34.9415 29.92 34.6277 29.1877 34.1046 28.6646C33.7908 28.3508 33.4769 28.1416 33.1631 28.037V20.5046C33.4769 20.4 33.7908 20.1908 34 19.877C34.5231 19.3539 34.8369 18.7262 34.9415 17.9939H36.6154C36.9292 17.9939 37.1385 17.8893 37.3477 17.68C37.5569 17.2616 37.5569 16.6339 37.1385 16.32ZM27.6185 30.6523C27.6185 30.4431 27.7231 30.2339 27.8277 30.0246C28.0369 29.8154 28.2462 29.8154 28.4554 29.8154H32.0123C32.2215 29.8154 32.4308 29.92 32.64 30.0246C32.8492 30.2339 32.8492 30.4431 32.8492 30.6523V32.117H27.5138V30.6523H27.6185ZM29.5015 27.8277V20.8185H31.1754V27.8277H29.5015ZM27.7231 17.9939H32.9538C32.9538 18.2031 32.7446 18.4123 32.64 18.517C32.4308 18.7262 32.1169 18.8308 31.8031 18.8308H28.8738C28.56 18.8308 28.2462 18.7262 28.0369 18.517C27.8277 18.4123 27.7231 18.2031 27.7231 17.9939ZM16.1108 30.6523C16.1108 30.4431 16.2154 30.2339 16.32 30.0246C16.5292 29.8154 16.7385 29.8154 16.9477 29.8154H20.5046C20.7138 29.8154 20.9231 29.92 21.1323 30.0246C21.3415 30.2339 21.3415 30.4431 21.3415 30.6523V32.117H16.0062V30.6523H16.1108ZM17.8892 27.8277V20.8185H19.5631V27.8277H17.8892ZM16.1108 17.9939H21.3415C21.3415 18.2031 21.1323 18.4123 21.0277 18.517C20.8185 18.7262 20.5046 18.8308 20.1908 18.8308H17.2615C16.9477 18.8308 16.6338 18.7262 16.4246 18.517C16.32 18.4123 16.2154 18.2031 16.1108 17.9939ZM4.60308 17.9939H9.83385C9.83385 18.2031 9.62462 18.4123 9.52 18.517C9.20615 18.7262 8.89231 18.8308 8.57846 18.8308H5.75385C5.44 18.8308 5.12615 18.7262 4.91692 18.517C4.70769 18.4123 4.60308 18.2031 4.60308 17.9939ZM4.49846 30.6523C4.49846 30.4431 4.60308 30.2339 4.70769 30.0246C4.91692 29.8154 5.12615 29.8154 5.33538 29.8154H8.89231C9.10154 29.8154 9.31077 29.92 9.52 30.0246C9.72923 30.2339 9.72923 30.4431 9.72923 30.6523V32.117H4.49846V30.6523ZM6.27692 27.8277V20.8185H7.95077V27.8277H6.27692ZM34.1046 16.0062H3.45231L18.7262 2.19695L34.1046 16.0062Z" fill="#262626"/>
<path d="M16.7393 6.90467C16.2162 7.42775 15.9023 8.16006 15.9023 8.89236C15.9023 9.62467 16.2162 10.357 16.7393 10.8801C17.2623 11.4031 17.9947 11.717 18.727 11.717C19.4593 11.717 20.1916 11.4031 20.7147 10.8801C21.2377 10.357 21.5516 9.62467 21.5516 8.89236C21.5516 8.16006 21.2377 7.42775 20.7147 6.90467C20.1916 6.38159 19.4593 6.06775 18.727 6.06775C17.9947 6.06775 17.2623 6.38159 16.7393 6.90467ZM17.7854 8.99698C17.7854 8.78775 17.89 8.4739 18.0993 8.36929C18.3085 8.16006 18.5177 8.05544 18.727 8.05544C18.9362 8.05544 19.1454 8.16006 19.3547 8.26467C19.5639 8.4739 19.6685 8.68313 19.6685 8.89236C19.6685 9.1016 19.5639 9.41544 19.3547 9.62467C19.0408 9.93852 18.4131 9.93852 17.9947 9.62467C17.89 9.52006 17.7854 9.20621 17.7854 8.99698Z" fill="#262626"/>
</g>
<defs>
<clipPath id="clip0_2668_5256">
<rect width="37.4523" height="34" fill="white"/>
</clipPath>
</defs>
</svg>
